<svg width="148" height="96" viewBox="0 0 148 96" fill="none" xmlns="http://www.w3.org/2000/svg">
<path d="M25.1484 24.7275C25.1484 24.7275 23.4488 28.6923 14.5589 31.2383C14.5589 31.2383 14.0557 34.1175 14.8044 35.8294C15.9362 38.417 19.5532 40.3582 19.7517 44.0091C19.7687 46.2811 18.9779 48.4853 17.5204 50.2283C17.5204 50.2283 9.53233 50.1467 4.3057 62.0988C-1.09175 74.4356 0.539408 84.9504 9.04837 85.7045L9.03991 86.4554C25.1484 94.842 40.6713 84.5473 40.6713 84.5473L37.973 70.9994C37.973 70.9994 43.2766 75.3397 46.4681 75.6736L46.7659 63.2629C46.7659 63.2629 57.8108 63.6153 58.284 63.69C58.7572 63.7646 60.543 64.017 59.3558 65.9074C57.9924 68.0779 58.4672 69.159 58.6187 69.5521C59.1335 70.8878 63.0813 72.1882 64.2393 69.8168C65.338 67.5632 63.5468 66.923 63.3206 65.2119C63.1914 64.2185 64.0447 63.6815 65.8805 63.6538C67.7163 63.6261 75.9298 63.69 75.9298 63.69C75.9298 63.69 76.0414 53.6106 76.0368 52.635C76.0321 51.6594 75.9498 50.9938 74.4502 51.6055C72.7113 52.3149 70.9625 52.4473 69.8876 51.2439C68.7188 49.9359 68.9835 46.3112 72.0158 46.2635C73.797 46.2358 74.7564 48.0054 75.5359 47.9416C76.3153 47.8777 76.2868 46.542 76.2868 45.4287C76.2868 44.3153 76.1199 34.9392 76.1199 34.9392L55.3079 34.6522C55.3079 34.6522 55.134 32.2124 53.8022 32.324C53.7098 32.1275 53.5738 31.9548 53.4044 31.8189C53.2351 31.6831 53.0369 31.5879 52.8251 31.5404C52.6132 31.493 52.3933 31.4946 52.1822 31.5452C51.9711 31.5958 51.7744 31.694 51.607 31.8323C51.607 31.8323 50.7168 30.5905 49.1588 31.8323C49.1588 31.8323 48.4663 31.5584 47.8785 32.4625C47.3218 33.1604 46.5679 33.6747 45.7149 33.9382C45.0824 34.246 44.0945 35.594 46.3896 37.416C46.3896 37.416 44.8454 37.5552 44.7069 38.0561C44.5684 38.557 42.2579 58.0609 42.2579 58.0609C42.2579 58.0609 33.682 49.909 27.6475 50.0759C27.6475 50.0759 30.3773 47.2245 29.8788 46.6674C29.3802 46.1104 25.8955 48.741 25.8955 48.741V46.3612C25.8955 46.3612 29.8518 45.1786 30.7982 41.283C31.7446 37.3875 30.1288 29.0401 29.7672 27.9275C28.0046 27.2253 26.4251 26.131 25.1484 24.7275Z" fill="white"/>
<path d="M107.13 10.5372C107.13 10.5372 105.294 18.3852 105.502 21.7229C105.711 25.0607 106.441 27.7744 110.625 29.3186L110.427 31.1413C110.427 31.1413 108.243 31.0713 107.937 31.4053C107.368 32.5353 107.104 33.7943 107.172 35.0577C107.172 35.0577 97.7604 36.3511 93.3994 40.6082L88.0735 41.8955L88.5305 44.5115C88.5305 44.5115 79.8207 54.0969 79.5422 63.6899H75.9298C75.9298 63.6899 75.9113 75.145 75.8698 75.9167C75.8282 76.6884 75.682 78.0665 73.8454 77.4402C72.0089 76.8138 71.5918 75.5458 69.3828 76.65C67.1738 77.7541 68.5065 82.1013 70.6485 82.3652C72.6798 82.616 73.9447 80.5917 75.4343 81.405C76.009 81.7196 75.6359 93.7418 75.6359 93.7418L103.586 94.218V89.6485C103.586 89.6485 115.872 97.1464 130.931 86.6277L130.597 76.5915C130.597 76.5915 143.935 79.0829 146.316 69.4967C148.868 59.225 135.722 40.5875 119.632 36.4418C119.632 36.4418 119.988 33.1688 119.247 32.397C118.506 31.6253 116.81 31.6869 116.81 31.6869L116.92 29.6318C116.92 29.6318 121.393 27.7852 122.562 21.6391C122.562 21.6391 127.109 21.9084 126.29 18.3006C125.622 15.3583 121.699 17.4381 121.699 17.4381C121.699 17.4381 122.506 12.1414 121.615 11.4928C120.725 10.8442 117.275 11.4835 116.607 11.262C115.939 11.0404 117.275 9.57848 117.275 9.57848C117.275 9.57848 113.264 10.5618 112.781 10.3017C112.419 10.1071 112.879 9.00757 112.879 9.00757C112.879 9.00757 108.702 10.2032 107.13 10.5372Z" fill="white"/>
<path d="M90.6054 54.6108C90.6054 54.6108 97.948 54.2353 100.744 48.517C103.54 42.7987 101.579 38.6685 101.579 38.6685L88.0725 41.9239L90.6054 54.6108Z" fill="#FF7449"/>
<path d="M122.343 63.9315L122.089 63.9976C122.004 63.8228 121.907 63.6539 121.798 63.4921C120.685 62.5887 119.522 61.7482 118.314 60.9746C118.034 60.8446 117.324 60.4876 116.946 60.9746C116.68 61.4124 117.041 61.9749 117.297 62.1941C118.384 62.8774 119.432 63.6203 120.437 64.4193L119.555 64.6463C118.716 63.9939 117.843 63.3878 116.939 62.8304C116.655 62.7046 116.337 62.6825 116.039 62.7681C116 62.7905 115.967 62.822 115.944 62.8598C115.92 62.8976 115.906 62.9406 115.902 62.9851C115.684 63.4968 117.539 64.6778 118.102 65.0194L107.133 67.8386C107.133 67.8386 107.141 67.7016 107.17 67.4539C107.581 63.8798 108.795 60.4448 110.72 57.4053C112.663 54.583 115.55 52.5463 118.86 51.6608C119.022 51.6216 119.108 51.6047 119.108 51.6047L120.631 57.4053C120.047 57.1683 119.587 57.0875 119.449 57.2429C119.277 57.4368 119.521 57.9585 119.723 58.2555C120.191 58.4753 120.637 58.7364 121.058 59.0357L121.353 60.1606C120.746 59.6473 120.073 59.2177 119.352 58.8833C118.934 58.7179 118.268 58.6064 118.108 58.8272C117.791 59.265 118.462 60.099 118.753 60.3876C119.364 60.7876 120.837 61.7725 122.034 62.7481L122.343 63.9315Z" fill="#FFB949"/>
<path d="M75.9297 63.8492L89.8569 79.1536L104.083 64.7317L75.9297 63.8492Z" fill="#FF7449"/>
<path d="M75.6331 93.5925L103.583 94.1765L89.8572 79.1536L75.6331 93.5925Z" fill="#FF7449"/>
<path d="M70.9407 76.4684C71.3577 78.2826 71.2556 80.1776 70.646 81.9366C71.3872 82.0451 72.1421 81.8712 72.7612 81.4495C73.8207 80.934 75.1125 80.3123 75.7573 81.301L75.6334 93.5925L46.1548 93.0639L46.8911 63.2629L59.5095 63.5168C59.6726 63.5979 59.8156 63.7143 59.9281 63.8576C60.5213 64.6347 59.8188 65.8497 59.3126 66.6929C58.7955 67.5608 58.4523 68.1317 58.8132 69.0243C60.5718 68.5855 62.4168 68.6342 64.1499 69.1651C64.4299 67.8571 63.2935 66.5252 63.0334 65.4719C62.8465 64.7101 62.8965 63.9907 63.582 63.5999L75.9242 63.8499L75.788 77.4901C75.6425 77.7212 75.4257 77.8986 75.1705 77.9958C74.9153 78.0929 74.6354 78.1045 74.3731 78.0287C73.2898 77.7587 72.2364 76.346 70.9407 76.4684Z" fill="#FFB949"/>
<path d="M68.9772 47.81L65.471 46.8228C65.4424 46.8148 65.4159 46.8007 65.3933 46.7815C65.3706 46.7623 65.3524 46.7385 65.3397 46.7116C65.3271 46.6848 65.3204 46.6555 65.3201 46.6259C65.3198 46.5962 65.3258 46.5668 65.3379 46.5397L67.3468 42.0455C67.3641 42.0069 67.3691 41.964 67.3612 41.9224C67.3532 41.8809 67.3327 41.8428 67.3024 41.8133C67.2721 41.7839 67.2334 41.7644 67.1917 41.7576C67.1499 41.7509 67.1071 41.7571 67.069 41.7755L62.1848 44.1383C62.1572 44.1516 62.1271 44.1586 62.0965 44.1588C62.0659 44.159 62.0357 44.1524 62.0079 44.1395C61.9802 44.1267 61.9557 44.1078 61.9361 44.0843C61.9165 44.0608 61.9024 44.0333 61.8947 44.0037L60.7483 39.5218C60.737 39.4783 60.7118 39.4397 60.6766 39.4117C60.6414 39.3838 60.5981 39.3681 60.5532 39.3669C60.5082 39.3658 60.4642 39.3793 60.4276 39.4055C60.391 39.4316 60.364 39.469 60.3505 39.5118L58.9756 43.9914C58.9663 44.0217 58.9501 44.0496 58.9283 44.0727C58.9065 44.0958 58.8797 44.1135 58.8499 44.1246C58.8201 44.1356 58.7882 44.1396 58.7566 44.1362C58.725 44.1329 58.6946 44.1223 58.6678 44.1052L54.2244 41.3246C54.1874 41.3014 54.144 41.2906 54.1005 41.2937C54.0569 41.2968 54.0155 41.3137 53.9821 41.3418C53.9488 41.37 53.9252 41.408 53.9148 41.4503C53.9044 41.4927 53.9078 41.5373 53.9243 41.5777L55.921 46.4412C55.9316 46.467 55.9368 46.4948 55.9364 46.5227C55.9359 46.5506 55.9299 46.5782 55.9185 46.6037C55.9071 46.6292 55.8907 46.6522 55.8703 46.6712C55.8498 46.6902 55.8257 46.7049 55.7994 46.7143L51.3037 48.3178C51.2633 48.3319 51.2283 48.3582 51.2036 48.3931C51.1788 48.428 51.1655 48.4697 51.1655 48.5124C51.1655 48.5552 51.1788 48.5969 51.2036 48.6318C51.2283 48.6667 51.2633 48.693 51.3037 48.7071L55.7802 50.2259C55.8078 50.2353 55.833 50.2504 55.8544 50.2702C55.8757 50.29 55.8926 50.3141 55.9039 50.3409C55.9153 50.3678 55.9208 50.3967 55.9202 50.4258C55.9195 50.4549 55.9127 50.4836 55.9002 50.5099L53.6381 55.2741C53.6197 55.3127 53.6137 55.3562 53.6211 55.3984C53.6284 55.4405 53.6488 55.4794 53.6792 55.5095C53.7097 55.5396 53.7488 55.5595 53.791 55.5664C53.8333 55.5733 53.8767 55.5669 53.9151 55.548L58.1846 53.4583C58.2107 53.4455 58.2393 53.4384 58.2683 53.4375C58.2974 53.4365 58.3263 53.4417 58.3533 53.4526C58.3802 53.4636 58.4045 53.4801 58.4246 53.5011C58.4448 53.5221 58.4602 53.5471 58.47 53.5744L59.9112 57.6369C59.9257 57.6776 59.9527 57.7127 59.9882 57.7372C60.0238 57.7617 60.0662 57.7745 60.1094 57.7736C60.1526 57.7728 60.1944 57.7584 60.229 57.7325C60.2635 57.7066 60.2891 57.6705 60.302 57.6293L61.7716 52.922C61.7804 52.8936 61.7952 52.8674 61.815 52.8453C61.8348 52.8232 61.8592 52.8056 61.8865 52.7937C61.9137 52.7819 61.9432 52.7761 61.9729 52.7767C62.0026 52.7773 62.0319 52.7844 62.0586 52.7973L66.5982 54.9948C66.6367 55.0134 66.6801 55.0196 66.7223 55.0125C66.7646 55.0054 66.8035 54.9853 66.8338 54.955C66.8641 54.9247 66.8842 54.8857 66.8913 54.8435C66.8985 54.8013 66.8923 54.7579 66.8736 54.7193L64.9639 50.7638C64.9501 50.7353 64.9431 50.7041 64.9433 50.6725C64.9435 50.641 64.9509 50.6098 64.965 50.5816C64.9792 50.5533 64.9996 50.5287 65.0247 50.5096C65.0499 50.4905 65.0791 50.4774 65.1101 50.4714L68.9572 49.7204C69.0042 49.7115 69.0467 49.6863 69.0772 49.6494C69.1077 49.6124 69.1243 49.566 69.1241 49.5181V48.0108C69.1249 47.9659 69.1109 47.922 69.0844 47.8857C69.0578 47.8495 69.0202 47.8229 68.9772 47.81Z" fill="#FFB949"/>
<path d="M20.478 33.8197C20.4948 33.9519 20.5305 34.0805 20.5832 34.198C20.6359 34.3156 20.7045 34.4198 20.785 34.5045C20.8655 34.5893 20.9563 34.653 21.0522 34.6919C21.1481 34.7308 21.2472 34.7442 21.3437 34.7313C21.4403 34.7184 21.5323 34.6795 21.6146 34.6167C21.6969 34.5539 21.7678 34.4686 21.8232 34.3657C21.8785 34.2627 21.9173 34.1442 21.9372 34.0169C21.9571 33.8897 21.9578 33.7562 21.9391 33.6242C21.9216 33.4929 21.8852 33.3653 21.8323 33.2489C21.7793 33.1324 21.7107 33.0294 21.6304 32.9456C21.5501 32.8617 21.4596 32.7988 21.3642 32.7604C21.2688 32.722 21.1703 32.7088 21.0743 32.7217C20.9783 32.7345 20.8867 32.7731 20.8048 32.8352C20.7228 32.8973 20.6521 32.9818 20.5967 33.0837C20.5412 33.1857 20.5021 33.3032 20.4817 33.4294C20.4612 33.5557 20.4597 33.6883 20.4773 33.8197" fill="black"/>
<path d="M27.4503 32.6563C27.466 32.7869 27.5007 32.9142 27.5522 33.0306C27.6037 33.147 27.671 33.2503 27.7503 33.3344C27.8296 33.4185 27.9192 33.4817 28.0139 33.5204C28.1085 33.5591 28.2064 33.5724 28.3018 33.5596C28.3971 33.5469 28.488 33.5082 28.5692 33.446C28.6503 33.3837 28.7201 33.2991 28.7744 33.1971C28.8288 33.0951 28.8665 32.9777 28.8856 32.8519C28.9046 32.726 28.9045 32.5941 28.8853 32.464C28.8695 32.3333 28.8349 32.2061 28.7834 32.0897C28.7319 31.9732 28.6645 31.87 28.5852 31.7858C28.506 31.7017 28.4164 31.6385 28.3217 31.5998C28.227 31.5612 28.1291 31.5478 28.0338 31.5606C27.9384 31.5734 27.8475 31.612 27.7664 31.6743C27.6852 31.7365 27.6154 31.8211 27.5611 31.9231C27.5068 32.0251 27.469 32.1425 27.45 32.2684C27.431 32.3943 27.4311 32.5262 27.4503 32.6563Z" fill="black"/>
<path d="M19.5522 37.3444C19.5522 37.538 19.655 37.7237 19.8378 37.8607C20.0206 37.9976 20.2685 38.0745 20.5271 38.0745C20.7856 38.0745 21.0336 37.9976 21.2164 37.8607C21.3992 37.7237 21.5019 37.538 21.5019 37.3444C21.5019 37.1507 21.3992 36.965 21.2164 36.8281C21.0336 36.6911 20.7856 36.6142 20.5271 36.6142C20.2685 36.6142 20.0206 36.6911 19.8378 36.8281C19.655 36.965 19.5522 37.1507 19.5522 37.3444Z" fill="#FCCAC2"/>
<path d="M28.6269 36.4711C28.6365 36.5559 28.6695 36.637 28.7238 36.7097C28.7782 36.7823 28.8529 36.8451 28.9437 36.8943C29.0344 36.9435 29.1393 36.9781 29.2522 36.9962C29.3652 37.0143 29.484 37.0155 29.6017 36.9997C29.7193 36.9838 29.8336 36.9514 29.9378 36.9041C30.0419 36.8568 30.1339 36.7957 30.2084 36.7243C30.2829 36.653 30.3383 36.5727 30.3715 36.4883C30.4048 36.4038 30.4151 36.3169 30.4019 36.2325C30.3923 36.1477 30.3594 36.0666 30.305 35.9939C30.2506 35.9212 30.1759 35.8585 30.0852 35.8093C29.9945 35.7601 29.8896 35.7255 29.7766 35.7074C29.6636 35.6893 29.5449 35.6881 29.4272 35.7039C29.3095 35.7197 29.1952 35.7522 29.0911 35.7995C28.9869 35.8468 28.8949 35.9079 28.8204 35.9792C28.746 36.0506 28.6905 36.1309 28.6573 36.2153C28.624 36.2997 28.6137 36.3867 28.6269 36.4711Z" fill="#FCCAC2"/>
<path d="M107.716 20.0571C107.85 20.0816 107.986 20.0865 108.117 20.0714C108.248 20.0562 108.371 20.0215 108.479 19.9691C108.586 19.9168 108.676 19.8478 108.743 19.7664C108.811 19.6849 108.854 19.5926 108.87 19.4948C108.886 19.397 108.876 19.2957 108.839 19.1968C108.802 19.0978 108.739 19.0034 108.655 18.9188C108.57 18.8342 108.465 18.7613 108.346 18.7043C108.227 18.6473 108.097 18.6074 107.962 18.5868C107.827 18.5603 107.689 18.5538 107.556 18.5678C107.423 18.5817 107.298 18.6158 107.188 18.668C107.079 18.7202 106.987 18.7894 106.919 18.8715C106.85 18.9536 106.807 19.0468 106.79 19.1457C106.773 19.2446 106.784 19.3471 106.822 19.447C106.86 19.547 106.924 19.6423 107.011 19.7273C107.097 19.8123 107.204 19.8853 107.325 19.9418C107.446 19.9984 107.579 20.0373 107.716 20.0564" fill="#FCCAC2"/>
<path d="M116.454 20.7042C116.459 20.8085 116.493 20.9097 116.554 21.0021C116.615 21.0944 116.701 21.176 116.807 21.242C116.913 21.308 117.038 21.3572 117.173 21.3866C117.308 21.4161 117.451 21.4252 117.594 21.4134C117.737 21.4016 117.877 21.3692 118.005 21.3181C118.134 21.267 118.248 21.1981 118.342 21.1156C118.436 21.0331 118.508 20.9386 118.553 20.8375C118.597 20.7365 118.615 20.631 118.603 20.5273C118.598 20.423 118.563 20.3218 118.503 20.2295C118.442 20.1371 118.356 20.0555 118.25 19.9895C118.144 19.9235 118.019 19.8743 117.884 19.8449C117.749 19.8154 117.606 19.8063 117.463 19.8181C117.32 19.8299 117.18 19.8623 117.052 19.9134C116.923 19.9645 116.809 20.0334 116.715 20.1159C116.621 20.1984 116.549 20.2929 116.504 20.394C116.459 20.495 116.442 20.6005 116.454 20.7042Z" fill="#FCCAC2"/>
<path d="M27.5744 34.9699C27.4405 34.756 25.5947 34.499 25.42 34.4059C25.1523 33.2735 24.9615 32.1241 24.8491 30.9659C24.8355 30.8725 24.786 30.7882 24.7111 30.7309C24.6362 30.6736 24.5418 30.6478 24.4482 30.659C24.3545 30.6703 24.269 30.7176 24.2098 30.7911C24.1505 30.8645 24.1224 30.9582 24.1312 31.0521C24.3182 32.6124 24.5929 34.5406 24.8553 34.8653C25.4421 35.1419 26.0713 35.318 26.7165 35.3862C26.431 35.7386 25.9094 36.3095 25.4423 36.7873C25.4092 36.8212 25.383 36.8613 25.3654 36.9053C25.3477 36.9493 25.3389 36.9963 25.3395 37.0437C25.34 37.0911 25.3499 37.138 25.3685 37.1816C25.3872 37.2251 25.4142 37.2646 25.4481 37.2978C25.482 37.3309 25.5221 37.3571 25.5661 37.3747C25.6101 37.3924 25.6571 37.4012 25.7045 37.4006C25.7519 37.4001 25.7988 37.3902 25.8424 37.3716C25.886 37.3529 25.9255 37.3259 25.9586 37.292C27.8291 35.3777 27.7221 35.2069 27.5744 34.9699Z" fill="black"/>
<path d="M23.891 40.2389C24.2859 40.3327 24.6958 40.3459 25.0959 40.2777C25.4961 40.2095 25.8784 40.0613 26.22 39.8419C26.2955 39.7863 26.3465 39.7035 26.3622 39.6111C26.3778 39.5186 26.3569 39.4237 26.3039 39.3463C26.2509 39.2689 26.1699 39.2152 26.078 39.1964C25.9862 39.1776 25.8906 39.1952 25.8114 39.2456C25.5647 39.4085 25.2875 39.5197 24.9966 39.5726C24.7056 39.6255 24.407 39.6189 24.1187 39.5534C23.5801 39.3726 23.3393 38.5862 23.2939 38.2985C23.2793 38.2038 23.2277 38.1188 23.1505 38.0621C23.0732 38.0055 22.9766 37.9819 22.8819 37.9965C22.7872 38.0111 22.7022 38.0627 22.6456 38.1399C22.5889 38.2172 22.5653 38.3138 22.5799 38.4085C22.6455 38.793 22.7976 39.1575 23.0247 39.4746C23.2519 39.7917 23.5481 40.0531 23.891 40.2389Z" fill="black"/>
<path d="M19.0207 31.696C19.0979 31.7524 19.1941 31.7759 19.2886 31.7615C19.383 31.7471 19.4679 31.6959 19.5247 31.6191C19.7747 31.2996 20.1208 31.069 20.5119 30.9613C20.9031 30.8536 21.3185 30.8747 21.6967 31.0213C21.7866 31.0543 21.886 31.0503 21.9729 31.0101C22.0598 30.97 22.1273 30.8969 22.1603 30.807C22.1934 30.7171 22.1894 30.6178 22.1492 30.5308C22.109 30.4439 22.0359 30.3765 21.946 30.3434C21.4214 30.1425 20.846 30.1164 20.3053 30.2689C19.7646 30.4214 19.2876 30.7444 18.9453 31.1898C18.9169 31.2279 18.8963 31.2713 18.8847 31.3174C18.8731 31.3636 18.8707 31.4115 18.8777 31.4586C18.8847 31.5056 18.901 31.5508 18.9255 31.5916C18.95 31.6324 18.9824 31.6678 19.0207 31.696Z" fill="black"/>
<path d="M25.8039 29.344C25.7513 29.424 25.7327 29.5216 25.7521 29.6153C25.7715 29.709 25.8274 29.7912 25.9074 29.8437C25.9874 29.8963 26.085 29.9149 26.1787 29.8955C26.2724 29.8761 26.3546 29.8203 26.4071 29.7403C26.5078 29.5912 26.6373 29.4638 26.788 29.3655C26.9387 29.2672 27.1075 29.2001 27.2845 29.1681C27.4615 29.136 27.6431 29.1397 27.8187 29.1789C27.9943 29.2181 28.1602 29.292 28.3068 29.3963C28.39 29.4437 28.4887 29.456 28.5811 29.4306C28.6734 29.4052 28.7519 29.3442 28.7992 29.2609C28.8466 29.1777 28.8589 29.079 28.8335 28.9867C28.8081 28.8943 28.7471 28.8158 28.6638 28.7685C28.4382 28.6185 28.1853 28.5144 27.9195 28.4621C27.6537 28.4099 27.3802 28.4105 27.1146 28.4639C26.8491 28.5174 26.5966 28.6226 26.3717 28.7736C26.1468 28.9246 25.9539 29.1184 25.8039 29.344Z" fill="black"/>
<path d="M109.304 32.1739C109.209 32.1619 109.113 32.1882 109.037 32.2469C108.962 32.3056 108.912 32.392 108.9 32.4871L108.669 34.3029C108.663 34.3499 108.667 34.3977 108.679 34.4434C108.692 34.4891 108.713 34.5319 108.742 34.5693C108.771 34.6068 108.808 34.6381 108.849 34.6616C108.89 34.685 108.935 34.7001 108.982 34.7061C109.03 34.712 109.077 34.7086 109.123 34.696C109.169 34.6835 109.211 34.6621 109.249 34.633C109.286 34.6039 109.318 34.5677 109.341 34.5266C109.365 34.4854 109.38 34.4399 109.386 34.3929L109.616 32.5779C109.628 32.4829 109.602 32.3872 109.544 32.3115C109.485 32.2359 109.399 32.1864 109.304 32.1739Z" fill="black"/>
<path d="M110.757 32.1731C110.709 32.1682 110.662 32.1726 110.616 32.1862C110.571 32.1997 110.528 32.2221 110.491 32.252C110.454 32.282 110.424 32.3189 110.401 32.3606C110.379 32.4024 110.364 32.4482 110.36 32.4955L110.172 34.3105C110.165 34.4038 110.195 34.4961 110.255 34.5678C110.315 34.6395 110.401 34.6851 110.494 34.6951C110.587 34.705 110.68 34.6785 110.754 34.6212C110.828 34.5638 110.877 34.48 110.89 34.3875L111.078 32.5716C111.083 32.5243 111.079 32.4764 111.066 32.4307C111.052 32.3851 111.03 32.3425 111 32.3054C110.97 32.2684 110.933 32.2376 110.892 32.2149C110.85 32.1922 110.804 32.178 110.757 32.1731Z" fill="black"/>
<path d="M112.545 32.4648C112.498 32.4605 112.45 32.4657 112.405 32.4798C112.36 32.494 112.318 32.517 112.281 32.5474C112.245 32.5779 112.215 32.6152 112.193 32.6573C112.171 32.6993 112.158 32.7453 112.154 32.7925L112.029 34.2121C112.021 34.3075 112.05 34.4023 112.112 34.4757C112.174 34.5491 112.262 34.595 112.357 34.6033C112.453 34.6117 112.547 34.5818 112.621 34.5203C112.694 34.4588 112.74 34.3706 112.748 34.2752L112.873 32.8564C112.881 32.761 112.852 32.6662 112.79 32.5928C112.729 32.5194 112.641 32.4734 112.545 32.4648Z" fill="black"/>
<path d="M115.299 32.6302C115.204 32.6277 115.111 32.6632 115.041 32.729C114.972 32.7948 114.931 32.8854 114.928 32.981L114.887 34.4737C114.884 34.5694 114.92 34.6623 114.985 34.7318C115.051 34.8014 115.142 34.8419 115.238 34.8446C115.333 34.8472 115.426 34.8117 115.496 34.7459C115.565 34.6801 115.606 34.5894 115.609 34.4937L115.65 33.0018C115.653 32.9061 115.617 32.8133 115.551 32.7436C115.486 32.674 115.395 32.6332 115.299 32.6302Z" fill="black"/>
<path d="M117.167 32.7971C117.12 32.7971 117.073 32.8065 117.029 32.8247C116.985 32.8428 116.946 32.8695 116.912 32.9031C116.879 32.9367 116.852 32.9765 116.834 33.0204C116.816 33.0643 116.807 33.1113 116.807 33.1587V34.9738C116.807 35.0695 116.845 35.1613 116.912 35.229C116.98 35.2966 117.072 35.3346 117.167 35.3346C117.263 35.3346 117.355 35.2966 117.423 35.229C117.49 35.1613 117.528 35.0695 117.528 34.9738V33.1587C117.528 33.1113 117.519 33.0643 117.501 33.0204C117.483 32.9765 117.456 32.9367 117.423 32.9031C117.389 32.8695 117.35 32.8428 117.306 32.8247C117.262 32.8065 117.215 32.7971 117.167 32.7971Z" fill="black"/>
<path d="M110.472 17.3958C110.318 17.5966 110.192 17.7697 111.631 19.8817C111.686 19.9608 111.769 20.0151 111.863 20.0327C111.957 20.0503 112.055 20.0298 112.134 19.9756C112.213 19.9214 112.267 19.8381 112.285 19.7438C112.302 19.6496 112.282 19.5523 112.228 19.4732C111.864 18.9392 111.465 18.3075 111.255 17.9228C111.727 18.0078 112.21 18.0133 112.684 17.939C112.925 17.8289 113.069 17.7628 113.629 13.8772L113.664 13.6356C113.674 13.5428 113.648 13.4498 113.591 13.376C113.533 13.3022 113.45 13.2534 113.358 13.2396C113.265 13.2259 113.171 13.2484 113.095 13.3024C113.019 13.3565 112.967 13.4378 112.949 13.5294C112.852 14.1927 112.51 16.6179 112.304 17.2742C111.539 17.2626 110.739 17.0387 110.472 17.3958Z" fill="black"/>
<path d="M112.263 22.4285C111.717 22.2912 111.23 21.9788 110.878 21.5391C110.817 21.468 110.731 21.4232 110.638 21.4144C110.544 21.4055 110.451 21.4331 110.378 21.4914C110.305 21.5497 110.257 21.6342 110.245 21.727C110.233 21.8199 110.257 21.9139 110.312 21.9892C110.784 22.5772 111.444 22.9848 112.181 23.1433C112.987 23.1535 113.777 22.9155 114.443 22.4616C114.524 22.4096 114.58 22.3277 114.6 22.2341C114.62 22.1404 114.602 22.0427 114.55 21.9623C114.498 21.8819 114.417 21.8254 114.323 21.8054C114.229 21.7853 114.131 21.8033 114.051 21.8553C113.52 22.2094 112.901 22.408 112.263 22.4285Z" fill="black"/>
<path d="M115.791 16.6602C116.247 16.1932 116.843 15.8879 117.488 15.7907C118.133 15.6935 118.793 15.8097 119.366 16.1216C119.452 16.1638 119.551 16.1702 119.642 16.1393C119.732 16.1084 119.807 16.0428 119.849 15.9569C119.892 15.871 119.898 15.7718 119.867 15.6812C119.836 15.5906 119.771 15.516 119.685 15.4737C118.969 15.0906 118.147 14.9529 117.346 15.0816C116.544 15.2103 115.807 15.5983 115.247 16.1862C115.191 16.2592 115.166 16.3505 115.176 16.4415C115.185 16.5326 115.229 16.6167 115.298 16.6768C115.367 16.737 115.456 16.7687 115.547 16.7656C115.639 16.7625 115.726 16.7248 115.791 16.6602Z" fill="black"/>
<path d="M116.425 13.2009C116.839 13.0158 117.29 12.9257 117.743 12.9372C118.197 12.9486 118.642 13.0613 119.046 13.2671C119.128 13.3096 119.222 13.3195 119.31 13.2949C119.399 13.2703 119.474 13.213 119.522 13.1346C119.57 13.0563 119.586 12.9627 119.567 12.873C119.548 12.7833 119.495 12.7041 119.42 12.6516C118.913 12.3826 118.351 12.2337 117.778 12.2162C117.204 12.1987 116.634 12.3132 116.112 12.5508C116.027 12.5931 115.962 12.6672 115.932 12.7569C115.901 12.8466 115.907 12.9448 115.948 13.0303C115.989 13.1157 116.062 13.1815 116.151 13.2134C116.241 13.2454 116.339 13.2409 116.425 13.2009Z" fill="black"/>
<path d="M108.921 12.3176C109.252 12.2123 109.603 12.1878 109.945 12.2463C110.287 12.3048 110.61 12.4446 110.887 12.6538C110.951 12.7073 111.033 12.7362 111.117 12.7354C111.192 12.7354 111.264 12.7125 111.325 12.6697C111.386 12.6269 111.432 12.5664 111.458 12.4964C111.483 12.4264 111.486 12.3503 111.466 12.2785C111.447 12.2067 111.406 12.1427 111.348 12.0952C110.975 11.8069 110.536 11.6145 110.071 11.5348C109.606 11.4551 109.129 11.4906 108.681 11.6382C108.591 11.6706 108.517 11.7375 108.476 11.8242C108.435 11.9108 108.431 12.0101 108.463 12.1002C108.496 12.1903 108.563 12.2638 108.649 12.3046C108.736 12.3453 108.835 12.35 108.925 12.3176H108.921Z" fill="black"/>
<path d="M107.385 14.4019C107.396 14.448 107.417 14.4914 107.445 14.5296C107.473 14.5678 107.509 14.6001 107.549 14.6245C107.59 14.649 107.635 14.6652 107.682 14.6721C107.729 14.6791 107.777 14.6767 107.823 14.665C108.322 14.5694 108.838 14.6233 109.306 14.8202C109.775 15.0171 110.174 15.348 110.455 15.7715C110.509 15.8503 110.593 15.9044 110.687 15.9218C110.734 15.9304 110.781 15.9298 110.828 15.9199C110.874 15.91 110.918 15.8911 110.957 15.8642C110.996 15.8373 111.03 15.803 111.055 15.7632C111.081 15.7234 111.099 15.679 111.107 15.6324C111.116 15.5857 111.115 15.5379 111.106 15.4915C111.096 15.4451 111.077 15.4012 111.05 15.3621C110.688 14.8147 110.171 14.3887 109.564 14.1394C108.957 13.8901 108.289 13.829 107.647 13.9641C107.601 13.9756 107.558 13.9961 107.52 14.0243C107.482 14.0525 107.45 14.088 107.426 14.1287C107.401 14.1693 107.385 14.2144 107.378 14.2613C107.371 14.3081 107.374 14.3559 107.385 14.4019Z" fill="black"/>
<path d="M123.366 19.7809C123.455 19.7807 123.54 19.7478 123.607 19.6886C123.791 19.5203 124.009 19.3927 124.245 19.3139C124.336 19.291 124.415 19.2336 124.465 19.1537C124.514 19.0739 124.531 18.9779 124.511 18.8861C124.491 18.7944 124.436 18.714 124.357 18.662C124.279 18.61 124.184 18.5904 124.091 18.6075C123.732 18.7138 123.401 18.8997 123.123 19.1515C123.069 19.2006 123.031 19.2649 123.014 19.3359C122.997 19.407 123.002 19.4815 123.028 19.5496C123.055 19.6177 123.101 19.6763 123.161 19.7175C123.222 19.7588 123.293 19.7809 123.366 19.7809Z" fill="black"/>
<path d="M51.6301 78.7435C51.6301 80.0014 51.8785 81.2469 52.3611 82.409C52.8436 83.5711 53.5509 84.627 54.4426 85.5165C55.3342 86.4059 56.3928 87.1115 57.5578 87.5928C58.7228 88.0742 59.9714 88.3219 61.2324 88.3219C62.4934 88.3219 63.7421 88.0742 64.9071 87.5928C66.0721 87.1115 67.1306 86.4059 68.0223 85.5165C68.9139 84.627 69.6212 83.5711 70.1038 82.409C70.5864 81.2469 70.8347 80.0014 70.8347 78.7435C70.8347 76.2031 69.8231 73.7668 68.0223 71.9705C66.2215 70.1742 63.7791 69.165 61.2324 69.165C58.6857 69.165 56.2434 70.1742 54.4426 71.9705C52.6418 73.7668 51.6301 76.2031 51.6301 78.7435Z" fill="white"/>
<path d="M57.0552 80.7886C57.0024 80.7087 56.9199 80.6531 56.8261 80.634C56.7322 80.6149 56.6346 80.6338 56.5547 80.6867C56.4748 80.7395 56.4192 80.8219 56.4001 80.9158C56.381 81.0097 56.3999 81.1073 56.4528 81.1872C56.9454 81.8922 57.5948 82.4734 58.3498 82.8852C59.1049 83.297 59.9451 83.5283 60.8046 83.5608C61.7326 83.5597 62.648 83.3459 63.4804 82.9357C64.3129 82.5256 65.0402 81.93 65.6065 81.1949C65.6336 81.156 65.6528 81.1121 65.663 81.0658C65.6732 81.0195 65.6742 80.9716 65.6658 80.9249C65.6575 80.8782 65.6401 80.8336 65.6145 80.7937C65.5889 80.7537 65.5558 80.7192 65.5169 80.6921C65.478 80.6649 65.4341 80.6457 65.3878 80.6355C65.3415 80.6254 65.2936 80.6244 65.2469 80.6327C65.2002 80.6411 65.1556 80.6585 65.1157 80.684C65.0757 80.7096 65.0412 80.7428 65.0141 80.7817C64.5118 81.4183 63.8727 81.9338 63.1441 82.29C62.4156 82.6461 61.6163 82.8338 60.8054 82.8391C60.0664 82.801 59.3455 82.5969 58.6962 82.2419C58.047 81.887 57.4861 81.3902 57.0552 80.7886Z" fill="black"/>
<path d="M63.9331 78.3857C64.0288 78.3857 64.1206 78.3477 64.1883 78.2801C64.256 78.2124 64.294 78.1206 64.294 78.0249V75.4789C64.294 75.3832 64.256 75.2914 64.1883 75.2237C64.1206 75.1561 64.0288 75.118 63.9331 75.118C63.8374 75.118 63.7456 75.1561 63.678 75.2237C63.6103 75.2914 63.5723 75.3832 63.5723 75.4789V78.0257C63.5725 78.1212 63.6106 78.2128 63.6782 78.2803C63.7459 78.3478 63.8375 78.3857 63.9331 78.3857Z" fill="black"/>
<path d="M57.9231 78.3858C58.0189 78.3858 58.1106 78.3478 58.1783 78.2801C58.246 78.2124 58.284 78.1206 58.284 78.0249V75.4789C58.2797 75.386 58.2398 75.2983 58.1725 75.2341C58.1052 75.1698 58.0158 75.134 57.9228 75.134C57.8297 75.134 57.7403 75.1698 57.673 75.2341C57.6057 75.2983 57.5658 75.386 57.5615 75.4789V78.0257C57.5619 78.1213 57.6002 78.2129 57.668 78.2804C57.7358 78.3479 57.8275 78.3858 57.9231 78.3858Z" fill="black"/>
<path d="M147.016 65.0565C146.562 55.2741 132.795 38.6601 119.871 36.091C119.933 35.2532 120.038 33.1588 119.629 32.2817C119.53 32.0693 119.297 31.9108 118.872 31.7677C118.29 31.6005 117.696 31.4799 117.095 31.4068L117.221 29.9211C118.49 29.4367 119.569 28.557 120.299 27.412C127.495 25.0199 128.976 14.8706 128.704 11.2474C128.396 7.16949 124.99 1.71357 119.591 0.687937C114.43 -0.292299 111.675 0.397098 111.675 1.10496C111.675 1.40195 112.761 1.56661 112.761 1.56661C112.761 1.56661 106.082 3.52708 103.829 7.11794C102.157 9.77781 104.789 9.45389 104.789 9.45389C104.789 9.45389 103.412 11.1558 104.456 11.4944C105.229 11.5345 106.001 11.433 106.737 11.1951C103.967 23.1595 104.795 27.6606 110.307 29.4895L110.109 30.9213C109.332 30.8667 108.551 30.9091 107.785 31.0475C107.032 31.4538 106.862 33.6535 106.828 34.8569C101.691 35.5643 96.7949 37.4771 92.539 40.439C92.4621 40.4859 92.9745 40.3621 88.1226 41.5262C87.9781 41.5599 87.8528 41.6494 87.774 41.775C87.6952 41.9007 87.6692 42.0524 87.7017 42.1971C87.7863 42.5818 87.9541 43.3466 88.1634 44.2915C80.5423 52.2657 79.3105 62.392 79.1927 63.5576L76.3459 63.4707C76.3644 61.748 76.4528 52.6927 76.4528 52.1503C76.4715 51.9673 76.4469 51.7825 76.381 51.6107C76.3151 51.439 76.2098 51.2852 76.0735 51.1616C75.8603 51.0168 75.6103 50.9357 75.3526 50.9276C75.095 50.9196 74.8404 50.985 74.6186 51.1162C70.6107 53.0474 69.3165 50.5214 69.6243 48.731C70.0682 46.1412 72.9328 46.335 73.9415 47.4022C74.1342 47.6697 74.3888 47.8864 74.6836 48.0338C74.9785 48.1812 75.3046 48.2549 75.6342 48.2486C76.5713 48.1332 76.6598 46.8636 76.6498 45.968C76.6498 45.8695 76.606 38.0546 76.5875 35.1508C76.5857 35.0024 76.5261 34.8605 76.4214 34.7554C76.3166 34.6502 76.175 34.59 76.0266 34.5876L55.5878 34.3337C55.4601 31.8308 54.119 31.907 53.9167 31.9277C53.8125 31.7349 53.6682 31.5665 53.4937 31.4339C53.3191 31.3013 53.1182 31.2076 52.9045 31.1589C52.6907 31.1102 52.4691 31.1078 52.2543 31.1517C52.0395 31.1957 51.8366 31.285 51.6592 31.4138C51.4777 31.234 51.2611 31.0936 51.023 31.0013C50.7848 30.909 50.5302 30.8668 50.275 30.8772C50.0198 30.8877 49.7694 30.9507 49.5396 31.0622C49.3098 31.1737 49.1055 31.3313 48.9393 31.5253C47.7637 31.2568 47.3674 32.8333 46.7619 33.0457C46.7619 33.0457 44.4075 33.869 44.6075 35.3539C44.7861 36.0912 45.2088 36.7464 45.807 37.2129C45.3882 37.2414 44.9746 37.3226 44.576 37.4545C44.5142 37.478 44.4601 37.5179 44.4194 37.57C44.3787 37.6221 44.353 37.6843 44.3451 37.7499L42.0184 57.4685C39.8398 55.2728 37.3389 53.4223 34.602 51.981C35.2176 51.2793 37.3981 48.6425 37.5835 46.4035C38.0152 41.1715 35.0783 38.1708 34.1335 36.3865C32.4223 33.1588 32.4638 25.0199 30.0148 22.447C28.1797 20.5173 25.9946 20.0718 24.5165 20.802C24.6851 20.3603 24.9737 19.9745 25.3497 19.6879C25.7257 19.4014 26.1742 19.2255 26.6447 19.1801C26.7397 19.1682 26.8261 19.1191 26.8849 19.0436C26.9437 18.9681 26.9701 18.8723 26.9583 18.7773C26.9464 18.6823 26.8974 18.5959 26.8218 18.5371C26.7463 18.4783 26.6505 18.4519 26.5555 18.4637C25.9186 18.5256 25.3145 18.7751 24.8196 19.1807C24.3247 19.5863 23.9614 20.1297 23.7756 20.742C22.6815 19.9433 19.1076 17.9167 13.9879 20.8328C9.34675 23.4742 8.60196 29.8403 8.75584 31.7662C9.00898 34.8615 9.77224 37.406 9.38753 39.7088C9.00282 42.0117 6.47991 46.3512 5.42735 49.3265C3.59922 54.4955 5.24577 57.6078 5.81206 58.458C4.23553 61.114 1.54026 66.3945 0.974743 72.2697C0.525405 76.9501 1.31944 81.0611 3.36916 83.3593C4.04208 84.1382 4.87505 84.7629 5.81127 85.1907C6.7475 85.6185 7.76497 85.8394 8.79431 85.8384L8.45808 90.5449C8.42506 90.8501 8.48091 91.1583 8.61891 91.4326C8.7569 91.7068 8.97118 91.9353 9.23596 92.0906C24.2049 99.891 39.0123 92.7385 41.3767 91.422C41.7029 91.2409 41.9597 90.9566 42.1069 90.6137C42.254 90.2709 42.2833 89.8889 42.19 89.5277C40.9536 84.7627 39.5671 77.6995 38.4814 71.7804C39.8725 72.9137 42.9225 75.1612 46.1456 76.0052L45.7478 92.8439C45.7457 92.9186 45.7585 92.993 45.7853 93.0628C45.8121 93.1326 45.8525 93.1964 45.904 93.2505C45.9556 93.3046 46.0173 93.348 46.0857 93.3782C46.1541 93.4084 46.2278 93.4247 46.3025 93.4263L103.438 94.6143C103.588 94.6137 103.732 94.5538 103.838 94.4476C103.945 94.3414 104.005 94.1975 104.006 94.0473L103.876 90.2071C118.525 97.0418 131.087 86.9294 131.163 86.8825C131.215 86.8485 131.258 86.8015 131.287 86.7461C131.316 86.6906 131.33 86.6287 131.328 86.5662L131.054 76.9709C135.432 77.6487 140.621 77.2248 143.873 74.2117C146.139 72.112 147.199 69.029 147.016 65.0565ZM107.506 10.9996C109.699 10.4241 112.221 9.57776 112.221 9.57776C112.221 9.57776 111.784 10.4118 112.419 10.6634C113.055 10.915 116.478 10.1617 116.478 10.1617C116.478 10.1617 115.636 11.0635 116.062 11.4928C116.562 11.9983 120.506 11.3089 121.07 11.9137C121.839 12.737 120.756 17.2157 121.384 17.7997C121.819 18.2083 122.258 17.4881 123.769 17.1311C125.245 16.7841 127.313 18.593 125.288 20.5935C124.337 21.5322 122.504 21.0621 122.407 21.3998C120.429 28.2869 116.81 29.2956 116.79 29.3017C116.719 29.3211 116.655 29.362 116.607 29.4188C116.56 29.4756 116.531 29.5457 116.524 29.6195L116.382 31.3122C114.681 31.1122 112.558 30.9806 110.842 30.9329L111.013 29.6926C111.607 29.8433 112.211 29.9503 112.821 30.0127C112.912 30.0113 113 29.9755 113.066 29.9122C113.132 29.849 113.171 29.7632 113.177 29.6719C113.182 29.5807 113.152 29.4908 113.094 29.4204C113.036 29.35 112.953 29.3043 112.862 29.2925C105.45 28.46 104.473 23.5311 107.506 10.9996ZM114.099 35.9695C114.656 37.9215 116.919 45.8357 117.027 46.2342C117.063 46.4648 117.148 46.6849 117.277 46.8794C117.406 47.0739 117.575 47.2382 117.774 47.361C117.972 47.4837 118.195 47.562 118.427 47.5906C118.658 47.6191 118.893 47.5971 119.115 47.5261C119.66 47.2838 120.136 46.91 120.5 46.4381C120.937 45.8848 121.525 45.4698 122.193 45.2432C125.675 44.3969 125.953 48.9903 124.849 49.9421C124.56 50.1914 123.937 50.8823 121.776 50.5576C121.106 50.4178 120.411 50.4464 119.754 50.6407C118.689 51.04 118.729 51.9487 118.985 53.0674C119.202 54.0307 119.662 55.655 119.895 56.4621C118.29 56.4621 118.638 57.6031 118.783 58.0009C118.333 57.9494 116.732 58.0894 117.567 60.0014C117.106 59.9375 115.59 60.0468 116.44 61.9888C116.302 61.9594 116.159 61.9583 116.021 61.9858C115.882 62.0132 115.75 62.0686 115.634 62.1485C115.517 62.2283 115.418 62.3311 115.342 62.4505C115.267 62.5698 115.216 62.7033 115.194 62.8429C115.077 63.4438 115.561 64.1039 116.835 65.0226L104.323 68.1649C104.362 66.8838 104.4 65.652 104.432 64.6779C104.435 64.5822 104.399 64.4894 104.334 64.4198C104.268 64.3501 104.177 64.3093 104.082 64.3063L91.8604 63.937C92.7745 62.6813 93.9378 58.768 92.4836 58.5095C92.3413 58.4823 92.1944 58.4915 92.0566 58.5364C92.0297 57.4739 91.1987 57.2146 90.507 57.7955C90.2946 57.0884 89.4983 56.7799 88.6604 57.6824C88.5634 57.5333 88.4172 57.4231 88.2472 57.3708C87.1431 57.043 86.2783 58.8757 85.7235 59.9006C84.2086 57.9771 84.9226 55.9997 86.3798 55.4118C86.7392 56.0905 87.3724 56.7575 88.0841 56.4544C88.2184 56.386 88.332 56.283 88.4132 56.1559C88.4943 56.0289 88.5401 55.8825 88.5458 55.7319C88.8614 55.7824 89.184 55.7688 89.4942 55.6919C89.8045 55.6149 90.0961 55.4762 90.3516 55.2841C91.191 54.6032 90.8855 53.2967 90.684 52.4319C90.5932 52.0472 90.9148 53.4883 88.445 42.1887L114.099 35.9695ZM120.43 65.345C120.728 65.602 121.123 65.8797 121.055 66.1229C120.861 66.3937 119.588 65.9621 118.259 65.1165L118.1 65.0211C117.537 64.6764 115.681 63.4984 115.9 62.9867C116.289 62.085 120.143 65.0996 120.43 65.345ZM120.847 64.7533C119.734 63.8328 118.561 62.9889 117.334 62.2273C117.016 61.9619 116.739 61.314 117.056 60.9478C117.309 60.6554 117.99 60.8447 118.35 60.9893C119.543 61.7622 120.694 62.5977 121.798 63.4922C122.001 63.7915 122.464 64.6348 122.316 64.9449C122.261 65.0626 121.568 65.0226 120.847 64.7533ZM122.24 62.9206C121.125 62.0122 119.961 61.1668 118.752 60.3884C118.461 60.0999 117.79 59.2658 118.107 58.828C118.267 58.6072 118.933 58.7188 119.352 58.8842C120.073 59.2186 120.745 59.6482 121.352 60.1614C121.975 60.6582 122.562 61.1981 123.109 61.7772C123.293 62.0581 123.563 62.6459 123.424 62.8959C123.344 63.0421 122.77 63.0506 122.24 62.9206ZM119.722 58.2564C119.52 57.9594 119.276 57.4377 119.448 57.2438C119.586 57.0899 120.046 57.1669 120.63 57.4062C121.213 57.6522 121.766 57.9618 122.281 58.3295C123.19 58.9893 123.953 59.8296 124.522 60.7977C124.795 61.3571 124.121 61.351 123.579 61.2271C122.474 60.0217 121.169 59.0166 119.722 58.2564H119.722ZM87.1585 63.1391C87.0446 63.0791 87.0654 62.592 87.1931 62.1673C87.9368 61.0733 88.5024 59.8683 88.8689 58.5972C89.0997 58.2217 89.5191 57.7763 89.7314 57.8647C89.843 57.9124 89.8899 58.3356 89.8284 58.7034C89.4665 59.9828 88.9342 61.2076 88.2457 62.345C87.821 62.8213 87.2962 63.176 87.1585 63.1391ZM86.5884 61.7672C86.4968 61.9211 86.1152 62.3166 85.8766 62.3389C85.8481 62.3421 85.8191 62.3383 85.7923 62.3278C85.7655 62.3174 85.7416 62.3006 85.7228 62.2789C85.6666 62.225 85.4396 61.8557 86.556 59.8829C86.7799 59.4774 87.5832 57.9309 88.0333 58.0671C88.1127 58.1668 88.1596 58.2885 88.168 58.4156C87.8237 59.61 87.2904 60.7415 86.5884 61.7672ZM88.8727 62.7036C89.5967 61.5158 90.1536 60.234 90.5278 58.8942C90.7363 58.5457 91.081 58.1887 91.2402 58.2194C91.2476 58.2207 91.2545 58.2239 91.2603 58.2286C91.2661 58.2333 91.2706 58.2394 91.2733 58.2464C91.3594 58.6489 91.3328 59.0675 91.1964 59.4559C91.0879 60.0506 90.16 62.422 89.9315 62.9906C89.6652 63.3661 89.1759 63.8531 88.9012 63.8493C88.6373 63.8392 88.8004 62.9598 88.8727 62.7036ZM91.8842 59.6806C91.9481 59.5321 92.1582 59.1897 92.3459 59.2189C92.5413 59.382 92.4551 60.6223 92.0751 61.7818C91.7758 62.7051 91.1795 63.91 90.844 63.91C90.6355 63.8562 90.607 63.423 90.6093 63.2453C90.7609 62.8605 91.6111 60.727 91.8842 59.6806ZM86.7353 53.8776C86.8123 53.5883 87.2639 53.5883 87.6101 54.3816C87.8226 54.8211 87.885 55.3182 87.7879 55.7965C87.614 55.855 87.3747 55.648 87.0754 55.1879C86.8308 54.7962 86.7121 54.3389 86.7353 53.8776ZM88.3511 45.1448C88.972 47.9739 89.9484 52.4642 89.9792 52.6004C90.1508 53.329 90.3839 54.3293 89.8945 54.7255C89.6987 54.8644 89.4758 54.9606 89.2404 55.0079C89.0051 55.0552 88.7624 55.0526 88.5281 55.0002C88.481 54.6874 88.3952 54.3816 88.2726 54.09C87.9241 53.2944 87.2354 52.7181 86.516 53.0897C85.9197 53.3875 85.9159 54.1061 86.1059 54.7424C85.5387 54.9806 85.0523 55.3773 84.7048 55.885C84.3574 56.3926 84.1637 56.9897 84.147 57.6047C84.1678 58.6722 84.5673 59.6975 85.2742 60.4977C85.3045 60.5311 85.3408 60.5585 85.3811 60.5785C84.9564 61.4964 84.7479 62.3481 85.2273 62.8028C85.3758 62.9458 85.5675 63.0354 85.7724 63.0579C85.9774 63.0803 86.1839 63.0342 86.3598 62.9267C86.366 63.0306 86.4022 63.61 86.8453 63.7869L79.9152 63.5792C80.8111 56.7264 83.7508 50.3024 88.3511 45.1448ZM54.9654 35.1754C54.9223 36.1941 54.4891 36.6835 54.3714 36.605C54.4586 35.2971 54.3948 33.9835 54.1814 32.6902C54.2444 32.7172 55.0685 32.8287 54.9654 35.1754ZM54.2683 37.3583C55.3639 37.7776 55.6117 35.0947 55.6117 35.0577L75.8658 35.3093C75.8827 37.7399 75.9258 45.8772 75.9281 45.978C75.9404 47.0083 75.8827 47.4969 75.5149 47.503C74.3454 47.5084 74.053 45.571 71.4847 45.9903C68.4017 46.4935 67.9762 50.7607 70.523 52.1318C72.3172 53.0997 73.6453 52.1541 74.824 51.8056C75.4395 51.6225 75.6119 51.7171 75.6411 51.7394C75.775 51.8402 75.7511 51.7279 75.6226 63.4568C73.6083 63.4238 66.8067 63.3168 65.2463 63.2922C64.8829 63.2436 64.5134 63.2742 64.1629 63.3817C63.8124 63.4893 63.4894 63.6714 63.2158 63.9154C62.638 64.6425 63.0843 65.8266 63.5236 66.6453C64.0126 67.3898 64.2345 68.2782 64.153 69.1651C62.4427 68.5087 60.5589 68.459 58.8163 69.0243C58.2285 67.6225 59.7573 66.5276 60.1097 64.9572C60.1995 64.6851 60.1883 64.3897 60.0781 64.1252C59.9679 63.8606 59.766 63.6447 59.5096 63.5169C59.0779 63.3358 58.6134 63.2459 58.1454 63.253C58.0507 63.2483 49.0555 63.0075 47.1689 62.9683L47.759 38.0515C47.8967 38.0258 48.0246 37.9624 48.1284 37.8684C48.8147 37.2367 47.8406 36.0987 47.1627 35.4578C47.4597 35.0847 48.1099 34.4799 48.5515 34.6115C48.7724 34.6776 49.1071 35.6494 49.2386 36.1834C49.9903 39.2256 51.2506 37.7499 51.2899 37.6491C52.0355 39.0872 52.7264 37.9769 52.7349 37.9669C52.9249 38.1223 53.6097 38.8894 54.2683 37.3583ZM75.6057 74.8711C75.6203 75.8283 75.5019 77.5571 74.5516 77.3248C73.6629 77.1047 72.4742 75.5928 70.8677 75.7483C70.8284 75.7529 70.7907 75.7606 70.7546 75.7652C70.31 74.3295 69.5478 73.0124 68.5246 71.9117C67.5013 70.8109 66.2433 69.9548 64.8439 69.4067C65.1024 68.4519 64.5431 67.0754 64.1738 66.3237C63.9945 65.9971 63.8493 65.6529 63.7406 65.2965C63.629 64.8441 63.5051 64.0124 65.234 64.0124C66.8005 64.0124 73.6437 64.147 75.6327 64.1778C75.6203 66.119 75.5811 73.2946 75.6057 74.8711ZM61.3446 71.4418C62.9273 71.4418 64.0522 70.9571 64.5762 70.0777C65.8703 70.5834 67.0344 71.3734 67.9825 72.3892C68.9305 73.405 69.6383 74.6208 70.0536 75.9468C69.4517 76.219 68.9363 76.6514 68.5636 77.1968C68.1909 77.7422 67.9753 78.3795 67.9403 79.0392C67.9054 79.6988 68.0524 80.3554 68.3654 80.9371C68.6784 81.5188 69.1453 82.0032 69.7151 82.3375C69.1027 83.7589 68.1431 85.0036 66.9242 85.9574C65.7054 86.9111 64.2665 87.5434 62.7396 87.7961C61.2128 88.0488 59.6469 87.9138 58.1858 87.4035C56.7246 86.8933 55.4152 86.0241 54.3775 84.8758C53.3399 83.7276 52.6074 82.337 52.2473 80.8319C51.8872 79.3267 51.911 77.7552 52.3166 76.2616C52.7222 74.768 53.4965 73.4003 54.5685 72.2841C55.6404 71.1678 56.9757 70.3387 58.4516 69.873C58.7636 70.3562 59.192 70.7533 59.6975 71.0277C60.203 71.3021 60.7694 71.4451 61.3446 71.4434V71.4418ZM59.2003 69.6722C60.7429 69.322 62.3498 69.375 63.866 69.8261C63.2966 70.577 62.114 70.7132 61.3446 70.7132C60.9324 70.7122 60.5256 70.6186 60.1544 70.4392C59.7832 70.2598 59.4571 69.9992 59.2003 69.6768V69.6722ZM70.2406 76.6454C70.6184 78.3061 70.5275 80.0391 69.9782 81.6512C69.5532 81.3743 69.2084 80.9905 68.9785 80.5384C68.7485 80.0862 68.6415 79.5816 68.668 79.075C68.6946 78.5684 68.8539 78.0777 69.1299 77.6521C69.4059 77.2265 69.7889 76.8809 70.2406 76.65V76.6454ZM52.9434 31.8854C53.6797 32.1893 53.802 34.5376 53.802 35.464C53.802 37.0197 53.6797 37.5314 53.4242 37.5506C52.9003 37.5506 53.0695 35.0762 52.9626 34.4114C52.8705 33.5493 52.5834 32.7194 52.1232 31.9847C52.2449 31.9107 52.3811 31.8635 52.5225 31.8464C52.664 31.8293 52.8075 31.8426 52.9434 31.8854ZM50.4812 31.533C51.3438 31.6631 52.167 33.2804 52.3278 34.6407C52.4886 36.001 52.5856 37.536 52.2001 37.5314C51.4199 37.5853 51.393 34.5915 51.1499 33.8521C50.848 33.0611 50.3296 32.3711 49.6541 31.8608C49.8783 31.6507 50.174 31.5335 50.4812 31.533ZM45.3261 35.2601C45.0107 34.4814 47.0081 33.7282 47.0081 33.7282C47.7614 33.4612 48.1861 32.2701 48.7123 32.224C49.1955 32.1786 50.1635 33.215 50.4689 34.0913C50.7351 34.8492 50.8875 37.1544 50.5759 37.4906C50.2727 37.0252 50.0553 36.5093 49.9342 35.9672C49.6226 34.9623 49.354 34.096 48.7639 33.9182C48.6563 33.8862 48.5446 33.8701 48.4323 33.8705C47.4413 33.8705 46.5087 35.0762 46.3726 35.3647C46.3394 35.4355 46.3303 35.5152 46.3467 35.5916C46.3631 35.668 46.4041 35.737 46.4633 35.7879C47.1935 36.4257 47.8544 37.1436 47.6436 37.3375C47.3012 37.5545 45.9871 36.8943 45.3192 35.2601H45.3261ZM45.1723 42.6788L45.5477 39.1333C45.5579 39.0381 45.6055 38.9509 45.6801 38.8908C45.7546 38.8307 45.8499 38.8026 45.9451 38.8129C46.0403 38.8231 46.1276 38.8707 46.1877 38.9452C46.2478 39.0197 46.2758 39.1151 46.2656 39.2103L45.8901 42.7557C45.8799 42.8509 45.8323 42.9382 45.7578 42.9983C45.6833 43.0584 45.5879 43.0864 45.4927 43.0762C45.3975 43.066 45.3103 43.0184 45.2502 42.9439C45.1901 42.8693 45.1621 42.774 45.1723 42.6788ZM14.8504 31.7662C14.8504 31.7662 23.8018 28.9432 25.3583 25.437C26.5359 26.6238 27.9409 27.5606 29.4893 28.1915C29.4893 28.1915 30.835 35.454 30.7973 37.7068C30.7627 39.6096 30.7973 47.3484 21.4781 45.671C21.3882 45.6441 21.2912 45.6532 21.2079 45.6965C21.1246 45.7399 21.0614 45.814 21.0319 45.9031C21.0023 45.9923 21.0087 46.0894 21.0497 46.174C21.0906 46.2585 21.1629 46.3237 21.2511 46.3558C22.6695 46.7387 24.1528 46.8174 25.6037 46.5866V48.5802C25.4652 48.7187 24.665 49.3381 22.8938 51.0292C22.2852 49.5312 21.2227 47.3914 20.374 47.8392C19.9162 48.0808 19.6746 49.4366 20.6587 53.159C19.9616 53.1051 18.5767 52.7235 17.8319 50.6746C18.6367 50.0783 20.4833 48.2686 20.1555 44.4277C19.7362 39.545 17.4833 38.6824 16.4408 37.4037C15.8018 36.6241 15.3307 35.721 15.057 34.7509C14.7834 33.7809 14.713 32.7647 14.8504 31.7662ZM25.9461 51.0916C26.0346 51.2455 26.2477 51.3516 26.3901 51.2455C28.359 49.8097 28.2474 51.3409 27.1472 51.8441C27.1085 51.8703 27.0757 51.9044 27.0509 51.944C27.0262 51.9837 27.01 52.0281 27.0034 52.0744C26.9968 52.1207 26.9999 52.1679 27.0126 52.2129C27.0253 52.2579 27.0473 52.2997 27.0772 52.3357C27.1294 52.4126 27.2097 52.4658 27.3008 52.4839C27.3919 52.5021 27.4865 52.4837 27.5642 52.4327C28.8599 51.5224 29.11 52.3373 28.1089 52.9528C28.0392 53.0024 27.9893 53.0752 27.9683 53.1583C27.9472 53.2413 27.9564 53.329 27.9941 53.4059C28.0319 53.4828 28.0957 53.5437 28.1743 53.5778C28.2528 53.612 28.3409 53.617 28.4229 53.5922C29.8486 53.0374 29.8901 54.3616 26.6932 55.8643C25.7794 56.2344 25.0283 56.9195 24.5758 57.7955C23.6983 57.5001 22.8135 57.2271 21.9221 56.9768C22.0045 56.2663 21.9913 55.5479 21.8828 54.8409C20.9811 51.8294 20.4463 49.1473 20.6179 48.5525C20.9957 48.7533 21.819 50.2221 22.4153 51.7887C22.4365 51.8448 22.4714 51.8947 22.5167 51.9339C22.5621 51.9732 22.6166 52.0005 22.6751 52.0134C22.7337 52.0263 22.7946 52.0244 22.8523 52.0079C22.9099 51.9913 22.9626 51.9607 23.0054 51.9187C25.9669 49.0126 28.9361 46.7182 29.4793 46.8898C29.5947 47.3045 27.9851 49.0518 26.0308 50.6292C25.9638 50.6835 25.9186 50.76 25.9032 50.8448C25.8878 50.9297 25.9033 51.0172 25.9469 51.0916H25.9461ZM25.5068 59.6721C25.5915 59.7165 25.6553 59.7927 25.6841 59.8839C25.7129 59.9751 25.7045 60.0741 25.6607 60.1591L24.4904 62.4543C24.4453 62.5369 24.3697 62.5987 24.2797 62.6265C24.1898 62.6543 24.0925 62.6459 24.0087 62.6031C23.9248 62.5603 23.8609 62.4865 23.8306 62.3974C23.8003 62.3082 23.806 62.2108 23.8464 62.1258L25.0167 59.8314C25.0382 59.7884 25.068 59.7502 25.1044 59.7189C25.1408 59.6876 25.1831 59.6639 25.2288 59.6491C25.2745 59.6342 25.3226 59.6286 25.3705 59.6326C25.4183 59.6365 25.4649 59.65 25.5075 59.6721H25.5068ZM23.1293 59.7236L22.0175 61.8988C21.9737 61.9842 21.8978 62.0487 21.8065 62.0781C21.7151 62.1076 21.6158 62.0995 21.5304 62.0557C21.445 62.012 21.3805 61.9361 21.3511 61.8447C21.3217 61.7534 21.3297 61.6541 21.3735 61.5687L22.4876 59.3936C22.5088 59.3506 22.5383 59.3123 22.5745 59.2809C22.6106 59.2495 22.6527 59.2255 22.6981 59.2105C22.7436 59.1955 22.7916 59.1897 22.8394 59.1935C22.8871 59.1972 22.9337 59.2104 22.9763 59.2323C23.0189 59.2542 23.0567 59.2844 23.0875 59.3211C23.1183 59.3578 23.1415 59.4002 23.1557 59.4459C23.17 59.4917 23.175 59.5398 23.1704 59.5874C23.1659 59.6351 23.1519 59.6814 23.1293 59.7236ZM8.12107 85.0797C2.51357 84.5981 1.14786 77.9534 1.68876 72.3413C2.4751 64.1647 10.0523 49.8136 17.1263 50.8615C18.0796 53.5545 20.0701 53.8692 20.8541 53.8838C20.9549 54.2493 21.6135 55.675 21.2134 56.7876C20.8764 56.7029 20.5525 56.6283 20.2532 56.569C20.0854 56.5363 19.9116 56.5566 19.7559 56.6272C19.6003 56.6978 19.4704 56.8152 19.3845 56.963C18.7098 58.1263 14.201 65.8882 10.9425 71.2264C11.3757 66.2883 11.9474 61.9673 11.9535 61.9165C11.9617 61.8237 11.9337 61.7313 11.8754 61.6587C11.8171 61.586 11.733 61.5386 11.6406 61.5264C11.5483 61.5142 11.4548 61.5381 11.3796 61.5932C11.3045 61.6482 11.2535 61.7301 11.2372 61.8218C11.231 61.8749 10.5447 67.0716 10.1023 72.5898C9.23134 73.9948 8.50347 75.1289 8.04721 75.7652C7.9913 75.8429 7.96856 75.9397 7.984 76.0342C7.99944 76.1287 8.05179 76.2132 8.12954 76.2692C8.20728 76.3251 8.30406 76.3478 8.39857 76.3324C8.49308 76.3169 8.57759 76.2646 8.6335 76.1868C10.0839 74.1687 14.081 67.4493 16.987 62.5005C17.6449 62.9298 19.6323 63.8546 25.1482 64.5948C20.8026 77.9973 16.8462 85.8291 8.12107 85.0797ZM20.8434 59.0412L19.6123 61.294C19.5649 61.3746 19.488 61.4337 19.3979 61.4587C19.3077 61.4838 19.2114 61.4728 19.1292 61.4282C19.047 61.3836 18.9853 61.3089 18.9571 61.2197C18.929 61.1305 18.9366 61.0338 18.9783 60.9501L20.2094 58.6942C20.2554 58.6102 20.3329 58.5479 20.4248 58.5211C20.5167 58.4943 20.6155 58.505 20.6995 58.5511C20.7834 58.5971 20.8457 58.6746 20.8725 58.7665C20.8994 58.8584 20.8886 58.9572 20.8426 59.0412H20.8434ZM12.1705 88.5775L11.5865 91.2212C11.5777 91.2688 11.5594 91.3142 11.5327 91.3547C11.506 91.3951 11.4715 91.4297 11.4311 91.4565C11.3908 91.4834 11.3454 91.5018 11.2978 91.5108C11.2502 91.5197 11.2013 91.519 11.154 91.5087C11.1066 91.4984 11.0618 91.4787 11.0223 91.4507C10.9827 91.4228 10.9492 91.3872 10.9236 91.346C10.8981 91.3048 10.8811 91.2589 10.8736 91.2111C10.8662 91.1632 10.8684 91.1143 10.8802 91.0673L11.4665 88.4236C11.4766 88.3774 11.4957 88.3336 11.5227 88.2948C11.5498 88.2559 11.5842 88.2228 11.624 88.1972C11.6638 88.1717 11.7083 88.1542 11.7549 88.1459C11.8015 88.1375 11.8492 88.1384 11.8954 88.1485C11.9417 88.1586 11.9855 88.1778 12.0243 88.2048C12.0631 88.2318 12.0963 88.2662 12.1218 88.306C12.1474 88.3459 12.1648 88.3904 12.1732 88.4369C12.1815 88.4835 12.1806 88.5313 12.1705 88.5775ZM14.9296 89.3407L14.401 92.3745C14.3929 92.4213 14.3756 92.466 14.3503 92.506C14.3249 92.5461 14.2918 92.5807 14.253 92.608C14.2142 92.6353 14.1704 92.6547 14.1241 92.6651C14.0779 92.6755 14.03 92.6766 13.9832 92.6685C13.9365 92.6603 13.8918 92.6431 13.8518 92.6177C13.8117 92.5923 13.7771 92.5592 13.7498 92.5204C13.7225 92.4817 13.7031 92.4379 13.6927 92.3916C13.6823 92.3453 13.6812 92.2974 13.6893 92.2507L14.2172 89.2169C14.2348 89.1236 14.2885 89.041 14.3666 88.9869C14.4446 88.9329 14.5408 88.9117 14.6344 88.9279C14.728 88.9442 14.8114 88.9966 14.8666 89.0738C14.9218 89.1511 14.9445 89.247 14.9296 89.3407ZM18.1319 93.097C18.1232 93.1922 18.0769 93.28 18.0034 93.3411C17.9299 93.4023 17.8351 93.4317 17.7399 93.4229C17.6447 93.4141 17.5569 93.3679 17.4958 93.2944C17.4347 93.2208 17.4053 93.1261 17.4141 93.0309L17.6903 90.0532C17.7001 89.9585 17.7468 89.8715 17.8203 89.811C17.8939 89.7505 17.9883 89.7215 18.0831 89.7302C18.1779 89.7389 18.2655 89.7847 18.3268 89.8575C18.3881 89.9304 18.4181 90.0245 18.4105 90.1194L18.1319 93.097ZM21.1365 93.3155C21.1289 93.4107 21.0837 93.499 21.011 93.5609C20.9382 93.6228 20.8439 93.6533 20.7487 93.6456C20.6535 93.638 20.5653 93.5928 20.5034 93.5201C20.4415 93.4474 20.411 93.353 20.4186 93.2578L20.6418 90.5026C20.6456 90.4554 20.6587 90.4095 20.6803 90.3674C20.7019 90.3254 20.7315 90.2879 20.7676 90.2573C20.8036 90.2267 20.8453 90.2035 20.8904 90.189C20.9354 90.1745 20.9828 90.169 21.0299 90.1729C21.0771 90.1767 21.123 90.1898 21.1651 90.2114C21.2071 90.233 21.2446 90.2626 21.2752 90.2987C21.3058 90.3347 21.329 90.3764 21.3435 90.4215C21.358 90.4665 21.3635 90.5139 21.3596 90.561L21.1365 93.3155ZM24.1988 93.2871C24.1988 93.3828 24.1608 93.4746 24.0931 93.5422C24.0254 93.6099 23.9336 93.6479 23.8379 93.6479C23.7422 93.6479 23.6504 93.6099 23.5828 93.5422C23.5151 93.4746 23.4771 93.3828 23.4771 93.2871V90.5318C23.4771 90.4361 23.5151 90.3443 23.5828 90.2766C23.6504 90.209 23.7422 90.1709 23.8379 90.1709C23.9336 90.1709 24.0254 90.209 24.0931 90.2766C24.1608 90.3443 24.1988 90.4361 24.1988 90.5318V93.2871ZM27.4303 93.6479C27.3412 93.6475 27.2553 93.6142 27.1892 93.5545C27.123 93.4947 27.0812 93.4127 27.0718 93.324L26.7848 90.5687C26.7746 90.4735 26.8026 90.3782 26.8627 90.3037C26.9228 90.2291 27.01 90.1815 27.1052 90.1713C27.2004 90.1611 27.2958 90.1892 27.3703 90.2493C27.4448 90.3094 27.4924 90.3966 27.5026 90.4918L27.7919 93.2463C27.797 93.2971 27.7914 93.3484 27.7752 93.3969C27.7591 93.4453 27.733 93.4898 27.6985 93.5274C27.664 93.5651 27.6219 93.595 27.575 93.6152C27.5281 93.6354 27.4775 93.6455 27.4265 93.6449L27.4303 93.6479ZM30.7303 93.0555C30.6839 93.065 30.6359 93.0653 30.5894 93.0562C30.5428 93.0472 30.4984 93.029 30.4589 93.0028C30.4193 92.9765 30.3854 92.9427 30.3589 92.9033C30.3325 92.8639 30.3141 92.8197 30.3049 92.7731L29.777 90.1571C29.7677 90.1106 29.7676 90.0628 29.7767 90.0162C29.7859 89.9697 29.8041 89.9255 29.8304 89.886C29.8566 89.8465 29.8904 89.8126 29.9298 89.7862C29.9691 89.7598 30.0133 89.7413 30.0598 89.732C30.1063 89.7227 30.1541 89.7226 30.2007 89.7317C30.2472 89.7409 30.2914 89.7591 30.3309 89.7853C30.3704 89.8116 30.4043 89.8454 30.4307 89.8847C30.4571 89.9241 30.4756 89.9683 30.4849 90.0148L31.0127 92.6308C31.0221 92.6775 31.0221 92.7256 31.0128 92.7723C31.0034 92.819 30.9849 92.8634 30.9583 92.9029C30.9317 92.9424 30.8975 92.9762 30.8577 93.0024C30.8179 93.0286 30.7733 93.0466 30.7265 93.0555H30.7303ZM34.0565 91.9244C34.0106 91.9362 33.9629 91.9387 33.916 91.9319C33.8692 91.9251 33.8241 91.9091 33.7835 91.8847C33.7429 91.8604 33.7074 91.8283 33.6793 91.7902C33.6511 91.7521 33.6308 91.7088 33.6195 91.6628L32.9793 89.0892C32.9561 88.9961 32.9707 88.8976 33.0201 88.8154C33.0694 88.7331 33.1494 88.6738 33.2425 88.6506C33.3355 88.6273 33.434 88.642 33.5163 88.6913C33.5985 88.7407 33.6578 88.8207 33.681 88.9137L34.3166 91.4905C34.3378 91.583 34.3221 91.6801 34.2728 91.7611C34.2236 91.8422 34.1446 91.9008 34.0527 91.9244H34.0565ZM37.1026 90.8788C37.0109 90.9052 36.9125 90.8941 36.8289 90.8479C36.7454 90.8017 36.6836 90.7243 36.6571 90.6326L35.877 87.9335C35.861 87.8872 35.8547 87.8382 35.8583 87.7894C35.8619 87.7406 35.8753 87.6931 35.8979 87.6497C35.9204 87.6063 35.9516 87.5679 35.9894 87.5369C36.0272 87.5058 36.071 87.4829 36.118 87.4693C36.165 87.4557 36.2143 87.4518 36.2628 87.4579C36.3114 87.4639 36.3582 87.4798 36.4004 87.5045C36.4426 87.5292 36.4794 87.5622 36.5084 87.6016C36.5375 87.641 36.5582 87.6858 36.5694 87.7334L37.3496 90.431C37.3626 90.4769 37.3665 90.5249 37.3609 90.5722C37.3553 90.6196 37.3404 90.6654 37.3171 90.707C37.2938 90.7486 37.2626 90.7852 37.2251 90.8146C37.1876 90.8441 37.1447 90.8659 37.0988 90.8788H37.1026ZM39.5563 89.8201C39.5109 89.8342 39.4631 89.839 39.4158 89.8345C39.3685 89.8299 39.3226 89.816 39.2807 89.7935C39.2388 89.771 39.2018 89.7404 39.1718 89.7035C39.1419 89.6666 39.1196 89.6241 39.1062 89.5785L38.2706 86.8232C38.243 86.7314 38.2529 86.6323 38.2983 86.5479C38.3437 86.4634 38.4208 86.4004 38.5126 86.3727C38.6044 86.3451 38.7035 86.355 38.788 86.4004C38.8724 86.4458 38.9354 86.5229 38.9631 86.6147L39.7987 89.37C39.8121 89.4157 39.8164 89.4636 39.8113 89.511C39.8062 89.5584 39.7918 89.6043 39.7689 89.6461C39.7461 89.6879 39.7152 89.7248 39.678 89.7547C39.6409 89.7845 39.5982 89.8068 39.5525 89.8201H39.5563ZM46.1617 75.2651C42.4416 74.2294 38.8777 71.1933 38.2768 70.6632C37.2881 65.2134 36.5948 60.9847 36.5802 60.8962C36.5738 60.8484 36.5578 60.8023 36.5332 60.7607C36.5086 60.7191 36.4759 60.6828 36.4371 60.6541C36.3982 60.6254 36.354 60.6048 36.3071 60.5935C36.2601 60.5822 36.2113 60.5804 36.1637 60.5883C36.116 60.5962 36.0704 60.6135 36.0296 60.6394C35.9888 60.6652 35.9536 60.699 35.926 60.7387C35.8985 60.7784 35.8792 60.8232 35.8693 60.8705C35.8595 60.9178 35.8592 60.9666 35.8685 61.014C37.9413 73.747 39.3632 80.3663 40.1672 84.081C33.3487 89.737 16.6354 90.6303 9.4914 86.1838L9.51602 85.8476C13.6709 85.763 16.947 83.654 19.7292 79.2953C22.4737 74.995 24.6443 68.8312 27.4673 59.6436C27.5298 59.4421 27.5125 59.2242 27.4188 59.0352C27.3251 58.8461 27.1623 58.7003 26.9641 58.628C26.4015 58.4232 25.8373 58.2231 25.2713 58.0279C25.4737 56.963 26.6709 56.6429 27.3872 56.2651C27.8697 56.0135 30.6311 54.2646 30.181 53.2521C30.0974 53.0954 29.9713 52.9655 29.8173 52.8772C29.6633 52.7888 29.4874 52.7457 29.31 52.7527C29.3993 52.6104 29.8632 51.2508 28.4706 51.3439C28.5188 51.2286 28.5376 51.1031 28.5252 50.9788C28.5129 50.8544 28.4698 50.735 28.3998 50.6315C30.4903 50.9538 36.0001 52.3526 41.9192 58.3826L41.4629 62.2481C41.4556 62.2959 41.458 62.3448 41.47 62.3917C41.482 62.4386 41.5033 62.4826 41.5326 62.5211C41.562 62.5596 41.5987 62.5918 41.6408 62.6158C41.6828 62.6398 41.7293 62.6551 41.7773 62.6608C41.8254 62.6664 41.8741 62.6624 41.9206 62.6488C41.9671 62.6353 42.0103 62.6126 42.0478 62.582C42.0853 62.5514 42.1163 62.5135 42.1389 62.4707C42.1614 62.4279 42.1752 62.381 42.1792 62.3327L44.3413 44.0091C45.1878 44.1475 46.0429 44.2269 46.9004 44.2468L46.1617 75.2651ZM75.3264 93.3094L46.4672 92.7108L47.1543 63.69C50.3035 63.7562 58.003 63.977 58.1161 63.9747C59.3834 63.9608 59.4819 64.4617 59.4057 64.7987C59.071 66.2868 57.3906 67.4601 58.1223 69.2267C56.541 69.7459 55.115 70.6531 53.9747 71.8655C52.8343 73.0778 52.016 74.5566 51.5945 76.1667C51.173 77.7768 51.1617 79.4669 51.5617 81.0825C51.9617 82.6981 52.7602 84.1876 53.8842 85.4151C55.0082 86.6426 56.422 87.5687 57.9962 88.109C59.5705 88.6493 61.255 88.7864 62.8959 88.5079C64.5368 88.2293 66.0817 87.544 67.3895 86.5145C68.6972 85.485 69.7261 84.1441 70.3822 82.6145C72.0526 83.0762 73.1274 81.7913 74.6209 81.5081C74.6941 81.4835 74.7723 81.4776 74.8484 81.491C74.9245 81.5045 74.996 81.5368 75.0564 81.585C75.2521 81.8454 75.3459 82.1683 75.3203 82.493C75.3203 82.493 75.3264 91.4313 75.3264 93.3094ZM103.276 93.8911L76.0489 93.3256C76.0489 91.4605 76.0551 83.1231 76.0428 82.5145C76.0662 82.2469 76.0329 81.9774 75.9451 81.7235C75.8574 81.4696 75.7171 81.2371 75.5334 81.0411C74.8409 80.434 73.6706 81.0064 72.7635 81.4496C72.1434 81.8691 71.3894 82.0427 70.6484 81.9367C71.2579 80.1777 71.36 78.2827 70.9431 76.4684C72.238 76.3461 73.3036 77.761 74.3816 78.028C74.6439 78.1039 74.9238 78.0924 75.1791 77.9952C75.4343 77.8981 75.651 77.7206 75.7965 77.4894C76.2182 76.6806 76.4048 75.7698 76.3351 74.8603C76.3105 73.2923 76.3498 66.146 76.3621 64.1939C139.435 66.0952 33.4017 62.8929 103.703 65.0195C103.646 66.8438 103.395 74.7388 103.437 75.4959C103.429 75.9561 103.6 76.4015 103.914 76.738C104.228 77.0746 104.661 77.2761 105.12 77.3002C106.986 77.3771 107.166 75.8183 109.378 76.0268C109.877 76.103 110.337 76.344 110.683 76.7115C111.03 77.079 111.244 77.5519 111.291 78.055C111.54 79.3922 111.083 80.8056 110.273 81.2096C108.771 81.9513 106.708 80.6433 104.838 80.8833C104.607 80.8912 104.381 80.9534 104.178 81.0648C103.976 81.1763 103.802 81.334 103.672 81.525C103.025 82.6422 103.277 93.8911 103.277 93.8911H103.276ZM103.869 89.3761C103.869 89.3761 103.582 82.7538 104.24 81.9574C104.324 81.8553 104.428 81.7707 104.545 81.7088C104.661 81.6469 104.789 81.6087 104.921 81.5966C106.634 81.3773 108.778 82.7507 110.586 81.8543C112.81 80.7564 112.652 75.6075 109.436 75.3066C107.027 75.0835 106.595 76.6315 105.14 76.58C104.861 76.5596 104.602 76.4312 104.417 76.2221C104.233 76.013 104.137 75.7399 104.151 75.4613C104.129 75.0319 104.209 71.9512 104.3 68.9212L113.644 66.5745C119.525 72.7845 127.801 76.3192 130.32 76.8431L130.593 86.3877C129.438 87.0856 117.516 96.1262 103.872 89.3761H103.869ZM131.561 76.3176C125.612 75.5482 118.777 70.4939 114.467 66.3645L117.554 65.5912C117.667 65.5604 117.554 65.5281 117.87 65.7251C118.956 66.4176 120.93 67.4232 121.701 66.5068C121.772 66.3832 121.806 66.2414 121.798 66.0988C121.79 65.9561 121.74 65.819 121.655 65.7043C123.296 65.8505 122.992 64.2016 122.767 63.7315C122.981 63.7486 123.195 63.7108 123.39 63.6217C123.585 63.5326 123.753 63.3952 123.88 63.2225C124.007 63.0498 124.087 62.8476 124.114 62.635C124.14 62.4225 124.112 62.2066 124.032 62.008C124.239 62.0287 124.448 62.0019 124.644 61.9298C124.839 61.8577 125.015 61.7421 125.159 61.5918C126.63 62.2996 132.405 64.9472 137.761 65.5989H137.805C137.897 65.5979 137.984 65.5623 138.051 65.4992C138.117 65.4361 138.157 65.3502 138.162 65.2589C138.168 65.1675 138.138 65.0775 138.08 65.007C138.022 64.9364 137.939 64.8906 137.848 64.8787C135.372 64.5308 132.94 63.9206 130.593 63.0583L130.291 57.1769C130.291 57.1283 130.28 57.0804 130.26 57.0359C130.241 56.9915 130.212 56.9515 130.177 56.9182C130.142 56.885 130.1 56.8593 130.054 56.8427C130.008 56.826 129.96 56.8187 129.911 56.8213C129.863 56.8238 129.815 56.8361 129.772 56.8575C129.728 56.8788 129.689 56.9087 129.657 56.9454C129.626 56.9822 129.602 57.0249 129.587 57.0712C129.572 57.1174 129.567 57.1662 129.571 57.2146L129.856 62.7905C127.547 61.9319 125.799 61.0978 125.287 60.8485C125.011 59.7083 122.979 57.4808 120.703 56.6591C120.573 56.2197 119.944 54.0484 119.686 52.9074C119.379 51.5494 119.67 51.4455 120.006 51.3162C121.061 50.9123 124.979 52.2772 125.882 49.4612C126.953 46.1219 124.505 43.9214 122.076 44.5269C120.423 44.9378 119.714 46.5697 118.89 46.8352C118.789 46.8751 118.681 46.8934 118.573 46.8887C118.465 46.8841 118.359 46.8567 118.262 46.8082C117.992 46.6286 117.8 46.3539 117.724 46.0388C117.614 45.6341 115.421 37.96 114.75 35.6217C114.71 35.4808 114.617 35.3609 114.49 35.2874C114.364 35.2138 114.213 35.1925 114.071 35.2278L94.5387 39.9635C99.1714 36.6173 106.926 35.5625 107.157 35.5248C107.347 35.4947 107.542 35.3932 107.542 35.1885C107.455 33.9923 107.651 32.7925 108.114 31.6861C110.623 31.3084 118.368 31.917 118.983 32.6025C119.313 33.3581 119.195 35.5578 119.122 36.3457C119.113 36.4358 119.139 36.5258 119.193 36.5979C119.248 36.6701 119.327 36.7193 119.416 36.7358C132.063 39.0171 145.849 55.5219 146.291 65.0842C146.71 74.1017 140.331 77.4064 131.561 76.3176H131.561Z" fill="black"/>
</svg>
