<svg width="147" height="115" viewBox="0 0 147 115" fill="none" xmlns="http://www.w3.org/2000/svg">
<path d="M77.8789 105.599C77.8789 105.599 120.758 105.999 122.228 105.599C123.698 105.199 135.308 107.576 135.716 95.7042C136.116 83.9783 135.901 34.428 135.716 32.6121C135.531 30.7963 135.785 20.1168 121.197 20.1553C107.124 20.1553 29.9367 19.9937 21.8732 20.1553C11.3168 20.3554 8.86236 22.9406 8.79312 33.7893C8.72387 44.6381 8.50074 74.0298 8.50074 74.0298C7.46333 74.3843 6.53084 74.9923 5.78784 75.7984C5.04484 76.6046 4.51483 77.5834 4.24587 78.6463C3.75345 80.4852 6.24635 98.8742 8.64693 105.576C9.41634 107.622 13.1018 109.623 19.111 108.369C29.2288 106.253 41.8857 104.522 41.8857 104.522C42.0319 105.768 43.0244 105.645 44.2709 105.645L77.8789 105.599Z" fill="white"/>
<path d="M136.155 35.2587C136.155 30.2729 136.155 19.7935 121.79 19.7935H21.9425C16.6643 19.7935 8.67777 19.7165 8.60083 30.9346V48.2003C8.61501 48.3076 8.6677 48.4061 8.74909 48.4774C8.83048 48.5487 8.93502 48.5881 9.04324 48.5881C9.15147 48.5881 9.25601 48.5487 9.3374 48.4774C9.41879 48.4061 9.47148 48.3076 9.48566 48.2003C9.48566 48.1233 9.33947 43.5069 9.48566 33.9045C14.6177 33.9045 65.9992 33.6122 135.424 33.0967C135.424 33.9046 135.493 90.6412 135.493 93.942C135.493 97.8968 134.608 100.682 132.784 102.406C129.707 105.399 124.429 105.306 118.781 105.268L78.3483 105.137C77.8713 105.137 77.6405 106.183 78.3483 106.183L121.743 106.26C126.437 106.26 130.63 105.906 133.4 103.183C135.393 101.221 136.478 98.2046 136.401 94.0959C136.339 90.5181 136.155 44.207 136.155 35.2587ZM9.40872 32.9505V30.8961C9.44719 26.2796 10.8706 23.3328 13.7328 21.8093C16.2257 20.4783 19.3803 20.5629 21.9425 20.5629H121.79C132.931 20.5629 134.908 27.0106 135.277 32.1426C65.93 32.6966 14.5407 32.912 9.40872 32.9889V32.9505Z" fill="black"/>
<path d="M112.402 25.441C112.295 25.4268 112.197 25.3741 112.125 25.2927C112.054 25.2113 112.015 25.1068 112.015 24.9986C112.015 24.8904 112.054 24.7858 112.125 24.7044C112.197 24.623 112.295 24.5703 112.402 24.5562C112.479 24.5562 119.143 24.4869 126.621 24.5562C126.684 24.5478 126.748 24.5531 126.809 24.5715C126.87 24.5899 126.926 24.6211 126.974 24.663C127.022 24.7049 127.06 24.7565 127.086 24.8144C127.112 24.8722 127.126 24.935 127.126 24.9986C127.126 25.0621 127.112 25.1249 127.086 25.1828C127.06 25.2407 127.022 25.2923 126.974 25.3342C126.926 25.3761 126.87 25.4073 126.809 25.4257C126.748 25.4441 126.684 25.4493 126.621 25.441C119.143 25.3641 112.402 25.441 112.402 25.441Z" fill="black"/>
<path d="M112.402 29.4727C112.295 29.4586 112.197 29.4059 112.125 29.3245C112.054 29.2431 112.015 29.1385 112.015 29.0303C112.015 28.9221 112.054 28.8176 112.125 28.7362C112.197 28.6548 112.295 28.6021 112.402 28.5879C112.479 28.5879 119.143 28.5187 126.621 28.5879C126.684 28.5796 126.748 28.5848 126.809 28.6032C126.87 28.6216 126.926 28.6528 126.974 28.6947C127.022 28.7366 127.06 28.7882 127.086 28.8461C127.112 28.904 127.126 28.9668 127.126 29.0303C127.126 29.0939 127.112 29.1567 127.086 29.2145C127.06 29.2724 127.022 29.324 126.974 29.3659C126.926 29.4078 126.87 29.439 126.809 29.4574C126.748 29.4758 126.684 29.4811 126.621 29.4727C119.143 29.3958 112.402 29.4727 112.402 29.4727Z" fill="black"/>
<path d="M112.402 27.4875C112.286 27.4875 112.175 27.4413 112.092 27.3591C112.01 27.2768 111.964 27.1652 111.964 27.0489C111.964 26.9326 112.01 26.8211 112.092 26.7388C112.175 26.6566 112.286 26.6104 112.402 26.6104C112.479 26.6104 119.143 26.5334 126.621 26.6104C126.736 26.6174 126.844 26.6657 126.926 26.7463C127.008 26.8268 127.058 26.9343 127.067 27.0489C127.06 27.1641 127.01 27.2725 126.928 27.3534C126.846 27.4343 126.737 27.4821 126.621 27.4875C119.143 27.3798 112.402 27.4875 112.402 27.4875Z" fill="black"/>
<path d="M19.8189 26.7572C19.8111 27.0465 19.6927 27.3219 19.488 27.5266C19.2833 27.7313 19.0079 27.8497 18.7186 27.8574C18.4063 27.8475 18.1099 27.7169 17.8918 27.4931C17.6738 27.2693 17.5509 26.9696 17.5491 26.6572C17.5459 26.5118 17.5722 26.3673 17.6264 26.2324C17.6806 26.0975 17.7615 25.9749 17.8643 25.8721C17.9671 25.7693 18.0897 25.6884 18.2246 25.6342C18.3595 25.5801 18.504 25.5537 18.6493 25.5569C18.958 25.5775 19.2481 25.7115 19.464 25.933C19.6799 26.1546 19.8063 26.4481 19.8189 26.7572Z" fill="black"/>
<path d="M25.3894 26.7569C25.3816 27.0463 25.2632 27.3216 25.0585 27.5263C24.8539 27.731 24.5785 27.8494 24.2891 27.8572C23.9768 27.8472 23.6805 27.7166 23.4624 27.4928C23.2443 27.269 23.1215 26.9694 23.1196 26.6569C23.1216 26.3739 23.235 26.103 23.4351 25.9029C23.6352 25.7027 23.9061 25.5894 24.1891 25.5874C24.4982 25.6 24.7917 25.7264 25.0133 25.9423C25.2348 26.1581 25.3688 26.4483 25.3894 26.7569Z" fill="black"/>
<path d="M30.814 26.7572C30.8062 27.0465 30.6878 27.3219 30.4831 27.5266C30.2784 27.7313 30.0031 27.8497 29.7137 27.8574C29.4014 27.8475 29.105 27.7169 28.887 27.4931C28.6689 27.2693 28.546 26.9696 28.5442 26.6572C28.541 26.5118 28.5674 26.3673 28.6215 26.2324C28.6757 26.0975 28.7566 25.9749 28.8594 25.8721C28.9622 25.7693 29.0848 25.6884 29.2197 25.6342C29.3546 25.5801 29.4991 25.5537 29.6445 25.5569C29.9531 25.5775 30.2433 25.7115 30.4591 25.933C30.675 26.1546 30.8014 26.4481 30.814 26.7572Z" fill="black"/>
<path d="M52.3189 69.1517C37.8616 68.3131 25.5971 70.1212 12.3632 72.7141C7.51589 73.6605 3.99966 74.253 4.15354 81.0854C4.29204 87.1099 6.80803 100.844 7.85443 103.975C9.06241 107.584 10.9321 109.538 16.9258 108.984C23.9737 108.33 43.8554 104.468 44.017 104.429C44.0718 104.42 44.1241 104.4 44.1708 104.37C44.2175 104.34 44.2576 104.301 44.2886 104.255C44.3196 104.208 44.3408 104.157 44.351 104.102C44.3612 104.047 44.3601 103.991 44.3478 103.937C44.3255 103.828 44.2614 103.733 44.1693 103.671C44.0772 103.609 43.9644 103.586 43.8554 103.606C43.6553 103.645 23.8506 107.499 16.8489 108.146C15.2003 108.382 13.5195 108.243 11.9323 107.738C13.2634 105.345 19.7881 93.8192 24.0429 89.3874C27.1206 90.9262 31.8448 92.9805 35.3226 92.7112C41.1393 92.2573 49.3182 75.3071 49.6645 74.5838C49.7122 74.4848 49.7187 74.3709 49.6827 74.2671C49.6466 74.1633 49.5709 74.078 49.4721 74.0298C49.4227 74.005 49.3688 73.9903 49.3137 73.9865C49.2585 73.9827 49.2032 73.99 49.1508 74.008C49.0985 74.0259 49.0503 74.0541 49.009 74.0908C48.9678 74.1276 48.9342 74.1723 48.9104 74.2222C48.8258 74.3992 40.5931 91.4571 35.2533 91.8726C28.0516 92.4342 12.9403 82.101 5.85395 76.4843C7.01577 74.5684 9.29324 74.1222 12.5171 73.5297C26.8205 70.8829 36.6844 69.0748 52.2728 69.975C52.3274 69.9781 52.382 69.9704 52.4336 69.9524C52.4852 69.9344 52.5328 69.9063 52.5735 69.8698C52.6143 69.8334 52.6474 69.7893 52.6711 69.74C52.6947 69.6907 52.7084 69.6372 52.7113 69.5826C52.7145 69.5284 52.7067 69.4742 52.6886 69.423C52.6704 69.3718 52.6423 69.3248 52.6057 69.2847C52.5692 69.2446 52.525 69.2121 52.4757 69.1893C52.4265 69.1665 52.3732 69.1537 52.3189 69.1517ZM23.2658 88.9796C18.8494 93.7038 12.4401 105.076 11.1629 107.376C9.57792 106.476 9.10858 105.068 8.56229 103.437C7.83135 101.267 5.13839 87.5946 4.99221 81.0623C4.90981 79.7754 5.07702 78.4848 5.48463 77.2614C7.04654 78.4924 15.2408 84.817 23.2658 88.9796Z" fill="black"/>
<path d="M5.01521 73.8222C19.3995 69.5544 34.365 67.5733 49.3643 67.9516C49.9616 67.2342 50.5959 66.5484 51.2648 65.8973C51.2648 65.8973 22.5271 47.0081 18.6492 45.3C15.3408 43.8535 13.4172 46.0233 12.417 47.6083C11.6476 48.7701 1.3451 62.9966 0.537211 66.2281C-0.270675 69.4597 1.3451 71.3986 5.01521 73.8222Z" fill="black"/>
<path d="M25.2049 69.0822C23.3429 66.774 16.1951 47.9849 15.1563 45.2304C15.1367 45.1783 15.107 45.1306 15.0689 45.09C15.0308 45.0494 14.985 45.0168 14.9343 44.9939C14.8835 44.971 14.8288 44.9584 14.7731 44.9567C14.7175 44.9551 14.6621 44.9644 14.6101 44.9841C14.559 45.0037 14.5122 45.0332 14.4725 45.0709C14.4329 45.1086 14.401 45.1538 14.3789 45.2039C14.3567 45.2539 14.3446 45.3079 14.3434 45.3626C14.3421 45.4173 14.3517 45.4717 14.3715 45.5227C14.5947 46.1229 18.2648 55.8406 21.2347 62.8192C15.2333 63.3963 1.74544 67.8204 0.460513 68.0512C0.391108 68.0437 0.320915 68.0537 0.256418 68.0804C0.19192 68.1072 0.135199 68.1497 0.0914914 68.2042C0.047784 68.2586 0.0185003 68.3232 0.00634528 68.3919C-0.00580973 68.4607 -0.000444092 68.5314 0.0219464 68.5975C0.175829 69.0592 0.2143 69.0361 3.99982 67.9204C8.74712 66.5201 17.48 63.9425 21.6117 63.6271C22.4168 65.7052 23.4082 67.7061 24.574 69.6054C24.6484 69.6698 24.7431 69.7056 24.8415 69.7067C24.9398 69.7077 25.0353 69.6738 25.111 69.611C25.1867 69.5483 25.2377 69.4607 25.2549 69.3638C25.2721 69.267 25.2544 69.1672 25.2049 69.0822Z" fill="white"/>
<path d="M84.7652 50.3628C84.0804 47.7853 79.8563 33.5742 76.3016 27.565C72.7469 21.5559 65.7375 15.7622 60.1362 19.7324C60.0601 19.7798 59.9751 19.8112 59.8864 19.8244C59.7978 19.8377 59.7073 19.8325 59.6207 19.8093C58.3742 19.44 53.3884 18.409 49.9491 22.0098C41.1316 31.2428 45.3326 47.3005 41.7395 56.8259C41.7127 56.9051 41.703 56.9892 41.711 57.0725C41.719 57.1557 41.7446 57.2364 41.786 57.3091C41.8274 57.3818 41.8838 57.4448 41.9514 57.4942C42.0189 57.5435 42.0962 57.578 42.178 57.5953C46.2098 58.7648 68.6382 64.6355 84.5497 51.0014C84.6389 50.9235 84.7059 50.8234 84.7437 50.7112C84.7816 50.599 84.789 50.4788 84.7652 50.3628Z" fill="#FF7449"/>
<path d="M116.435 38.6292C116.514 37.5126 116.866 36.4324 117.458 35.4823C118.489 33.7204 120.228 29.2501 120.028 26.7572C119.866 24.7798 123.028 19.3554 121.79 18.9168C120.759 18.5475 117.827 24.849 117.827 24.849L116.873 24.7028C116.873 24.7028 117.758 15.8315 116.365 15.7622C114.973 15.693 114.603 24.5566 114.603 24.5566L113.28 24.7798C113.28 24.7798 111.449 14.7312 110.202 14.662C108.956 14.5927 110.787 25.4338 110.787 25.4338L109.764 25.7261C109.764 25.7261 106.517 16.9933 104.978 17.4242C102.847 18.0628 109.233 30.7812 108.494 31.2044C107.756 31.6276 104.178 27.9113 103.293 29.0039C101.977 30.6273 106.755 33.7511 109.964 36.1209C110.549 36.5518 110.472 37.9522 110.402 38.8293L116.435 38.6292Z" fill="white"/>
<path d="M71.1235 96.7661L69.2153 104.976C69.9833 106.576 70.669 108.214 71.2697 109.885C71.6236 111.062 73.0316 114.786 73.7626 114.647C74.4935 114.509 74.532 113.478 74.532 113.478C74.532 113.478 75.8554 114.247 76.5171 112.447C76.5171 112.447 78.2714 113.216 77.979 109.738C77.979 109.738 79.7409 109.515 77.8328 104.237C78.0962 104.356 78.3954 104.37 78.6687 104.276C78.942 104.181 79.1688 103.986 79.3024 103.729C79.7255 102.96 77.7635 99.1821 74.2396 99.1128C73.3635 98.1353 72.305 97.3381 71.1235 96.7661Z" fill="white"/>
<path d="M66.5918 62.5269C66.5918 62.5269 74.5783 67.2973 76.1172 59.1569L74.3552 55.1251C74.3552 55.1251 80.8799 49.7392 76.4865 40.2446C76.4865 40.2446 78.9025 37.9364 77.5868 35.0434C77.1938 34.2245 76.5645 33.542 75.7801 33.084C74.9957 32.6259 74.0921 32.4133 73.1857 32.4735C73.1857 32.4735 70.839 25.8873 61.8214 24.8486C61.8214 24.8486 60.3595 34.8972 53.2501 38.7827L54.4966 43.253C54.4966 43.253 50.7572 43.3223 50.3879 46.4C50.0186 49.4776 54.5658 50.3624 56.474 49.1852C56.474 49.1852 59.1131 56.3023 65.5608 57.1795C65.5608 57.1025 66.738 61.3574 66.5918 62.5269Z" fill="white"/>
<path d="M60.2056 47.7598C60.211 47.9349 60.2649 48.1061 60.3642 48.2634C60.4636 48.4206 60.6064 48.5606 60.7843 48.6752C60.9621 48.7898 61.1715 48.8768 61.4 48.9309C61.6285 48.985 61.8716 49.0052 62.115 48.9904C62.3584 48.9755 62.5973 48.9259 62.8175 48.8444C63.0377 48.7628 63.2349 48.6511 63.3975 48.5157C63.5601 48.3803 63.6848 48.2239 63.7642 48.0558C63.8437 47.8877 63.8764 47.7111 63.8604 47.5366C63.855 47.3614 63.8011 47.1902 63.7017 47.033C63.6024 46.8758 63.4596 46.7358 63.2817 46.6212C63.1039 46.5065 62.8945 46.4196 62.666 46.3655C62.4375 46.3114 62.1944 46.2911 61.951 46.306C61.7076 46.3209 61.4687 46.3705 61.2485 46.452C61.0283 46.5335 60.8311 46.6453 60.6685 46.7807C60.5059 46.9161 60.3812 47.0725 60.3017 47.2406C60.2223 47.4087 60.1896 47.5852 60.2056 47.7598Z" fill="#FFB949"/>
<path d="M74.3625 43.0684C74.4413 43.2145 74.5585 43.3374 74.7071 43.4298C74.8557 43.5222 75.0328 43.5822 75.228 43.6065C75.4233 43.6307 75.6326 43.6186 75.8439 43.5709C76.0552 43.5232 76.2641 43.4408 76.4584 43.3286C76.6527 43.2164 76.8284 43.0766 76.9753 42.9175C77.1222 42.7583 77.2373 42.583 77.3139 42.4018C77.3904 42.2207 77.4269 42.0372 77.4211 41.8623C77.4153 41.6875 77.3674 41.5246 77.2802 41.3834C77.1995 41.2399 77.0814 41.1196 76.9326 41.0294C76.7838 40.9393 76.6072 40.8811 76.4131 40.8582C76.219 40.8353 76.0111 40.8481 75.8016 40.896C75.5921 40.9439 75.385 41.0258 75.1923 41.1371C74.9996 41.2483 74.8251 41.3867 74.6789 41.5442C74.5327 41.7018 74.4176 41.8753 74.3404 42.0549C74.2632 42.2345 74.2253 42.4165 74.229 42.5904C74.2327 42.7644 74.2778 42.9268 74.3618 43.0684" fill="#FFB949"/>
<path d="M117.904 38.2674H116.873C117.104 36.9781 117.551 35.7372 118.196 34.5973L118.635 33.6509C119.677 31.2842 120.297 28.753 120.466 26.1722C120.951 24.3487 123.328 19.0628 122.005 18.4011C121.932 18.347 121.847 18.3117 121.757 18.2982C121.667 18.2848 121.575 18.2937 121.489 18.3242C120.466 18.6858 118.342 22.7253 117.604 24.4103L117.242 24.341C117.311 23.5716 117.473 21.9174 117.535 20.3093C117.704 16.0544 117.165 15.3927 116.511 15.3235C116.303 15.3098 116.096 15.3609 115.919 15.4697C114.842 16.3314 114.342 21.9097 114.088 24.1948L113.426 24.2641C113.134 22.1405 112.033 15.4004 110.641 14.3694C110.549 14.2899 110.441 14.2317 110.325 14.1991C110.208 14.1664 110.086 14.1602 109.966 14.1809C109.847 14.2015 109.734 14.2485 109.635 14.3183C109.536 14.3882 109.454 14.4792 109.394 14.5848C108.348 16.039 109.694 23.0484 110.164 25.2182L109.94 25.2874C109.725 24.6334 109.171 23.2408 108.479 21.7712C106.647 17.7394 105.693 17.3009 105.324 17.2239C105.078 17.1222 104.801 17.1222 104.555 17.2239C102.839 18.0626 105.455 23.5101 108.071 30.7195C107.799 30.543 107.541 30.3449 107.301 30.127C105.839 29.0268 103.854 27.4879 102.685 28.8806C102.574 28.9961 102.495 29.1384 102.456 29.2935C102.417 29.4486 102.419 29.6112 102.462 29.7654C102.793 32.1968 109.517 36.1054 109.794 36.6517C110.023 37.2343 110.074 37.8714 109.94 38.4829C109.245 38.4812 108.552 38.5823 107.886 38.783C107.74 39.1446 106.278 62.2347 106.278 62.2347C101.292 58.9416 88.5353 54.1559 82.38 55.6408C80.1841 56.1852 78.1164 57.155 76.2939 58.4954C75.9246 57.6182 75.1937 56.0025 74.7551 55.0561C77.9943 52.5786 79.7794 46.7002 76.8787 40.3218C77.3395 39.8875 77.7073 39.3643 77.9599 38.7837C78.2125 38.203 78.3446 37.5772 78.3483 36.944C78.2713 32.3968 73.5856 32.2583 73.5086 32.2583C70.354 24.9258 61.7827 24.4872 61.7058 24.4872C61.6 24.4786 61.495 24.5115 61.4131 24.579C61.3312 24.6465 61.2789 24.7433 61.2672 24.8488C61.2672 24.9258 60.5671 34.4204 53.0576 38.4136C52.9877 38.4633 52.931 38.5291 52.8921 38.6055C52.8533 38.6819 52.8335 38.7665 52.8344 38.8522C53.2038 40.1756 53.7193 42.076 53.9347 42.9609C52.7709 43.0469 51.6665 43.5087 50.7878 44.2766C50.4313 44.6513 50.1716 45.1073 50.0314 45.6051C49.8911 46.1029 49.8745 46.6274 49.9829 47.1331C50.0913 47.6388 50.3215 48.1104 50.6535 48.5069C50.9855 48.9035 51.4093 49.213 51.8881 49.4086C53.2254 49.9418 54.7117 49.9665 56.066 49.4778C56.3584 50.1395 59.3591 56.518 65.1528 57.3259C65.299 58.0953 65.8145 60.1111 66.0299 61.5038C50.934 54.2482 28.9595 99.3744 43.5245 106.807C46.3867 108.269 68.669 106.038 69.4076 105.922C71.1927 109.862 71.9698 114.87 73.7318 114.87C74.2396 114.793 74.5012 114.286 74.6858 113.839C74.8873 113.906 75.1003 113.93 75.3115 113.911C75.5228 113.891 75.7277 113.828 75.9134 113.725C76.0991 113.623 76.2615 113.483 76.3906 113.314C76.5196 113.146 76.6124 112.953 76.6632 112.747C76.8337 112.804 77.0155 112.821 77.1935 112.794C77.3715 112.767 77.5405 112.698 77.6866 112.593C78.456 112.093 78.456 110.693 78.3483 109.954C79.7409 109.492 79.2331 107.022 78.7868 105.622H102.816C102.046 100.275 93.8135 75.361 93.8135 75.361C93.8135 75.361 108.302 84.8325 117.858 79.6081C126.083 75.1301 120.835 38.3367 117.904 38.2674ZM73.701 32.9893C74.4619 32.9893 75.2057 33.2149 75.8383 33.6376C76.471 34.0603 76.964 34.6612 77.2552 35.3641C77.5464 36.0671 77.6226 36.8406 77.4741 37.5869C77.3257 38.3331 76.9593 39.0186 76.4213 39.5566C75.8833 40.0946 75.1978 40.461 74.4515 40.6095C73.7053 40.7579 72.9317 40.6817 72.2288 40.3906C71.5258 40.0994 70.925 39.6063 70.5023 38.9736C70.0795 38.341 69.8539 37.5972 69.8539 36.8363C69.8539 35.816 70.2592 34.8375 70.9807 34.116C71.7022 33.3946 72.6807 32.9893 73.701 32.9893ZM66.0068 56.9565C65.9376 56.8104 65.8606 56.6642 65.6452 56.6642C59.6284 55.8947 56.7738 48.97 56.7738 48.8931C56.7426 48.8372 56.6998 48.7887 56.6485 48.7505C56.5971 48.7124 56.5382 48.6855 56.4758 48.6717C56.4133 48.6579 56.3486 48.6575 56.2859 48.6704C56.2233 48.6834 56.164 48.7094 56.1121 48.7469C55.5274 49.1854 53.4807 49.4009 52.0804 48.7469C50.18 47.8621 50.9801 45.4461 51.4957 45.0075C52.519 43.9073 54.5041 43.838 54.5733 43.838C54.8118 43.838 55.0581 43.561 54.9426 43.3225C54.8272 43.084 54.0578 40.0986 53.8424 39.0753C55.8141 37.99 57.4588 36.3958 58.6051 34.4588C59.7576 34.1202 60.9974 34.2531 62.052 34.8282C62.0996 34.8584 62.1529 34.8787 62.2085 34.8877C62.2642 34.8967 62.3211 34.8943 62.3758 34.8807C62.4305 34.867 62.4819 34.8423 62.5267 34.8082C62.5716 34.774 62.6091 34.7311 62.6368 34.682C62.6707 34.6355 62.694 34.5822 62.705 34.5258C62.716 34.4693 62.7145 34.4112 62.7006 34.3554C62.6866 34.2996 62.6606 34.2475 62.6243 34.2029C62.588 34.1583 62.5424 34.1222 62.4906 34.0972C61.5138 33.5412 60.3766 33.3349 59.2668 33.5125C60.6363 30.9914 61.5997 28.2702 62.1213 25.449C65.4909 25.798 68.619 27.3593 70.9234 29.8423C70.2222 29.9915 69.5681 30.3099 69.0182 30.7699C68.4683 31.2299 68.0394 31.8175 67.7688 32.4814C67.7466 32.5296 67.7348 32.5819 67.7342 32.6349C67.7336 32.6879 67.7441 32.7404 67.7652 32.789C67.7862 32.8377 67.8173 32.8814 67.8564 32.9172C67.8955 32.953 67.9416 32.9802 67.9919 32.9969C68.2074 33.0662 68.4997 32.92 68.4997 32.7738C68.4997 32.6276 69.3846 30.5733 71.5082 30.5733C71.8698 31.0888 72.316 31.6736 72.6777 32.266C68.4305 33.2893 69.0152 37.8366 69.1614 38.2751C68.7131 38.3366 68.2705 38.4344 67.838 38.5675C67.4764 37.5442 67.0148 36.3054 66.5993 35.1205C66.5671 35.0151 66.4957 34.926 66.3998 34.8716C66.3039 34.8172 66.1908 34.8017 66.0838 34.8282C66.0305 34.8424 65.9805 34.8671 65.9369 34.9008C65.8932 34.9345 65.8567 34.9766 65.8295 35.0246C65.8023 35.0726 65.7849 35.1255 65.7784 35.1803C65.7718 35.2351 65.7762 35.2906 65.7914 35.3437C66.153 36.4439 66.5608 37.6519 67.0379 38.7906C66.3295 39.0798 65.6821 39.5001 65.1297 40.0294C64.7473 39.2028 64.1377 38.502 63.3721 38.0089C62.6064 37.5157 61.7163 37.2505 60.8056 37.2441C59.8773 37.2441 58.9699 37.5194 58.1981 38.0351C57.4262 38.5508 56.8247 39.2838 56.4694 40.1415C56.1142 40.9991 56.0212 41.9428 56.2023 42.8532C56.3834 43.7636 56.8304 44.5999 57.4868 45.2563C58.1432 45.9127 58.9795 46.3597 59.8899 46.5408C60.8004 46.7219 61.7441 46.629 62.6017 46.2737C63.4593 45.9185 64.1923 45.3169 64.708 44.5451C65.2238 43.7733 65.499 42.8658 65.499 41.9376C65.4839 41.5671 65.435 41.1988 65.3528 40.8373C65.8808 40.2508 66.5399 39.7973 67.2764 39.5139C67.5575 40.3335 67.9264 41.1203 68.3766 41.8606C68.669 42.153 70.2848 42.153 70.431 42.153C70.1578 42.7611 69.8389 43.3475 69.4769 43.9073C69.4442 43.9547 69.4219 44.0086 69.4115 44.0654C69.4012 44.1221 69.4029 44.1804 69.4168 44.2364C69.4306 44.2924 69.4561 44.3448 69.4917 44.3902C69.5272 44.4356 69.572 44.4729 69.6231 44.4997C69.7208 44.5547 69.8358 44.5702 69.9446 44.543C70.0533 44.5158 70.1475 44.448 70.2078 44.3535C72.0775 41.2759 71.462 41.4144 69.9155 41.2759C69.5436 41.272 69.1738 41.2203 68.8152 41.122C68.4943 40.5165 68.2365 39.8797 68.0458 39.2215C68.471 39.0588 68.9216 38.9728 69.3769 38.9676C69.6774 39.5624 70.1012 40.0862 70.6203 40.5042C71.1393 40.9222 71.7415 41.2246 72.3866 41.3914C73.0318 41.5581 73.7051 41.5853 74.3617 41.4712C75.0182 41.3571 75.6428 41.1043 76.1939 40.7296C77.3233 43.268 77.6999 46.0775 77.2788 48.8238C76.2554 54.6098 72.0083 55.4947 71.7851 55.4947C71.6788 55.531 71.5863 55.5993 71.5202 55.6902C71.4541 55.7811 71.4177 55.8901 71.4158 56.0025C71.4378 56.1038 71.4928 56.1951 71.5722 56.2619C71.6515 56.3287 71.7507 56.3673 71.8544 56.3718C72.6238 56.1791 73.3639 55.8841 74.0549 55.4947C74.5704 56.6642 75.4476 58.6416 75.6707 59.1571C75.5331 59.9173 75.2239 60.6361 74.7665 61.2588C74.3092 61.8814 73.7158 62.3915 73.0316 62.7502C70.7618 63.8659 67.7534 62.6733 66.9455 62.3117C66.884 60.8421 65.9991 57.1027 65.9991 56.9565H66.0068ZM64.7527 42.0453C64.7527 42.8062 64.5271 43.5499 64.1043 44.1826C63.6816 44.8152 63.0808 45.3083 62.3778 45.5995C61.6749 45.8907 60.9013 45.9669 60.1551 45.8184C59.4088 45.67 58.7233 45.3036 58.1853 44.7656C57.6473 44.2275 57.2809 43.5421 57.1324 42.7958C56.984 42.0495 57.0602 41.276 57.3514 40.5731C57.6425 39.8701 58.1356 39.2693 58.7683 38.8465C59.4009 38.4238 60.1447 38.1982 60.9056 38.1982C61.921 38.2141 62.8903 38.6245 63.6083 39.3425C64.3264 40.0606 64.7368 41.0299 64.7527 42.0453ZM45.5173 94.5271C45.4581 94.5533 45.3934 94.565 45.3288 94.5612C45.2641 94.5574 45.2013 94.5383 45.1454 94.5054C45.0896 94.4726 45.0425 94.4269 45.0078 94.3721C44.9732 94.3174 44.9521 94.2552 44.9463 94.1907C44.9405 94.1261 44.9501 94.0612 44.9744 94.0011C44.9987 93.9411 45.037 93.8877 45.086 93.8454C45.1351 93.8031 45.1935 93.773 45.2564 93.7578C45.3194 93.7425 45.3851 93.7425 45.4481 93.7577C45.7404 93.7577 47.941 93.5422 51.0879 93.2499C52.7729 86.5021 56.1506 77.5615 56.1506 77.4845C56.1894 77.3825 56.2671 77.3001 56.3667 77.2553C56.4662 77.2106 56.5795 77.2073 56.6815 77.246C56.7836 77.2848 56.866 77.3625 56.9107 77.4621C56.9555 77.5616 56.9588 77.6749 56.92 77.7769C56.92 77.8539 53.6192 86.5021 51.9342 93.1652C58.3819 92.6574 67.7688 92.1419 71.939 93.019C72.0459 93.0568 72.1387 93.1265 72.2047 93.2187C72.2708 93.3109 72.307 93.4212 72.3083 93.5345C72.3083 93.6038 72.016 95.1426 71.8621 95.8043C71.8148 95.8812 71.7437 95.9407 71.6597 95.9736C71.5756 96.0065 71.4831 96.0111 71.3961 95.9868C71.3092 95.9625 71.2325 95.9105 71.1778 95.8387C71.123 95.7669 71.0931 95.6792 71.0927 95.5889C71.2568 95.0114 71.3777 94.4224 71.4543 93.8269C64.6065 92.5112 45.7327 94.4194 45.5481 94.4886L45.5173 94.5271ZM78.2098 109.338C77.38 106.547 75.9546 103.969 74.0318 101.783C73.9533 101.705 73.8471 101.662 73.7367 101.663C73.6263 101.663 73.5208 101.708 73.4432 101.787C73.3657 101.865 73.3225 101.971 73.3233 102.082C73.324 102.192 73.3685 102.298 73.4471 102.375C73.4471 102.375 76.7248 105.953 77.4788 109.992C77.8712 112.116 76.9633 112.301 76.8171 112.193C76.0477 108.092 73.0778 103.691 72.97 103.475C72.9085 103.382 72.8143 103.316 72.7061 103.289C72.5978 103.262 72.4834 103.276 72.3853 103.329C72.2961 103.394 72.2326 103.488 72.2059 103.595C72.1792 103.702 72.1909 103.815 72.2391 103.914C72.2391 103.983 75.3168 108.454 76.0862 112.378C76.0092 113.401 75.2013 113.332 74.9859 113.255C74.6166 109.515 72.1237 105.63 72.0544 105.484C71.9883 105.394 71.8929 105.33 71.7846 105.303C71.6764 105.277 71.5623 105.289 71.462 105.337C71.3728 105.402 71.3093 105.496 71.2826 105.603C71.2559 105.71 71.2676 105.823 71.3158 105.922C71.3158 105.999 73.8087 109.885 74.1011 113.478C74.0318 114.647 73.0624 113.77 71.9775 110.469C71.4435 108.564 70.7057 106.723 69.777 104.976C70.3617 102.406 71.3158 97.5663 71.3158 97.5663C71.462 97.5663 74.255 98.5588 76.8864 103.437C79.2792 107.938 78.2405 109.3 78.2405 109.3L78.2098 109.338ZM78.8715 103.691C78.6716 103.908 78.3963 104.04 78.102 104.06C77.392 102.349 76.3721 100.784 75.0936 99.4437C78.6099 100.652 79.3408 103.214 78.9022 103.652L78.8715 103.691ZM110.833 38.4521C110.977 37.6631 110.846 36.8486 110.464 36.1439C109.756 35.436 102.623 30.8503 103.285 29.6962C103.947 28.542 105.593 29.9885 106.801 30.7964C107.755 31.5658 108.34 31.9659 108.779 31.6735C109.217 31.3812 109.163 30.858 107.609 26.9109C106.886 25.072 106.07 22.9407 105.555 21.1864C104.716 18.4627 104.678 18.1857 105.039 18.0395C105.924 17.6009 108.455 23.1561 109.44 25.9568C109.484 26.0541 109.557 26.135 109.65 26.1876C109.743 26.2402 109.85 26.2617 109.956 26.2492L110.91 26.026C111.016 25.9972 111.106 25.9276 111.161 25.8325C111.216 25.7373 111.231 25.6243 111.202 25.5182C111.202 25.5182 110.671 23.0253 110.317 20.4555C109.71 15.9852 110.171 15.1773 110.248 15.0696C110.394 15.1388 111.018 15.6543 111.933 19.9784C112.433 22.4021 112.703 24.8181 112.703 24.8873C112.712 24.9942 112.764 25.0929 112.846 25.1621C112.928 25.2312 113.034 25.2652 113.141 25.2566L114.534 25.1104C114.583 25.1126 114.632 25.1046 114.678 25.0868C114.724 25.069 114.765 25.0419 114.8 25.0071C114.835 24.9724 114.862 24.9308 114.88 24.885C114.897 24.8392 114.905 24.7902 114.903 24.7411C115.265 20.1246 115.927 16.8238 116.365 16.2775C116.804 17.047 116.657 21.1095 116.296 24.7411C116.287 24.8469 116.32 24.9519 116.388 25.0338C116.455 25.1157 116.552 25.168 116.657 25.1797L117.688 25.3259C117.775 25.3365 117.862 25.3218 117.94 25.2835C118.018 25.2452 118.083 25.1851 118.127 25.1104C119.62 22.0328 120.912 19.9015 121.497 19.3167C121.497 20.7555 119.689 25.2951 119.52 26.1338C119.043 33.3047 116.296 34.5127 115.926 38.229C114.457 38.2674 112.48 38.3367 110.864 38.4136L110.833 38.4521Z" fill="black"/>
<path d="M71.8931 38.7828C71.9994 38.7913 72.1057 38.7671 72.1978 38.7134C72.2899 38.6598 72.3635 38.5793 72.4086 38.4827C72.5681 37.7162 72.98 37.0253 73.5783 36.5204C74.1767 36.0155 74.927 35.7258 75.7094 35.6974C75.8233 35.6902 75.9307 35.6417 76.0115 35.5609C76.0922 35.4802 76.1407 35.3728 76.148 35.2589C76.1392 35.1455 76.0901 35.039 76.0097 34.9586C75.9293 34.8782 75.8228 34.8291 75.7094 34.8203C72.3394 34.8203 71.6007 38.1903 71.6007 38.2673C71.5743 38.3743 71.5898 38.4874 71.6442 38.5833C71.6986 38.6792 71.7877 38.7506 71.8931 38.7828Z" fill="black"/>
<path d="M57.8664 41.6372C57.8158 41.666 57.7715 41.7045 57.7358 41.7504C57.7002 41.7963 57.6739 41.8488 57.6586 41.9049C57.6432 41.961 57.639 42.0196 57.6463 42.0773C57.6536 42.135 57.6721 42.1907 57.7009 42.2412C57.7297 42.2917 57.7682 42.3361 57.8141 42.3717C57.8601 42.4074 57.9126 42.4336 57.9687 42.449C58.0247 42.4643 58.0833 42.4685 58.141 42.4612C58.1987 42.454 58.2544 42.4354 58.3049 42.4066C58.8435 42.0505 59.4396 41.7902 60.0669 41.6372C60.6294 41.483 61.2201 41.4626 61.7919 41.5775C62.3637 41.6924 62.9007 41.9394 63.36 42.2989C63.4369 42.3681 63.5062 42.3681 63.6524 42.3681C63.71 42.3673 63.7668 42.3538 63.8187 42.3285C63.8706 42.3033 63.9162 42.2669 63.9524 42.2219C63.9905 42.1805 64.0189 42.1313 64.0359 42.0777C64.0528 42.024 64.0578 41.9674 64.0504 41.9116C64.0431 41.8559 64.0236 41.8024 63.9934 41.755C63.9632 41.7076 63.9229 41.6674 63.8755 41.6372C61.2364 39.4367 57.8664 41.6372 57.8664 41.6372Z" fill="black"/>
<path d="M72.1621 45.446C70.1693 45.9922 66.5146 47.0617 66.5146 47.0617C66.1453 47.1387 66.2222 47.5003 66.2222 47.6465C66.4997 48.2783 66.949 48.8195 67.5189 49.2086C68.0889 49.5976 68.7566 49.8188 69.4461 49.847C69.9386 49.8382 70.4232 49.7208 70.8651 49.5031C71.307 49.2854 71.6954 48.9729 72.0027 48.5878C72.3099 48.2027 72.5283 47.7545 72.6423 47.2752C72.7563 46.796 72.7631 46.2975 72.6622 45.8153C72.6538 45.7581 72.6341 45.7032 72.6044 45.6537C72.5746 45.6042 72.5354 45.561 72.4889 45.5267C72.4425 45.4924 72.3897 45.4676 72.3336 45.4537C72.2775 45.4399 72.2192 45.4372 72.1621 45.446ZM70.354 48.8237C69.8033 49.0089 69.2058 49.0008 68.6603 48.8008C68.1148 48.6008 67.6537 48.2208 67.3533 47.7234C68.3073 47.431 70.4309 46.8463 71.9698 46.4C71.9839 46.9215 71.8362 47.4345 71.5468 47.8685C71.2575 48.3025 70.8408 48.6362 70.354 48.8237Z" fill="black"/>
<path d="M54.5659 46.4001C54.0135 46.2551 53.4498 46.1573 52.8808 46.1077C52.7738 46.0992 52.6678 46.1332 52.5857 46.2023C52.5036 46.2715 52.4521 46.3702 52.4423 46.4771C52.4336 46.5829 52.4666 46.6878 52.5341 46.7697C52.6016 46.8516 52.6984 46.904 52.8039 46.9156C53.324 46.9704 53.8388 47.0682 54.3427 47.208C54.4197 47.208 54.789 47.2849 54.8582 46.9156C54.8721 46.8096 54.851 46.702 54.7983 46.609C54.7455 46.516 54.664 46.4427 54.5659 46.4001Z" fill="black"/>
<path d="M95.5446 40.9063C95.5193 40.8127 95.4609 40.7314 95.3803 40.6777C95.2996 40.6239 95.2022 40.6012 95.106 40.6139L94.3366 40.7601L94.0443 39.1443C94.0427 39.0927 94.0289 39.0422 94.0039 38.9971C93.9789 38.952 93.9434 38.9135 93.9005 38.8848C93.8575 38.8562 93.8084 38.8383 93.7571 38.8326C93.7058 38.8268 93.6539 38.8335 93.6057 38.8519C93.5541 38.8534 93.5036 38.8673 93.4585 38.8923C93.4133 38.9173 93.3748 38.9528 93.3462 38.9957C93.3176 39.0386 93.2997 39.0878 93.2939 39.1391C93.2882 39.1904 93.2949 39.2423 93.3133 39.2905L93.6057 40.9755C93.2364 41.0525 92.944 41.1217 92.8363 41.1217C92.7421 41.1486 92.6607 41.2084 92.607 41.2904C92.5533 41.3723 92.5309 41.4709 92.5439 41.568C92.5742 41.6435 92.6234 41.71 92.6867 41.7612C92.75 41.8124 92.8253 41.8465 92.9055 41.8603C92.9055 41.8603 93.3441 41.7834 93.6749 41.7142L93.8904 42.8144C93.8985 42.8631 93.9166 42.9096 93.9434 42.9511C93.9703 42.9925 94.0053 43.0281 94.0464 43.0555C94.0875 43.0829 94.1338 43.1015 94.1824 43.1104C94.2309 43.1192 94.2808 43.118 94.3289 43.1068C94.5521 43.0299 94.6983 42.8837 94.6213 42.6605L94.4059 41.491C94.6442 41.4187 94.889 41.3698 95.1368 41.3448C95.1963 41.3609 95.2591 41.3604 95.3183 41.3434C95.3775 41.3265 95.431 41.2936 95.473 41.2485C95.5149 41.2034 95.5438 41.1477 95.5564 41.0874C95.569 41.027 95.5649 40.9644 95.5446 40.9063Z" fill="black"/>
<path d="M121.789 5.79024H121.02V4.62073C121.028 4.56829 121.024 4.51482 121.009 4.46396C120.994 4.41309 120.969 4.36602 120.934 4.32594C120.899 4.28586 120.856 4.25372 120.808 4.23168C120.76 4.20965 120.708 4.19824 120.655 4.19824C120.602 4.19824 120.549 4.20965 120.501 4.23168C120.453 4.25372 120.41 4.28586 120.375 4.32594C120.341 4.36602 120.315 4.41309 120.3 4.46396C120.285 4.51482 120.281 4.56829 120.289 4.62073V5.79024H119.774C119.721 5.78261 119.668 5.78636 119.617 5.80123C119.566 5.81609 119.519 5.84173 119.479 5.8764C119.439 5.91107 119.407 5.95396 119.385 6.00215C119.362 6.05035 119.351 6.10272 119.351 6.15571C119.351 6.20871 119.362 6.26108 119.385 6.30927C119.407 6.35747 119.439 6.40036 119.479 6.43503C119.519 6.4697 119.566 6.49533 119.617 6.5102C119.668 6.52507 119.721 6.52882 119.774 6.52119H120.289V7.69839C120.281 7.75083 120.285 7.8043 120.3 7.85517C120.315 7.90603 120.341 7.9531 120.375 7.99318C120.41 8.03326 120.453 8.06541 120.501 8.08744C120.549 8.10947 120.602 8.12088 120.655 8.12088C120.708 8.12088 120.76 8.10947 120.808 8.08744C120.856 8.06541 120.899 8.03326 120.934 7.99318C120.969 7.9531 120.994 7.90603 121.009 7.85517C121.024 7.8043 121.028 7.75083 121.02 7.69839V6.52119H121.789C121.877 6.50841 121.958 6.46445 122.016 6.39734C122.074 6.33022 122.106 6.24445 122.106 6.15571C122.106 6.06698 122.074 5.98121 122.016 5.91409C121.958 5.84698 121.877 5.80302 121.789 5.79024Z" fill="black"/>
<path d="M132.046 11.7993C132.007 11.8041 131.968 11.8004 131.93 11.7884C131.893 11.7765 131.859 11.7566 131.83 11.7301C131.782 11.7009 131.74 11.6611 131.709 11.6137C131.678 11.5663 131.658 11.5124 131.651 11.4563C131.644 11.4001 131.649 11.3429 131.667 11.2891C131.684 11.2353 131.714 11.1861 131.753 11.1453C133.169 9.13413 134.351 6.96841 135.277 4.68995C135.317 4.59444 135.392 4.51827 135.487 4.47794C135.582 4.43761 135.689 4.43638 135.785 4.47451C135.835 4.49039 135.881 4.51674 135.92 4.55183C135.959 4.58691 135.99 4.62991 136.011 4.67796C136.033 4.72601 136.043 4.77801 136.043 4.83049C136.042 4.88298 136.03 4.93474 136.008 4.98232C134.508 9.32952 132.192 11.7993 132.046 11.7993Z" fill="black"/>
<path d="M132.046 15.4699C131.607 15.4699 131.538 14.9544 131.83 14.662C131.9 14.662 135.677 12.7154 138.94 7.92193C139.007 7.83419 139.107 7.77678 139.216 7.76235C139.326 7.74793 139.437 7.77765 139.525 7.84499C139.612 7.91233 139.67 8.01177 139.684 8.12143C139.699 8.2311 139.669 8.342 139.601 8.42975C137.693 11.3559 135.099 13.7725 132.046 15.4699Z" fill="black"/>
<path d="M94.5906 13.123C93.0119 12.658 91.5908 11.7692 90.4819 10.5531C90.4115 10.472 90.3728 10.3682 90.3728 10.2607C90.3728 10.1533 90.4115 10.0495 90.4819 9.96837C90.5643 9.89742 90.6694 9.8584 90.7781 9.8584C90.8869 9.8584 90.992 9.89742 91.0744 9.96837C92.0816 10.9966 93.3069 11.7854 94.6598 12.2766C94.7164 12.2891 94.7697 12.313 94.8167 12.3469C94.8636 12.3808 94.903 12.424 94.9326 12.4737C94.9622 12.5235 94.9812 12.5788 94.9886 12.6362C94.9959 12.6936 94.9914 12.7519 94.9753 12.8075C94.9726 12.8542 94.9602 12.8997 94.939 12.9414C94.9178 12.983 94.8881 13.0198 94.852 13.0495C94.8159 13.0791 94.774 13.1009 94.729 13.1136C94.684 13.1262 94.6369 13.1294 94.5906 13.123Z" fill="black"/>
<path d="M94.3674 14.5156C93.0225 14.4487 91.6925 14.2029 90.4126 13.7846C90.3593 13.7704 90.3094 13.7457 90.2657 13.712C90.222 13.6782 90.1855 13.6361 90.1583 13.5882C90.1311 13.5402 90.1137 13.4872 90.1072 13.4325C90.1006 13.3777 90.1051 13.3222 90.1202 13.2691C90.1336 13.2161 90.1574 13.1663 90.1904 13.1227C90.2234 13.0791 90.2648 13.0426 90.3122 13.0153C90.3596 12.9881 90.4119 12.9706 90.4662 12.9639C90.5204 12.9573 90.5755 12.9617 90.628 12.9767C91.8385 13.3665 93.0966 13.5892 94.3674 13.6384C94.4827 13.6439 94.5919 13.6916 94.6743 13.7725C94.7566 13.8534 94.8062 13.9618 94.8137 14.077C94.7367 14.2924 94.5905 14.5156 94.3674 14.5156Z" fill="black"/>
<path d="M104.924 9.01433C104.924 9.01433 102.162 9.01433 101.408 6.70608C101.327 6.49391 101.277 6.27094 101.261 6.04438C100.528 6.08337 99.7984 5.91943 99.1523 5.57057C98.5061 5.22171 97.9687 4.70145 97.5991 4.06698C97.2935 3.47412 97.1277 2.8192 97.1144 2.15237C97.1011 1.48554 97.2405 0.824512 97.5221 0.219908C97.6837 -0.257129 98.6224 0.11219 98.253 0.658475C98.0305 1.14341 97.9217 1.67281 97.9351 2.20622C97.9484 2.73962 98.0835 3.26292 98.33 3.73614C98.6194 4.22933 99.0386 4.63363 99.5419 4.90498C100.045 5.17632 100.613 5.3043 101.185 5.27497C101.328 4.55555 101.63 3.87728 102.069 3.28988C102.263 3.02251 102.536 2.82428 102.851 2.72442C103.165 2.62456 103.503 2.62835 103.815 2.73524C104.127 2.84213 104.397 3.04646 104.584 3.31809C104.771 3.58973 104.866 3.9143 104.855 4.24395C104.632 5.12108 103.754 6.00591 101.992 6.07516C101.992 7.36778 103.585 8.03717 104.855 8.27569C105.162 8.3911 105.501 9.01433 104.924 9.01433ZM102.877 3.73614C102.539 4.13499 102.311 4.61497 102.216 5.12878C103.531 4.98259 104.116 4.35936 104.193 3.95927C104.208 3.66689 103.608 3.00519 102.877 3.73614Z" fill="#FF7449"/>
<path d="M136.077 47.8699C134.783 47.8743 133.532 47.4034 132.561 46.5465C131.524 45.6925 130.823 44.4984 130.584 43.1765C130.584 43.0602 130.63 42.9486 130.712 42.8664C130.794 42.7841 130.906 42.7379 131.022 42.7379C131.139 42.7379 131.25 42.7841 131.332 42.8664C131.415 42.9486 131.461 43.0602 131.461 43.1765C131.703 44.2642 132.295 45.2426 133.146 45.9618C133.666 46.4152 134.283 46.7439 134.95 46.9225C135.617 47.1012 136.316 47.1253 136.993 46.9928C137.446 46.9329 137.876 46.7551 138.239 46.4773C137.78 46.1992 137.384 45.8261 137.081 45.3829C136.777 44.9397 136.571 44.4366 136.477 43.9074C136.393 42.7379 137.247 41.3453 138.893 42.3686C140.009 43.0765 140.14 45.2693 139.486 46.2157C139.555 46.2157 142.363 47.9238 145.857 44.4614C145.939 44.3905 146.044 44.3514 146.153 44.3514C146.262 44.3514 146.367 44.3905 146.449 44.4614C146.519 44.5426 146.558 44.6464 146.558 44.7538C146.558 44.8612 146.519 44.965 146.449 45.0462C143.425 47.9622 140.732 47.5391 139.409 47.0236C139.263 46.9543 139.117 46.9543 138.97 46.8774C138.164 47.5586 137.132 47.9128 136.077 47.8699ZM137.293 43.7612C137.387 44.1851 137.574 44.5828 137.84 44.9259C138.106 45.2691 138.445 45.5493 138.832 45.7463C138.89 45.569 138.962 45.3966 139.047 45.2308C139.601 42.8149 137.178 41.93 137.293 43.7612Z" fill="#FF7449"/>
</svg>
