<svg width="148" height="138" viewBox="0 0 148 138" fill="none" xmlns="http://www.w3.org/2000/svg">
<path d="M1.11201 124.511C0.727303 125.2 1.55212 128.974 8.94774 133.318C17.0404 138.067 22.1817 136.622 22.7203 135.897C25.7079 131.84 29.782 115.572 29.3249 113.755C28.9579 112.298 16.9497 105.918 15.3708 105.788C13.5981 105.643 1.99222 122.939 1.11201 124.511Z" fill="#FFB949"/>
<path d="M17.8437 106.679C17.8437 106.679 24.2853 109.97 27.6484 112.213C29.23 111.528 30.691 110.593 31.9756 109.443C31.9756 109.443 41.2624 113.698 41.4109 113.617C43.7068 112.359 50.1669 108.501 58.415 87.9768C62.1543 78.7458 64.7116 69.0792 66.026 59.2068C66.026 59.2068 53.2445 57.698 46.6522 56.7354C41.1686 55.8229 35.7355 54.6292 30.3744 53.1592L22.4679 73.4671C20.2766 79.0893 11.9946 91.1637 8.58765 96.111C8.58765 96.111 11.3575 99.2095 17.7291 102.102L17.8437 106.679Z" fill="white"/>
<path d="M21.5544 89.4278L21.6491 84.6628L40.6767 85.4653C39.1068 86.8534 37.6597 88.3745 36.3518 90.0118L21.5544 89.4278Z" fill="#FF7449"/>
<path d="M43.5697 85.6223L46.5266 85.8424L45.1416 86.9326L46.0411 88.0098L44.9077 88.8185L46.3696 90.0611L43.115 90.3127C43.115 90.3127 44.8754 87.305 43.5697 85.6223Z" fill="#FF7449"/>
<path d="M48.788 86.5159C48.6008 86.9601 48.5139 87.4402 48.5335 87.9219C48.553 88.4036 48.6786 88.8751 48.9011 89.3027C48.9011 89.3027 51.7318 88.2671 51.748 88.0062C51.7641 87.7454 48.788 86.5159 48.788 86.5159Z" fill="#FF7449"/>
<path d="M50.5814 65.0774C50.5045 65.0774 33.4819 60.8571 32.1231 60.5817C32.0558 60.5661 31.9971 60.5249 31.9597 60.4667C31.9223 60.4086 31.909 60.3381 31.9228 60.2703C31.9365 60.2026 31.9761 60.1428 32.0332 60.1038C32.0903 60.0649 32.1604 60.0497 32.2285 60.0616C33.2118 60.2608 44.1891 62.9615 50.6453 64.5534C50.7058 64.5715 50.758 64.6105 50.7926 64.6633C50.8272 64.7162 50.842 64.7796 50.8343 64.8423C50.8267 64.9051 50.7971 64.9631 50.7508 65.0061C50.7045 65.0491 50.6445 65.0743 50.5814 65.0774Z" fill="black"/>
<path d="M61.3157 63.888C61.2857 63.8641 55.1181 62.3769 54.6272 62.6569C54.5949 62.6757 54.5669 62.7009 54.5448 62.7309C54.5227 62.761 54.507 62.7952 54.4987 62.8316C53.1137 69.2108 52.8383 69.1362 53.1137 69.3608C53.1907 69.4255 59.5183 70.9958 59.8846 70.6419C60.1977 70.3403 61.4234 64.5381 61.4234 64.1511C61.4268 64.1019 61.4189 64.0526 61.4002 64.007C61.3815 63.9614 61.3526 63.9207 61.3157 63.888ZM59.5183 70.1972C58.7074 70.1441 54.5818 69.257 53.5884 68.9761C53.71 68.476 54.0432 67.0957 54.9688 63.1524C55.909 63.2294 60.1931 64.0757 60.8933 64.2673C60.8148 65.1237 59.7915 69.3778 59.5183 70.1972Z" fill="black"/>
<path d="M58.4948 73.8219C58.4564 73.7842 52.2626 72.0622 51.8063 72.32C51.7733 72.3378 51.7446 72.3628 51.7222 72.3929C51.6999 72.4231 51.6845 72.4578 51.677 72.4946C51.1084 74.906 50.2444 78.573 50.1982 78.7269C50.1697 78.78 50.1602 78.8412 50.1712 78.9004C50.1823 78.9596 50.2133 79.0132 50.259 79.0524C50.336 79.1293 56.5421 80.9167 57.046 80.6151C57.4307 80.3496 58.5933 74.222 58.601 74.1612C58.6092 74.1003 58.6039 74.0384 58.5856 73.9798C58.5672 73.9211 58.5363 73.8672 58.4948 73.8219ZM56.7198 80.1388C54.7045 79.7585 52.7101 79.2749 50.7445 78.69C50.8738 78.1975 51.2062 76.8095 52.1472 72.8209C53.0951 72.9347 57.3646 73.9658 58.0717 74.1935C57.7253 76.1975 57.2741 78.182 56.7198 80.1388Z" fill="black"/>
<path d="M56.6235 68.4667C56.2103 68.4667 55.8541 67.2979 55.7125 66.2515C55.708 66.1835 55.7297 66.1164 55.7731 66.0639C55.8166 66.0115 55.8785 65.9777 55.9462 65.9695C56.0138 65.9613 56.082 65.9794 56.1367 66.0199C56.1914 66.0605 56.2285 66.1206 56.2403 66.1877C56.325 66.7439 56.4665 67.2902 56.6627 67.8173C57.0782 67.3872 58.1154 66.1346 59.0341 64.9758C59.0778 64.9206 59.1418 64.8851 59.2117 64.877C59.2817 64.8689 59.352 64.889 59.4072 64.9327C59.4624 64.9765 59.498 65.0404 59.5061 65.1104C59.5142 65.1804 59.4941 65.2507 59.4503 65.3059C57.0205 68.3682 56.7758 68.4667 56.6235 68.4667Z" fill="#FF7449"/>
<path d="M53.7199 78.1829C53.2159 78.0683 52.8789 75.9939 52.8735 75.9732C52.8662 75.9039 52.8865 75.8346 52.93 75.7803C52.9735 75.7259 53.0368 75.691 53.1059 75.6831C53.175 75.6748 53.2446 75.6939 53.2997 75.7363C53.3548 75.7788 53.391 75.8412 53.4006 75.9101C53.4891 76.4917 53.6445 77.0611 53.8622 77.6074C54.7273 76.7181 55.5056 75.7483 56.1867 74.7113C56.2275 74.6536 56.2894 74.6144 56.359 74.6021C56.4286 74.5909 56.4998 74.6074 56.5573 74.6481C56.6149 74.6888 56.6542 74.7504 56.6668 74.8198C56.6789 74.8895 56.6628 74.9612 56.6221 75.0191C56.2397 75.5684 54.3624 78.3283 53.7199 78.1829Z" fill="#FF7449"/>
<path d="M48.8295 99.1155C47.0964 98.0052 45.3027 96.9926 43.4567 96.0824C42.925 95.8516 42.8757 95.8793 42.6642 96.3017L39.6003 101.474C39.5707 101.524 39.5564 101.581 39.5592 101.639C39.5619 101.697 39.5816 101.753 39.6157 101.8C39.8019 102.037 44.8785 105.068 45.394 105.068C45.9095 105.068 48.8279 99.6956 48.8903 99.4109C48.9084 99.3083 48.8866 99.2026 48.8295 99.1155ZM45.3333 104.514C44.6508 104.257 41.0114 102.129 40.1697 101.557C40.6621 100.73 42.4295 97.7274 43.1573 96.4995C43.9837 96.8326 47.6315 98.9408 48.3363 99.4032C47.4291 101.16 46.4266 102.867 45.3333 104.514Z" fill="black"/>
<path d="M66.1759 59.1483C65.7958 58.2366 46.4019 57.7711 30.6035 52.9453C30.0726 52.786 29.7241 53.567 27.4343 59.937C25.7277 64.6843 23.3926 71.1827 21.2613 75.1106C17.2803 82.4201 10.3948 93.3711 8.55207 95.5624C8.45817 95.6878 8.40871 95.8409 8.4115 95.9975C8.41428 96.1541 8.46916 96.3053 8.56746 96.4273C9.28763 97.663 13.0185 99.9604 17.4619 102.379C17.485 104.041 17.5304 105.466 17.5612 106.263C15.8415 105.469 15.0167 105.186 13.7772 106.527C9.29781 112.016 5.10135 117.73 1.20415 123.647C-1.63191 127.901 13.2647 138.834 21.9137 136.758C25.5154 135.859 29.6233 114.937 29.6556 114.722C29.8356 113.501 29.2586 112.959 28.253 112.227C29.6375 111.599 30.9124 110.752 32.0292 109.72C32.6632 110.021 40.7829 113.883 41.5008 113.883C42.7749 113.648 50.9338 108.098 58.8588 87.4336C64.811 71.926 66.4721 59.8839 66.1759 59.1483ZM28.1468 112.807C29.1178 113.519 29.2309 113.951 29.1324 114.653C28.7992 116.935 24.6813 135.522 21.7845 136.242C13.3348 138.332 -0.75247 127.495 1.64349 123.932C8.26046 114.102 13.7841 107.317 14.1711 106.893C14.3889 106.542 14.7306 106.287 15.1283 106.177C15.526 106.068 15.9505 106.112 16.317 106.301C19.3531 107.308 28.0252 112.716 28.1468 112.807ZM27.7221 111.896C25.6593 110.6 20.7758 107.862 18.099 106.535C18.0359 103.842 17.8197 97.8468 18.1759 94.1067C18.3144 92.4925 18.7999 90.9267 19.6016 89.5187C19.9913 89.6857 20.414 89.761 20.8373 89.7387C21.626 89.7233 26.9157 89.898 31.1352 90.0342C29.5125 92.8403 30.5197 93.5458 30.7866 93.7051C32.0608 94.4476 34.6645 92.541 35.9656 90.9598C39.5764 86.5741 40.5051 85.9517 40.8421 85.7424C41.1337 85.5623 42.401 84.6891 43.3743 85.9094C44.9077 87.8329 42.2617 90.9252 40.6598 92.7795C39.8026 93.7712 36.9766 96.5334 36.2841 98.8579C35.4139 101.809 35.3608 108.489 27.7221 111.896ZM19.2746 86.0078C19.3808 85.1507 20.2456 84.9991 21.3521 84.9914C21.3521 85.0684 21.3221 88.7131 21.3221 89.2155C21.1397 89.2078 20.8366 89.2078 20.8366 89.2078C19.5624 89.2155 19.3577 88.6846 19.3047 88.116C19.2443 87.4149 19.2343 86.7104 19.2746 86.0078ZM39.9919 85.6893C39.6665 85.9478 39.3548 86.2233 39.0586 86.5157L21.8753 85.9171C21.883 85.5831 21.883 85.2723 21.883 84.9938C22.6693 84.9914 34.566 85.3569 39.9919 85.6893ZM23.3464 84.4582C25.053 83.298 29.2994 80.7427 31.3391 80.872C32.4386 80.9397 34.9946 81.7514 40.9168 85.0953C40.8483 85.1261 40.7198 85.2015 40.7198 85.2015C34.7668 84.8245 27.6536 84.4605 23.3464 84.4605V84.4582ZM38.5585 87.0296C38.1803 87.4287 37.8162 87.8408 37.4667 88.2653L21.8607 87.5982C21.8683 87.2266 21.8683 86.8288 21.8753 86.4441L38.5585 87.0296ZM37.042 88.7808C36.8219 89.054 36.3441 89.6533 36.3218 89.6833C34.8599 89.6303 25.1822 89.2986 21.8568 89.2217C21.8568 89.0093 21.8568 88.6146 21.8645 88.1299L37.042 88.7808ZM31.1729 91.0937C31.3499 90.7351 31.5499 90.3881 31.7715 90.055C33.5765 90.1158 35.1154 90.1765 35.904 90.1988C35.7832 90.3527 35.07 91.1545 34.8045 91.3968C33.6033 91.2051 32.3893 91.1046 31.1729 91.096V91.0937ZM34.3198 91.8369C33.0118 92.9364 31.6545 93.5296 31.059 93.2396C30.5812 93.0088 30.8282 92.0647 30.9675 91.6323C32.087 91.6377 33.2049 91.7069 34.3167 91.8392L34.3198 91.8369ZM51.9879 88.1514C52.0138 88.1004 52.0261 88.0436 52.0235 87.9864C52.0209 87.9292 52.0036 87.8737 51.9733 87.8252C51.6655 87.3405 49.4704 86.491 47.8707 85.9901C48.0831 85.5054 48.3178 84.9668 48.5832 84.3521C49.4704 84.5721 53.4305 86.104 54.123 86.4379C53.4185 88.3333 52.5978 90.1834 51.6655 91.9777C51.0969 91.8108 48.8071 90.8175 47.3437 90.1581C48.7579 89.7464 51.7301 88.7154 51.9879 88.1537V88.1514ZM48.9925 86.9304C49.8319 87.2101 50.6421 87.5709 51.4116 88.0076C50.6676 88.4146 49.8881 88.7547 49.0841 89.0239C48.9078 88.7063 48.8077 88.3521 48.7918 87.9891C48.7759 87.6262 48.8446 87.2645 48.9925 86.9327V86.9304ZM48.4924 86.7488C48.3209 87.1387 48.2381 87.5618 48.2499 87.9876C48.2618 88.4133 48.368 88.8312 48.5609 89.2109C47.7269 89.4987 46.4904 89.8265 46.4296 89.8326L45.2316 88.8847C45.2316 88.8847 46.3642 88.3615 46.3858 88.0883C46.3858 87.8467 45.4679 87.0273 45.4679 87.0273C45.8526 86.7688 46.6512 86.1702 46.6512 86.1702C46.7936 86.2125 48.2116 86.6526 48.4924 86.7511V86.7488ZM44.7161 88.5761L44.1168 88.5531C44.2621 88.1282 44.34 87.6832 44.3476 87.2343L44.9393 87.2489L45.6971 88.0076L44.7161 88.5761ZM44.947 86.718L44.303 86.6957C44.2406 86.4404 44.1543 86.1915 44.0452 85.9524C44.6815 85.9978 45.304 86.0355 45.9103 86.074C45.6033 86.3118 45.2801 86.528 44.9431 86.7203L44.947 86.718ZM44.6438 89.107L45.6602 89.9034C44.9093 89.9565 43.9767 89.9942 43.4689 90.0096C43.6466 89.711 43.8013 89.3994 43.9306 89.077L44.6438 89.107ZM39.5657 94.8169C39.8857 94.4322 40.8467 93.365 40.8621 93.3458C41.6831 93.4727 42.5179 93.4835 43.342 93.3765C42.8626 95.05 41.2599 95.2347 39.5595 94.8192L39.5657 94.8169ZM40.6806 95.5224C40.5074 96.6358 39.5711 97.4875 37.6698 97.2151C38.1345 96.5343 38.6383 95.881 39.1787 95.2585C39.6647 95.407 40.1669 95.4964 40.6744 95.5247L40.6806 95.5224ZM41.3022 92.868C41.9642 92.1353 42.5809 91.3629 43.1488 90.5551C43.3381 90.5405 44.226 90.5097 45.0901 90.4643C45.1714 90.7874 45.1665 91.1261 45.0761 91.4467C44.9856 91.7674 44.8127 92.0587 44.5746 92.2917C43.9167 93.0095 42.2563 92.9618 41.2961 92.8703L41.3022 92.868ZM58.3717 87.2412C49.7343 109.74 41.4838 113.343 41.4692 113.351C41.0745 113.29 37.3213 111.644 32.4301 109.323C36.675 104.998 35.9486 99.8481 37.3813 97.6983C39.2925 98.0646 40.946 97.4067 41.2184 95.5301C41.8703 95.5369 42.503 95.3094 43.0013 94.889C43.4996 94.4686 43.8305 93.8833 43.9336 93.2396C44.5184 93.0729 45.0181 92.6907 45.3323 92.1702C45.6464 91.6496 45.7515 91.0293 45.6264 90.4343C45.7033 90.4343 46.535 90.3573 46.612 90.3427C48.1508 91.086 51.2454 92.5194 51.8217 92.5194C52.3087 92.5194 54.5877 86.8296 54.6685 86.4833C54.6926 86.4247 54.7004 86.3606 54.6911 86.2979C54.6817 86.2352 54.6556 86.1762 54.6154 86.1271C54.5777 86.0886 48.8217 83.6096 48.3285 83.8142C48.1877 83.8766 48.2516 83.785 47.3729 85.8309C46.1394 85.5609 44.8822 85.4138 43.6197 85.3915C43.3554 85.123 43.0237 84.9305 42.6594 84.8344C42.2951 84.7383 41.9116 84.742 41.5492 84.8453C36.4988 81.9715 33.0787 80.455 31.3806 80.3411C30.2597 80.3841 29.1609 80.6659 28.1575 81.1674C27.5736 81.0313 25.0099 79.9802 24.0704 79.5601C24.0385 79.5455 24.004 79.5376 23.9689 79.5368C23.9339 79.536 23.899 79.5424 23.8665 79.5555C23.8341 79.5685 23.8046 79.5879 23.7796 79.6123C23.7547 79.6368 23.7349 79.666 23.7213 79.6982C23.7077 79.7304 23.7006 79.7649 23.7005 79.7999C23.7003 79.8348 23.707 79.8694 23.7203 79.9018C23.7338 79.9341 23.7536 79.9634 23.7786 79.988C23.8036 80.0126 23.8332 80.0319 23.8657 80.0449C23.9796 80.098 26.2317 81.0613 27.4374 81.4937C25.6841 82.3317 24.0103 83.3265 22.4362 84.4659C20.9604 84.4659 18.9546 84.292 18.7584 85.9371C18.7091 86.6772 18.7199 87.4205 18.7884 88.1591C18.7976 88.5369 18.9399 88.9001 19.1908 89.1832C18.3169 90.6689 17.7908 92.3333 17.6519 94.0513C17.455 96.1518 17.4319 99.1772 17.455 101.763C12.3137 98.9502 9.31841 96.9405 8.97679 96.0456C8.93909 95.9395 8.9614 95.9164 8.96909 95.9095C10.8272 93.6951 17.7404 82.6994 21.7314 75.3591C25.413 68.5806 29.5317 54.6919 30.5504 53.4839C44.9924 57.8696 63.9038 58.8875 65.6835 59.4215C65.7289 60.7087 64.1062 72.2822 58.3656 87.2435L58.3717 87.2412Z" fill="black"/>
<path d="M47.0807 75.2192C47.0038 75.2192 29.9804 70.999 28.6217 70.7235C28.5543 70.708 28.4957 70.6667 28.4582 70.6086C28.4208 70.5504 28.4076 70.48 28.4213 70.4122C28.435 70.3444 28.4747 70.2847 28.5318 70.2457C28.5889 70.2067 28.6589 70.1915 28.7271 70.2034C29.7104 70.4027 40.6876 73.1033 47.1438 74.6953C47.2052 74.7124 47.2585 74.751 47.2939 74.804C47.3293 74.857 47.3446 74.921 47.337 74.9843C47.3294 75.0476 47.2993 75.1061 47.2523 75.1492C47.2053 75.1923 47.1444 75.2171 47.0807 75.2192Z" fill="black"/>
<path d="M122.072 94.6638C111.252 103.66 98.7316 116.669 96.9119 117.665C96.9119 117.665 71.9367 105.578 64.3726 76.5787C78.6544 69.1022 92.3916 57.4771 95.0545 56.7847C98.0976 62.2182 101.515 67.4333 105.282 72.3923C105.383 72.52 110.985 71.2051 110.985 71.2051C110.985 71.2051 112.986 66.7786 119.156 66.487C124.477 66.2354 125.703 68.6098 125.703 68.6098C125.703 68.6098 131.73 67.4034 132.47 67.7242C133.103 67.9974 133.421 71.222 133.189 71.5713C132.733 72.2638 127.962 73.0063 127.962 73.0063C129.928 77.0345 130.867 81.4859 130.697 85.9648C130.697 85.9648 126.856 87.729 121.379 92.7872C121.201 92.9526 122.072 94.6638 122.072 94.6638Z" fill="white"/>
<path d="M105.547 72.3769L110.364 71.3467C110.364 71.3467 107.287 72.4916 109.832 76.1871C108.746 76.5317 107.612 76.7034 106.473 76.6957L107.588 75.2399L106.016 74.3789L107.163 73.2625L105.547 72.3769Z" fill="#FFB949"/>
<path d="M110.365 71.3467L130.436 67.8027C130.436 67.8027 131.146 71.8806 131.193 72.3661L114.822 75.4169C114.822 75.4169 112.4 71.5167 110.365 71.3467Z" fill="#FFB949"/>
<path d="M102.917 73.781C103.279 74.0906 103.519 74.5195 103.592 74.9902C103.666 75.461 103.569 75.9425 103.318 76.3478C103.318 76.3478 100.33 75.9723 100.349 75.6892C100.368 75.406 102.917 73.781 102.917 73.781Z" fill="#FFB949"/>
<path d="M79.5239 78.3285C88.6707 73.0418 88.6753 71.7615 89.0962 72.3009C89.1181 72.3282 89.1342 72.3597 89.1438 72.3934C89.1533 72.427 89.1559 72.4623 89.1516 72.4971C89.1475 72.5317 89.1365 72.5652 89.1193 72.5956C89.1022 72.6259 89.0791 72.6526 89.0516 72.674C86.1241 74.9452 83.0277 76.9898 79.7894 78.7901C79.7281 78.8253 79.6555 78.8347 79.5873 78.8163C79.5191 78.7979 79.461 78.7532 79.4258 78.692C79.3906 78.6308 79.3812 78.5581 79.3996 78.4899C79.418 78.4217 79.4627 78.3637 79.5239 78.3285Z" fill="black"/>
<path d="M72.9907 82.6262C72.9313 82.6268 72.8735 82.6073 72.8267 82.5708C72.7799 82.5344 72.7468 82.4831 72.7329 82.4254C72.7184 82.368 72.7236 82.3074 72.7478 82.2534C72.7719 82.1994 72.8136 82.1551 72.866 82.1276C72.886 82.1161 74.888 81.0505 77.5787 79.4962C77.6089 79.4785 77.6424 79.4671 77.6772 79.4626C77.712 79.4581 77.7473 79.4607 77.781 79.4701C77.832 79.4835 77.8777 79.5118 77.9124 79.5514C77.9471 79.5911 77.9691 79.6402 77.9757 79.6924C77.9799 79.7272 77.9776 79.7624 77.9688 79.7963C77.9594 79.83 77.9437 79.8615 77.9226 79.8894C77.901 79.917 77.8744 79.9402 77.8441 79.9579C77.6625 80.0602 73.1961 82.6262 72.9907 82.6262Z" fill="black"/>
<path d="M78.2858 91.7585C78.2277 91.7584 78.1713 91.7394 78.1251 91.7042C78.0789 91.669 78.0455 91.6196 78.0301 91.5637C78.0146 91.5077 78.0179 91.4482 78.0395 91.3943C78.0611 91.3404 78.0998 91.2951 78.1496 91.2653C78.2581 91.2022 88.9722 84.7953 95.1191 79.7671C95.1738 79.7264 95.2421 79.7083 95.3099 79.7166C95.3776 79.7249 95.4396 79.759 95.4828 79.8117C95.5261 79.8645 95.5474 79.9319 95.5423 80C95.5371 80.0681 95.506 80.1315 95.4553 80.1772C89.9793 84.392 84.2449 88.26 78.2858 91.7585Z" fill="black"/>
<path d="M98.2052 91.6091C99.2054 90.8097 100.195 90.0233 101.115 89.1316C101.14 89.1072 101.169 89.088 101.202 89.0751C101.234 89.0623 101.269 89.0561 101.304 89.057C101.374 89.0587 101.44 89.0873 101.49 89.137C101.514 89.1618 101.533 89.1913 101.546 89.2237C101.559 89.256 101.565 89.2907 101.564 89.3255C101.563 89.3955 101.534 89.4622 101.484 89.5117C100.55 90.4081 99.5455 91.2144 98.5368 92.0238C98.5096 92.0456 98.4783 92.0618 98.4448 92.0715C98.4113 92.0812 98.3762 92.0842 98.3416 92.0803C98.3069 92.0765 98.2734 92.0658 98.2429 92.049C98.2123 92.0322 98.1854 92.0095 98.1636 91.9823C98.1418 91.955 98.1256 91.9238 98.1159 91.8903C98.1063 91.8568 98.1032 91.8217 98.1071 91.7871C98.111 91.7524 98.1216 91.7189 98.1384 91.6883C98.1553 91.6578 98.1779 91.6309 98.2052 91.6091Z" fill="black"/>
<path d="M85.3075 101.298C85.2488 101.298 85.1917 101.278 85.1455 101.242C85.0992 101.206 85.0663 101.155 85.052 101.098C85.0367 101.042 85.0409 100.982 85.0639 100.928C85.087 100.874 85.1275 100.829 85.179 100.801C89.1317 98.5187 92.9099 95.9469 96.4825 93.1065C96.5097 93.0847 96.541 93.0685 96.5744 93.0588C96.6079 93.0491 96.643 93.0461 96.6777 93.05C96.7123 93.0538 96.7459 93.0645 96.7764 93.0813C96.8069 93.0981 96.8339 93.1208 96.8556 93.148C96.8774 93.1753 96.8936 93.2065 96.9033 93.24C96.913 93.2735 96.916 93.3086 96.9121 93.3432C96.9083 93.3779 96.8976 93.4114 96.8808 93.442C96.864 93.4725 96.8413 93.4994 96.8141 93.5212C91.9899 97.389 85.6083 101.298 85.3075 101.298Z" fill="black"/>
<path d="M93.5663 108.079C93.6479 108.017 101.811 101.77 107.271 95.7194C107.307 95.6827 107.353 95.657 107.403 95.6456C107.453 95.6342 107.505 95.6374 107.553 95.655C107.601 95.6725 107.643 95.7037 107.674 95.7446C107.705 95.7855 107.724 95.8345 107.727 95.8856C107.732 95.9544 107.71 96.0223 107.665 96.0749C102.171 102.163 93.9695 108.439 93.8879 108.502C93.8602 108.523 93.8285 108.539 93.7948 108.548C93.761 108.556 93.7258 108.559 93.6912 108.554C93.6565 108.549 93.6232 108.538 93.5931 108.52C93.5629 108.502 93.5366 108.479 93.5155 108.451C93.4732 108.395 93.4549 108.324 93.4644 108.255C93.4739 108.185 93.5105 108.122 93.5663 108.079Z" fill="black"/>
<path d="M93.9626 69.0447C93.8998 69.0133 93.8517 68.9587 93.8285 68.8925C93.8054 68.8262 93.809 68.7536 93.8387 68.69C93.8617 68.6427 93.8981 68.6033 93.9434 68.5766C93.9887 68.5499 94.0409 68.5372 94.0933 68.5399C94.1281 68.542 94.1621 68.5509 94.1934 68.5661C94.5637 68.7465 94.9407 68.9128 95.3236 69.0647C95.2767 68.4615 95.049 67.0242 94.9189 66.4487C94.9077 66.3816 94.9226 66.3127 94.9605 66.2562C94.9984 66.1997 95.0565 66.1599 95.1229 66.145C95.1893 66.13 95.2589 66.141 95.3174 66.1757C95.3759 66.2105 95.4189 66.2663 95.4375 66.3317C95.4444 66.3625 96.1238 69.3809 95.7145 69.6194C95.4791 69.7556 95.0059 69.5471 93.9626 69.0447Z" fill="#FFB949"/>
<path d="M95.8263 64.1381C95.7768 64.0902 95.7165 64.0549 95.6505 64.035C95.5845 64.0152 95.5147 64.0115 95.447 64.0243C95.3939 64.0474 90.6851 66.6334 90.6851 67.3612C91.6075 69.129 92.7294 70.7854 94.0289 72.2978C94.2151 72.404 94.4336 72.2978 94.6445 72.1916C95.1369 71.9492 99.1486 69.5148 99.1786 69.0747C99.2086 68.6954 96.4449 64.6452 95.8263 64.1381ZM94.249 71.79C93.1398 70.3883 92.1336 68.9082 91.2383 67.3612C92.5893 66.3174 94.0222 65.3841 95.5231 64.5706C96.6734 65.9564 97.703 67.438 98.6008 68.9993C97.2191 70.0324 95.7647 70.9645 94.249 71.7884V71.79Z" fill="black"/>
<path d="M107.421 80.5858C107.379 80.5375 107.328 80.4982 107.271 80.4704C107.214 80.4432 107.151 80.4283 107.087 80.4265C105.48 81.4163 103.999 82.5967 102.675 83.942C102.46 84.2013 102.434 84.2767 102.632 84.5921C103.636 86.0693 104.792 87.4382 106.079 88.677C106.124 88.7077 106.177 88.6877 106.223 88.7147C106.463 88.8616 110.916 85.4469 110.916 84.9991C110.909 84.6052 107.778 80.912 107.421 80.5858ZM106.261 88.1614C105.101 86.952 104.032 85.6596 103.06 84.2944C104.313 83.09 105.657 81.9839 107.08 80.9859C108.237 82.2541 109.323 83.5857 110.333 84.9745C109.053 86.1317 107.692 87.1967 106.261 88.1614Z" fill="black"/>
<path d="M113.161 87.5245C113.055 87.4337 112.964 87.3429 112.813 87.3575C112.472 87.3921 108.164 90.5583 108.331 91.2254C109.324 92.671 110.46 94.0132 111.722 95.2317C111.979 95.4441 112.066 95.4372 112.363 95.2748C113.44 94.687 116.65 92.1394 116.642 91.7486C116.634 91.3577 113.49 87.8207 113.161 87.5245ZM112.062 94.8339C110.911 93.6822 109.849 92.445 108.885 91.133C110.113 89.969 111.423 88.8947 112.805 87.9184C113.959 89.127 115.042 90.4004 116.05 91.7324C114.796 92.8602 113.464 93.8969 112.062 94.8347V94.8339Z" fill="black"/>
<path d="M147.012 98.7179C146.603 96.322 134.864 85.7964 133.894 85.0454C133.226 84.5222 132.756 84.6669 131.626 85.137C131.414 85.2278 131.186 85.3263 130.959 85.4324C130.792 79.2771 129.765 76.1556 128.297 73.1934C129.738 72.9279 131.414 72.5717 131.414 72.5717C134.125 71.9438 133.735 71.5422 133.158 68.5376C132.893 67.1719 131.959 67.3312 130.966 67.5135C130.769 67.5435 128.003 67.9567 125.971 68.2983C124.419 65.9408 115.388 64.0958 110.636 71.0321C110.458 71.0321 105.698 72.0246 105.388 72.1616C101.73 67.2834 98.4131 62.1576 95.463 56.821C94.472 54.9621 83.991 65.6616 64.4255 76.2041C64.3628 76.2493 64.3129 76.3102 64.2809 76.3807C64.2489 76.4511 64.2359 76.5287 64.2432 76.6057C64.2208 78.914 71.0986 103.304 96.6986 117.919C97.9466 118.542 112.789 102.256 121.799 95.2525C124.108 100.341 131.612 112.042 132.764 111.966C140.058 111.457 147.512 101.652 147.012 98.7179ZM114.935 75.1346C114.746 74.8538 114.541 74.566 114.337 74.2775L130.777 71.2821C130.838 71.6384 130.883 71.9423 130.921 72.1393C129.131 72.5578 115.012 75.0569 114.935 75.1338V75.1346ZM116.149 76.7804C115.844 76.3956 115.548 76.0036 115.262 75.6047C115.838 75.4908 117.673 75.1646 119.895 74.7583C120.287 75.1584 120.581 75.6439 120.752 76.1764C119.099 76.3095 116.392 76.7411 116.149 76.7796V76.7804ZM120.888 76.6965C120.888 76.6965 121.295 77.9968 120.29 78.4408C119.195 78.924 117.916 78.5947 116.589 77.2505C117.446 77.1205 119.576 76.7942 120.888 76.6957V76.6965ZM131.065 68.0367C132.157 67.8398 132.476 67.8167 132.642 68.6361C132.858 69.4467 132.99 70.2775 133.037 71.1152C133.044 71.6084 132.468 71.783 131.436 72.0254C131.308 71.2367 130.944 69 130.754 68.0898C130.86 68.066 130.966 68.0514 131.065 68.036V68.0367ZM130.504 69.6525C130.564 70.0164 130.633 70.3958 130.694 70.7597L113.987 73.8004C113.685 73.3827 113.356 72.9851 113.002 72.6101L130.504 69.6525ZM125.339 68.403C121.13 69.1078 115.266 70.1588 111.444 70.8713C114.669 66.0655 122.629 65.7931 125.339 68.403ZM130.22 68.1645C130.273 68.3991 130.334 68.7407 130.41 69.127L112.521 72.1454C112.186 71.8337 111.794 71.5892 111.367 71.4252C115.299 70.6828 128.972 68.3391 130.223 68.1652L130.22 68.1645ZM109.389 71.8038C109.054 72.0514 108.807 72.3994 108.684 72.7971C108.684 72.7971 107.304 73.0326 107.289 73.0402L106.189 72.4486C106.814 72.3131 107.944 72.0854 109.392 71.8046L109.389 71.8038ZM109.889 80.729C109.485 80.3873 109.231 79.8994 109.185 79.3718C109.998 79.5886 110.854 79.5835 111.665 79.3571C112.094 79.8831 112.467 80.4522 112.779 81.0552C112.305 81.2244 111.798 81.2831 111.298 81.2267C110.798 81.1702 110.317 81.0003 109.893 80.7298L109.889 80.729ZM113.029 81.533C113.219 81.897 113.393 82.2686 113.553 82.6402C112.796 82.8734 111.978 82.8056 111.27 82.451C110.956 82.2571 110.71 81.9709 110.565 81.6315C111.384 81.7941 112.229 81.7606 113.033 81.5338L113.029 81.533ZM108.669 78.5C108.111 78.0437 108.404 77.1728 108.479 76.7858C108.646 76.7557 109.579 76.5811 109.723 76.5549C110.193 77.3359 110.762 78.1245 111.323 78.8901C110.88 79.0267 110.412 79.0626 109.954 78.9952C109.495 78.9279 109.057 78.759 108.672 78.5008L108.669 78.5ZM106.963 76.4603L107.732 75.4362C107.755 75.4516 109.029 75.2392 109.029 75.2392C109.149 75.5216 109.283 75.7971 109.431 76.0656C108.64 76.3471 107.805 76.4811 106.966 76.4611L106.963 76.4603ZM106.469 74.3521L107.357 73.5404L108.593 73.3511C108.583 73.822 108.663 74.2905 108.828 74.7314L107.706 74.9507L106.469 74.3521ZM105.492 72.6763L106.773 73.3588L105.818 74.2228C105.786 74.2521 105.761 74.2889 105.747 74.3298C105.733 74.3708 105.729 74.4146 105.735 74.4575C105.742 74.5003 105.76 74.5407 105.786 74.5752C105.812 74.6097 105.847 74.6372 105.886 74.6552C105.886 74.6552 107.137 75.3 107.16 75.3223L106.28 76.4826C105.291 76.4511 103.844 76.2025 103.702 76.2025C103.817 75.9702 103.887 75.7178 103.907 75.4593C103.942 74.8602 103.762 74.268 103.399 73.7904C104.089 73.4029 104.787 73.0317 105.495 72.6771L105.492 72.6763ZM104.233 76.9381C102.896 78.0174 101.502 79.0222 100.055 79.9481C98.9809 78.5973 98.0027 77.1733 97.1272 75.6863C98.4036 74.6039 99.757 73.6157 101.177 72.7294C101.542 73.0879 101.872 73.4819 102.162 73.9043C102.155 73.912 100.029 75.2392 100.069 75.6639C100.072 75.7114 100.085 75.7577 100.107 75.7996C100.129 75.8415 100.161 75.878 100.199 75.9063C101.497 76.2818 102.815 76.578 104.15 76.7935C104.19 76.855 104.213 76.9004 104.236 76.9389L104.233 76.9381ZM102.929 74.0636C103.167 74.343 103.316 74.688 103.355 75.0533C103.394 75.4186 103.322 75.7872 103.149 76.111C102.317 75.9879 101.494 75.8109 100.687 75.5801C100.953 75.3231 102.924 74.072 102.932 74.0643L102.929 74.0636ZM121.265 93.9145C121.341 94.1576 121.446 94.4377 121.572 94.7493C111.12 103.367 97.5296 117.638 96.8972 117.415C71.9104 103.121 64.6917 78.4908 64.7671 76.618C73.1202 72.0102 81.1516 66.8417 88.806 61.1482C91.8921 58.9261 94.5535 57.0079 94.9936 57.0764C97.942 62.4039 101.253 67.5226 104.903 72.3962C104.274 72.704 103.424 73.1657 102.613 73.6396C102.278 73.1588 101.902 72.7073 101.491 72.2901C101.415 72.226 101.323 72.184 101.225 72.1685C100.912 72.0792 96.5771 75.1415 96.5771 75.6193C96.4232 75.8501 99.557 80.5143 100.005 80.5251C100.414 80.5359 104.267 77.6367 104.615 77.3028C104.756 77.1674 104.846 77.0504 104.769 76.8704C105.826 77.0427 106.903 77.0451 107.961 76.8781C107.37 78.5854 108.53 79.0655 108.644 79.1263C108.63 79.5848 108.742 80.0383 108.968 80.4375C109.194 80.8366 109.525 81.1661 109.926 81.3899C110.735 83.8775 113.33 83.2473 113.777 83.1342C114.401 84.7605 115.186 86.3202 116.121 87.7899C117.647 89.6468 119.809 90.8688 122.187 91.2177C120.728 92.5511 120.931 92.8335 121.268 93.9168L121.265 93.9145ZM122.683 90.7753C118.765 90.1336 117.191 88.2554 116.533 87.4614C115.002 85.6186 114.319 82.0955 112.385 79.4464C111.306 78.1058 110.361 76.6627 109.564 75.1377C109.487 74.9699 108.531 73.0356 109.844 72.1193C111.668 70.8474 113.81 74.4729 115.076 76.2672C116.888 78.8062 118.923 79.7026 120.558 78.8909C122.366 77.9922 121.108 75.2362 120.505 74.6368L127.748 73.2949C129.21 76.1941 130.295 79.3972 130.431 85.6779C127.67 87.0873 125.072 88.7976 122.686 90.7776L122.683 90.7753Z" fill="black"/>
<path d="M21.2366 38.9759C21.2366 38.9759 22.9631 41.4157 25.7969 41.2511C28.6307 41.0864 30.8181 39.8446 31.8183 40.1446C32.5216 40.7608 33.4366 41.0799 34.3705 41.0349C35.9016 40.9402 37.2173 40.3962 36.1632 38.3211C36.4865 38.0285 36.7299 37.6581 36.8701 37.2452C37.0104 36.8323 37.0431 36.3904 36.965 35.9613C36.965 35.9613 37.9998 35.0973 37.2781 33.2576C37.2781 33.2576 38.7223 31.0794 35.9432 29.5937C34.3551 28.7473 30.942 29.1843 30.942 29.1843C30.942 29.1843 33.9342 22.3211 30.9104 21.7464C28.3467 21.2586 29.4401 27.8009 27.0734 29.0558C26.5502 29.3336 23.4733 29.8922 21.8129 30.9109L21.2366 38.9759Z" fill="white"/>
<path d="M37.582 33.2098C37.7572 32.9259 37.8747 32.6101 37.9278 32.2807C37.9809 31.9513 37.9685 31.6147 37.8914 31.29C37.8143 30.9654 37.674 30.6591 37.4784 30.3888C37.2829 30.1184 37.036 29.8892 36.7518 29.7144C35.2199 28.618 32.527 28.838 31.3074 28.9196C32.9732 25.0209 33.1125 21.6994 30.9058 21.4316C29.7517 21.2908 28.9053 22.4849 28.6822 24.5647C28.4921 26.3389 27.6819 28.8888 26.6494 29.0611C25.0875 29.3097 23.5717 29.7921 22.1529 30.4923C22.2252 29.5967 22.1622 29.5543 21.9583 29.4982C16.0815 27.8947 6.21756 28.0855 6.11754 28.0909C6.07593 28.0917 6.0351 28.1023 5.99835 28.1218C5.96159 28.1414 5.92994 28.1692 5.90595 28.2032C2.51129 33.0506 3.04218 37.1746 4.08551 39.7829C5.04343 42.1774 6.62458 43.6977 7.17087 43.8078C8.65738 44.1047 20.5902 41.7657 21.385 41.0479C21.592 40.8624 21.462 40.8617 21.4558 39.5283C21.9993 40.1908 22.6891 40.7183 23.4709 41.0691C24.2527 41.42 25.1053 41.5847 25.9615 41.5503C28.8476 41.448 29.9132 40.2246 31.8037 40.4731C33.8519 41.8581 36.2763 41.1017 36.6195 40.3654C36.7375 40.0285 36.7823 39.6704 36.751 39.3148C36.7197 38.9592 36.613 38.6144 36.4379 38.3034C36.6656 38.1595 36.8641 37.9725 37.0219 37.754C37.1908 37.4845 37.3023 37.1831 37.3496 36.8685C37.3969 36.554 37.3788 36.2331 37.2966 35.9259C37.5649 35.532 37.7314 35.0777 37.7812 34.6038C37.831 34.1298 37.7626 33.6509 37.582 33.2098ZM36.1578 40.1061C35.5361 41.1902 31.913 40.7278 31.7537 39.5044C31.7129 39.1897 32.0253 38.9158 32.6116 38.7512C33.7286 38.9966 34.8913 38.9327 35.9747 38.5665C36.1179 38.7933 36.2087 39.0492 36.2404 39.3156C36.2721 39.5819 36.2439 39.852 36.1578 40.1061ZM36.5802 37.4624C35.9747 38.5665 32.0591 38.8558 31.619 37.427C31.509 37.0684 31.7368 36.6514 32.26 36.2629C33.7136 36.8883 35.3559 36.9113 36.8264 36.3267C36.86 36.7214 36.7742 37.117 36.5802 37.4624ZM35.0145 36.2482C33.124 36.2552 31.973 35.7535 31.8499 35.1803C31.8008 34.9363 31.8315 34.683 31.9373 34.4578C32.0432 34.2325 32.2186 34.0472 32.4377 33.9292C35.5815 34.8294 36.6964 34.1354 37.1658 33.6599C37.5782 35.2142 36.9326 36.2221 35.0145 36.2482ZM37.2858 32.6751C37.0665 33.0823 36.7293 33.4138 36.3183 33.626C35.9074 33.8383 35.4419 33.9214 34.9829 33.8646C33.371 33.7584 31.3828 33.3991 31.8168 32.018C32.0599 31.2447 34.0642 31.3555 34.7406 31.4371C34.8087 31.4439 34.8769 31.4241 34.9308 31.382C34.9848 31.3398 35.0205 31.2785 35.0304 31.2107C35.0403 31.1429 35.0237 31.0739 34.984 31.0181C34.9444 30.9622 34.8847 30.9238 34.8175 30.9108C34.5043 30.8685 31.7983 30.5407 31.3144 31.851C31.1956 32.1793 31.1969 32.539 31.3182 32.8664C31.4395 33.1937 31.6728 33.4675 31.9768 33.6392C30.6442 34.9556 31.5821 35.7851 31.7837 35.9589C30.2195 37.3162 31.5259 38.2372 31.9307 38.4542C31.7865 38.5019 31.6546 38.5808 31.5444 38.6853C31.4343 38.7898 31.3485 38.9173 31.2932 39.0587C31.238 39.2002 31.2146 39.3521 31.2248 39.5036C31.2349 39.6551 31.2784 39.8025 31.3521 39.9353C30.5274 39.957 29.713 40.1237 28.9461 40.4277C27.9251 40.7763 23.8826 42.2851 21.4643 38.6658C21.8067 33.0652 21.9113 31.8695 22.0944 31.1255C23.5444 30.3535 25.1143 29.8317 26.7379 29.582C28.3536 29.3127 29.0815 25.8211 29.2108 24.6185C29.2816 23.963 29.6062 21.7848 30.8535 21.9579C32.4846 22.1841 32.5062 24.9248 30.6457 29.1081C30.6272 29.1504 30.6199 29.1969 30.6247 29.2429C30.6295 29.2889 30.6462 29.3329 30.6731 29.3705C30.7001 29.4082 30.7363 29.4382 30.7783 29.4576C30.8203 29.477 30.8666 29.4851 30.9127 29.4812C37.7359 28.5872 37.6489 31.8287 37.2858 32.6751Z" fill="black"/>
<path d="M23.858 35.2488C24.6104 35.0871 25.3074 34.7315 25.8799 34.2173C26.4525 33.703 26.8806 33.0481 27.1219 32.3173C27.131 32.2828 27.147 32.2504 27.1689 32.2221C27.1908 32.1938 27.2182 32.1702 27.2494 32.1528C27.2806 32.1353 27.315 32.1243 27.3506 32.1205C27.3861 32.1166 27.4221 32.1199 27.4563 32.1303C27.4906 32.1406 27.5224 32.1578 27.5498 32.1807C27.5773 32.2036 27.5999 32.2318 27.6162 32.2636C27.6325 32.2954 27.6423 32.3302 27.6449 32.3659C27.6474 32.4016 27.6428 32.4374 27.6312 32.4712C27.3677 33.3004 26.8876 34.0442 26.2405 34.6258C25.5934 35.2074 24.8028 35.6057 23.9504 35.7797C23.88 35.792 23.8076 35.7757 23.7491 35.7346C23.6907 35.6935 23.651 35.6308 23.6388 35.5604C23.6265 35.49 23.6427 35.4176 23.6839 35.3592C23.725 35.3008 23.7876 35.2611 23.858 35.2488Z" fill="black"/>
<path d="M117.751 45.9998L119.156 41.7649L121.316 45.8951L125.654 46.5083L122.49 48.8935L123.581 52.9822L119.68 50.7594L115.529 53.5693L116.976 48.9143L113.364 46.6238L117.751 45.9998Z" fill="#FFB949"/>
<path d="M115.483 53.8686C115.44 53.8695 115.396 53.86 115.357 53.8409C115.318 53.8218 115.284 53.7935 115.258 53.7586C115.009 53.4385 116.258 50.0454 116.637 49.049C115.643 48.4912 113.771 47.2532 113.748 47.2362C113.31 46.8992 113.184 46.7277 113.224 46.5299C113.284 46.226 113.476 46.1098 116.835 45.879C117.143 45.8582 117.451 45.8367 117.626 45.8213C117.869 44.8895 118.78 41.5287 119.011 41.3725C119.047 41.3457 119.089 41.3288 119.133 41.3238C119.177 41.3188 119.222 41.3258 119.263 41.3441C119.558 41.5133 121.46 45.6243 121.524 45.7543C121.732 45.7805 125.705 46.2368 125.794 46.3045C125.839 46.3389 125.873 46.3865 125.889 46.4407C125.906 46.4949 125.906 46.5529 125.888 46.6069C124.907 47.4617 123.87 48.2496 122.784 48.9651C123.178 50.0031 123.877 53.0584 123.877 53.0907C123.877 53.1615 123.849 53.2294 123.799 53.2795C123.749 53.3296 123.681 53.3577 123.61 53.3577C123.519 53.3577 119.969 51.2095 119.716 51.0302C118.383 52.0871 116.967 53.0363 115.483 53.8686ZM117.191 49.0644C117.038 49.4114 116.094 52.1005 115.806 53.1607C116.774 52.5814 119.533 50.5293 119.543 50.5193C119.597 50.4699 119.668 50.4437 119.741 50.4465C119.814 50.4492 119.883 50.4806 119.934 50.5339C120.221 50.7448 122.26 52.0043 123.22 52.5714C122.33 48.9982 122.045 48.8605 122.321 48.655C122.404 48.5935 123.994 47.4809 125.026 46.6907C124.395 46.6138 121.326 46.3145 121.162 46.1844C121.042 46.0898 119.607 42.9944 119.209 42.2127C118.868 43.2768 118.132 46.0313 117.992 46.2137C117.405 46.4545 115.706 46.4022 113.914 46.6953C114.562 47.2378 117.034 48.6704 117.046 48.6773C117.113 48.7135 117.164 48.7726 117.191 48.8437C117.218 48.9148 117.218 48.9932 117.191 49.0644Z" fill="black"/>
<path d="M52.2503 123.974L54.1531 121.099L55.4272 124.166L58.3518 125.187L55.8827 126.807L56.8268 130.104L53.5714 128.317L50.1121 129.74L51.417 126.555L49.1057 124.417L52.2503 123.974Z" fill="#FFB949"/>
<path d="M56.9561 130.533C56.7514 130.533 56.2005 130.211 53.5707 128.663C52.3311 129.16 50.1329 130.085 50.0644 130.072C50.004 130.06 49.9496 130.027 49.9104 129.98C49.8712 129.932 49.8495 129.872 49.849 129.811C49.849 129.761 50.6423 127.815 51.1224 126.611C48.8303 124.583 48.8311 124.527 48.8311 124.38C48.8311 124.083 48.8311 124.055 52.178 123.722C53.8846 120.841 53.9692 120.841 54.1531 120.841C54.3678 120.841 54.4501 120.841 55.6919 123.995C58.6696 124.909 58.658 124.99 58.6226 125.25C58.6019 125.396 58.5872 125.493 56.179 126.898C56.5137 128 56.8456 129.103 57.1746 130.207C57.1855 130.279 57.1691 130.352 57.1287 130.412C57.0883 130.473 57.0267 130.516 56.9561 130.533ZM53.5953 128.103C53.643 128.103 53.6891 128.116 53.7299 128.139C54.5663 128.633 55.792 129.347 56.486 129.74L55.6142 126.851C55.508 126.5 55.8797 126.543 57.8548 125.263C55.6635 124.451 55.348 124.566 55.2495 124.308C54.8356 123.258 54.3662 122.118 54.12 121.583C52.6035 123.865 52.6581 124.207 52.3665 124.238C51.4786 124.326 50.2699 124.457 49.6305 124.546C51.5686 126.365 51.8041 126.34 51.6864 126.635C51.3384 127.523 50.9816 128.408 50.6161 129.289C50.7607 129.227 53.4791 128.103 53.5953 128.103Z" fill="black"/>
<path d="M61.104 124.291L64.3279 123.851L65.6859 120.842L67.1108 123.804L70.2716 124.369L67.9918 126.225L69.3237 129.826L65.9313 128.096L62.4089 129.826L63.5884 126.461L61.104 124.291Z" fill="#FFB949"/>
<path d="M69.4022 130.104C69.1883 130.104 68.5928 129.787 65.9252 128.362C64.6595 128.977 62.4282 130.102 62.3605 130.096C62.3021 130.088 62.2479 130.061 62.2062 130.02C62.1645 129.978 62.1376 129.924 62.1297 129.865C62.1228 129.811 62.8614 127.808 63.3146 126.546C60.8217 124.525 60.8148 124.469 60.7986 124.338C60.7904 124.265 60.8114 124.192 60.8571 124.135C60.9402 124.031 60.9971 123.962 64.1656 123.645C65.3597 120.556 65.4467 120.547 65.6344 120.525C65.8652 120.504 65.9422 120.483 67.2709 123.582C70.5848 124.044 70.5833 124.121 70.5794 124.397C70.5748 124.545 70.5717 124.642 68.332 126.321C68.6043 127.053 69.5877 129.697 69.61 129.754C69.6253 129.791 69.6319 129.83 69.6292 129.87C69.6265 129.909 69.6146 129.948 69.5944 129.982C69.5742 130.016 69.5462 130.044 69.5129 130.066C69.4795 130.087 69.4416 130.1 69.4022 130.104ZM65.9306 127.802C65.9745 127.802 66.0176 127.812 66.056 127.832C66.9124 128.29 68.1604 128.952 68.879 129.32L67.7611 126.32C67.6433 126.002 67.938 126.036 69.7877 124.52C69.2037 124.406 68.0811 124.232 67.0493 124.089C66.7416 124.048 66.857 123.738 65.6767 121.333C64.5818 123.809 64.7011 124.125 64.3802 124.159C63.49 124.247 62.2836 124.379 61.6273 124.467C63.7863 126.309 63.9825 126.26 63.877 126.55C63.5556 127.457 63.2267 128.362 62.8907 129.264C63.0499 129.177 65.8044 127.802 65.9306 127.802Z" fill="black"/>
<path d="M76.3438 123.82L77.568 120.737L78.9206 123.521L82.4899 123.82L80.037 126.241L80.8864 129.826L77.7418 127.861L74.3918 129.748L75.382 126.288L72.9607 124.149L76.3438 123.82Z" fill="#FFB949"/>
<path d="M81.0321 130.248C80.832 130.248 80.3042 129.89 77.7282 128.133C76.5171 128.835 74.4159 130.105 74.3428 130.097C74.2814 130.093 74.2234 130.068 74.1789 130.025C74.1337 129.984 74.1048 129.927 74.0973 129.866C74.0919 129.82 74.6967 127.676 75.0668 126.327C72.6816 124.33 72.4869 124.196 72.7139 123.928C72.8001 123.825 72.8586 123.758 76.1501 123.568C77.2512 120.422 77.3343 120.413 77.5351 120.391C77.759 120.366 77.8428 120.352 79.1339 123.292C82.8494 123.485 82.8471 123.551 82.8379 123.862C82.8379 123.994 82.8317 124.093 80.3442 126.349C80.6393 127.537 80.9386 128.724 81.2421 129.909C81.2524 129.945 81.2551 129.983 81.25 130.02C81.245 130.058 81.2324 130.093 81.2129 130.125C81.1933 130.158 81.167 130.185 81.1358 130.207C81.1046 130.228 81.0693 130.242 81.0321 130.248ZM80.5612 129.402L79.7864 126.318C79.7094 126.014 79.9972 126.041 82.0531 124.021C81.4075 123.954 80.1226 123.867 78.94 123.808C78.623 123.792 78.7369 123.501 77.5859 121.202C76.5556 123.741 76.6964 124.063 76.3548 124.082C75.2953 124.142 74.1335 124.22 73.4903 124.279C75.5677 126.104 75.6962 126.028 75.6223 126.297C75.359 127.275 75.0872 128.251 74.8067 129.225C75.3099 128.917 76.164 128.422 77.6051 127.587C77.8336 127.46 77.7959 127.571 80.5589 129.405L80.5612 129.402Z" fill="black"/>
<path d="M119.367 123.62C119.28 123.988 119.157 125.801 122.829 125.759C126.501 125.717 127.753 125.528 128.092 122.11C128.43 118.693 127.619 115.678 125.764 115.003C124.297 114.464 119.224 113.682 119.202 115.947C119.199 115.947 120.625 118.211 119.367 123.62Z" fill="#FF7449"/>
<path d="M112.086 130.299C111.603 130.256 109.129 129.779 111.912 124.637C111.912 124.637 107.758 125.471 107.54 124.103C107.322 122.734 109.813 122.498 109.813 122.498C109.813 122.498 107.305 122.436 107.242 121.398C107.179 120.36 109.333 120.013 109.333 120.013C109.333 120.013 107.274 119.808 107.367 118.74C107.461 117.671 109.553 117.201 109.553 117.201C109.553 117.201 107.84 116.823 108.217 115.754C108.594 114.684 111.582 114.119 113.988 114.307C116.393 114.496 118.681 114.979 119.198 115.948C120.073 117.594 119.991 122.285 119.011 124.109C119.011 124.109 114.687 125.669 114.302 126.054C113.327 127.027 113.506 130.424 112.086 130.299Z" fill="white"/>
<path d="M127.089 115.515C125.544 113.828 121.143 114.021 119.967 114.465C119.768 114.556 119.591 114.688 119.447 114.852C119.302 115.017 119.195 115.209 119.13 115.418C117.484 113.605 108.551 113.43 108.012 115.706C107.924 115.993 107.949 116.303 108.082 116.572C108.215 116.841 108.447 117.049 108.728 117.152C107.936 117.395 107.1 117.839 107.113 118.643C107.126 118.975 107.252 119.292 107.471 119.542C107.69 119.792 107.987 119.959 108.315 120.015C107.658 120.231 107.013 120.615 107.013 121.306C107.013 122.32 108.071 122.508 108.545 122.614C108.11 122.791 107.183 123.326 107.277 124.099C107.471 125.698 110.565 125.16 111.508 124.96C110.979 125.932 110.602 126.98 110.391 128.066C110.281 128.918 110.518 130.836 112.5 130.529C113.753 130.335 113.592 126.705 114.64 126.115C115.688 125.525 119.183 124.316 119.193 124.306C119.22 124.513 119.288 124.711 119.393 124.891C119.498 125.07 119.638 125.227 119.804 125.352C121.651 126.485 125.866 125.939 126.397 125.758C129.079 124.843 128.845 117.433 127.089 115.515ZM114.369 125.657C113.138 126.457 113.126 129.837 112.382 130.009C112.206 130.052 112.023 130.051 111.848 130.005C111.674 129.959 111.513 129.871 111.381 129.748C110.997 129.399 110.095 128.233 112.248 124.696C112.271 124.655 112.283 124.609 112.283 124.563C112.283 124.516 112.271 124.47 112.247 124.43C112.224 124.39 112.191 124.356 112.15 124.333C112.11 124.309 112.064 124.297 112.017 124.298C111.994 124.298 107.886 125.29 107.791 124.003C107.735 123.243 109.529 122.831 109.992 122.754C110.055 122.74 110.112 122.704 110.15 122.652C110.189 122.6 110.208 122.535 110.202 122.47C110.197 122.406 110.168 122.345 110.121 122.3C110.074 122.255 110.013 122.229 109.948 122.226C109.941 122.227 109.934 122.227 109.926 122.226C109.432 122.226 107.535 122.215 107.535 121.325C107.535 120.555 109.259 120.305 109.852 120.278C109.92 120.274 109.983 120.243 110.029 120.193C110.075 120.143 110.1 120.078 110.1 120.01C110.098 119.942 110.071 119.877 110.024 119.829C109.977 119.78 109.913 119.751 109.845 119.748C109.436 119.741 107.631 119.671 107.635 118.66C107.635 117.786 110.312 117.398 110.312 117.398C110.379 117.39 110.44 117.358 110.484 117.307C110.529 117.257 110.552 117.191 110.55 117.124C110.547 117.056 110.519 116.993 110.471 116.945C110.424 116.898 110.359 116.87 110.292 116.868C110.282 116.868 109.007 116.863 108.652 116.458C108.511 116.298 108.008 115.401 109.967 114.933C112.616 114.299 117.674 114.566 118.746 115.785C120.175 117.412 119.278 123.475 118.817 123.941C118.575 124.147 115.068 125.203 114.369 125.657ZM126.218 125.259C125.342 125.579 121.558 125.892 120.105 124.91C119.629 124.589 119.59 123.552 119.655 123.185C120.155 120.375 120.133 117.297 119.514 116.01C119.563 115.73 119.745 115.116 120.157 114.962C121.181 114.577 125.355 114.403 126.701 115.874C128.262 117.585 128.447 124.439 126.215 125.263L126.218 125.259Z" fill="black"/>
<path d="M125.672 35.1133C125.615 35.1128 125.561 35.0944 125.515 35.0608C125.47 35.0273 125.436 34.9802 125.419 34.9263C125.403 34.8723 125.405 34.8145 125.423 34.7612C125.442 34.7079 125.476 34.6618 125.522 34.6293C126.447 33.9715 127.298 33.2162 128.062 32.3765C128.109 32.3265 128.174 32.297 128.244 32.2942C128.313 32.2913 128.38 32.3153 128.432 32.3611C128.483 32.4072 128.515 32.4716 128.519 32.5406C128.524 32.6096 128.502 32.6777 128.457 32.7304C127.68 33.6867 126.737 34.4941 125.672 35.1133Z" fill="black"/>
<path d="M126.255 37.9055C126.19 37.9046 126.127 37.8796 126.079 37.8353C126.031 37.791 126.001 37.7305 125.995 37.6654C125.989 37.6005 126.007 37.5355 126.045 37.4828C126.084 37.43 126.14 37.3932 126.204 37.3792C127.342 37.1292 128.443 36.7267 129.474 36.1835C129.535 36.1554 129.604 36.1512 129.668 36.1719C129.731 36.1927 129.785 36.2367 129.817 36.2952C129.85 36.3537 129.859 36.4223 129.843 36.4872C129.827 36.5522 129.787 36.6086 129.731 36.6452C128.664 37.284 127.484 37.7118 126.255 37.9055Z" fill="black"/>
<path d="M110.66 35.8765C109.643 34.9388 108.678 33.946 107.77 32.9027C107.747 32.876 107.73 32.8452 107.72 32.8119C107.709 32.7787 107.706 32.7437 107.709 32.709C107.712 32.6743 107.722 32.6406 107.738 32.6098C107.754 32.579 107.777 32.5517 107.803 32.5295C107.858 32.4846 107.927 32.463 107.997 32.4693C108.067 32.4757 108.132 32.5095 108.177 32.5634C109.074 33.5872 110.024 34.5632 111.023 35.4871C111.269 35.7203 110.912 36.1134 110.66 35.8765Z" fill="black"/>
<path d="M109.263 38.5994C107.854 38.4021 106.515 37.8606 105.365 37.0228C105.325 36.988 105.297 36.9421 105.284 36.8911C105.271 36.84 105.273 36.7863 105.291 36.7366C105.303 36.7038 105.321 36.6738 105.345 36.6481C105.392 36.5963 105.458 36.565 105.527 36.5608C105.597 36.5566 105.666 36.58 105.718 36.6258C106.344 37.1898 107.423 37.6261 109.323 38.0723C109.358 38.0763 109.391 38.087 109.422 38.1039C109.452 38.1208 109.479 38.1435 109.501 38.1707C109.522 38.198 109.539 38.2293 109.548 38.2627C109.558 38.2962 109.561 38.3313 109.557 38.3659C109.553 38.4005 109.542 38.434 109.525 38.4644C109.508 38.4949 109.486 38.5217 109.458 38.5434C109.431 38.5651 109.4 38.5812 109.366 38.5908C109.333 38.6004 109.298 38.6033 109.263 38.5994Z" fill="black"/>
<path d="M109.087 59.5468C109.987 58.793 110.83 57.9726 111.607 57.0924C111.652 57.0388 111.717 57.0053 111.787 56.9993C111.857 56.9932 111.926 57.0152 111.98 57.0602C112.034 57.1053 112.068 57.1698 112.074 57.2397C112.08 57.3096 112.059 57.3792 112.014 57.4332C111.217 58.339 110.352 59.1822 109.426 59.9554C109.386 59.9893 109.337 60.0105 109.284 60.0161C109.232 60.0218 109.179 60.0117 109.133 59.9872C109.086 59.9626 109.048 59.9248 109.023 59.8784C108.998 59.832 108.987 59.7793 108.993 59.7269C108.996 59.6921 109.006 59.6583 109.022 59.6274C109.038 59.5965 109.06 59.5691 109.087 59.5468Z" fill="black"/>
<path d="M111.997 61.8375C112.757 61.0253 113.385 60.0993 113.859 59.093C113.889 59.0314 113.941 58.9837 114.005 58.9602C114.07 58.9366 114.14 58.939 114.203 58.9668C114.265 58.9941 114.315 59.0444 114.342 59.1073C114.368 59.1701 114.369 59.2407 114.345 59.3046C113.849 60.3714 113.184 61.3515 112.377 62.2076C112.34 62.2423 112.293 62.2656 112.243 62.2747C112.193 62.2839 112.141 62.2784 112.094 62.2591C112.047 62.2398 112.006 62.2073 111.977 62.1656C111.948 62.1239 111.931 62.0746 111.929 62.0237C111.927 61.9551 111.951 61.8885 111.997 61.8375Z" fill="black"/>
<path d="M59.262 112.683C58.6804 111.544 58.2163 110.348 57.8771 109.115C57.8619 109.046 57.8746 108.974 57.9124 108.915C57.9502 108.855 58.01 108.813 58.0787 108.798C58.1472 108.784 58.2186 108.797 58.2776 108.834C58.3367 108.872 58.3787 108.931 58.3949 108.999C58.7299 110.193 59.1817 111.351 59.7437 112.456C59.7659 112.503 59.7736 112.556 59.7658 112.608C59.7579 112.66 59.7349 112.709 59.6995 112.748C59.6642 112.787 59.6181 112.815 59.5671 112.827C59.5161 112.84 59.4624 112.838 59.4128 112.82C59.3464 112.796 59.2921 112.747 59.262 112.683Z" fill="black"/>
<path d="M63.2853 110.758C63.0999 106.55 62.9398 104.672 62.9383 104.654C62.935 104.585 62.9583 104.518 63.0033 104.466C63.0483 104.414 63.1115 104.382 63.1799 104.375C63.2486 104.369 63.3171 104.389 63.3708 104.433C63.4244 104.476 63.4589 104.539 63.4669 104.608C63.4669 104.626 63.63 106.514 63.8162 110.734C63.8189 110.804 63.7938 110.873 63.7463 110.925C63.6987 110.977 63.6326 111.008 63.5623 111.011C63.4919 111.014 63.4233 110.989 63.3714 110.942C63.3194 110.894 63.2885 110.828 63.2853 110.758Z" fill="black"/>
<path d="M67.8249 111.849C68.8599 109.953 69.7235 107.968 70.4055 105.919C70.4267 105.851 70.4738 105.796 70.5362 105.763C70.5987 105.731 70.6715 105.724 70.7387 105.745C70.8058 105.767 70.8618 105.814 70.8942 105.876C70.9267 105.939 70.933 106.012 70.9118 106.079C70.2183 108.163 69.3405 110.18 68.2889 112.109C68.2731 112.141 68.2508 112.17 68.2233 112.194C68.1959 112.218 68.1638 112.236 68.1292 112.247C68.0946 112.258 68.0581 112.261 68.022 112.258C67.9859 112.254 67.951 112.243 67.9193 112.225C67.8876 112.207 67.8599 112.183 67.8378 112.155C67.8158 112.126 67.7998 112.093 67.791 112.058C67.7821 112.022 67.7806 111.986 67.7864 111.95C67.7923 111.914 67.8054 111.88 67.8249 111.849Z" fill="black"/>
<path d="M11.5152 56.6723C11.3136 56.4415 11.6975 56.0645 11.953 56.3715C14.8244 59.817 17.7651 56.6254 17.9713 56.2461C17.3481 55.9195 16.8401 55.4094 16.5159 54.7849C16.1917 54.1604 16.067 53.4514 16.1586 52.7537C16.4902 50.3808 18.79 50.2046 19.564 51.8681C19.9795 52.7637 19.968 54.321 18.7854 56.0453C18.8739 56.0807 20.7551 56.8693 22.1239 55.9091C23.9004 54.6626 23.9789 51.3834 23.9789 51.3503C23.9799 51.3067 23.9916 51.264 24.0129 51.226C24.0342 51.1879 24.0646 51.1557 24.1013 51.1322C24.138 51.1086 24.1799 51.0944 24.2234 51.0909C24.2668 51.0873 24.3105 51.0945 24.3506 51.1118C24.3988 51.1328 24.4398 51.1678 24.4681 51.2122C24.4965 51.2566 24.511 51.3084 24.5098 51.3611C24.5098 51.5057 24.4198 54.9273 22.4324 56.3407C21.8276 56.6735 21.1533 56.86 20.4634 56.8853C19.7736 56.9105 19.0874 56.7738 18.4599 56.4861C18.1891 57.0809 14.8867 60.4933 11.5152 56.6723ZM17.9544 51.2988C16.1594 51.2988 16.2709 55.1458 18.2968 55.8183C19.6356 54.2887 19.5263 51.2988 17.9544 51.2988Z" fill="black"/>
<path d="M38.811 18.1823C37.1461 16.8264 35.745 15.1757 34.6777 13.3126C34.6486 13.2502 34.6449 13.1789 34.6674 13.1138C34.6899 13.0487 34.7368 12.9949 34.7982 12.9638C34.8596 12.9326 34.9307 12.9266 34.9965 12.9469C35.0623 12.9672 35.1177 13.0122 35.1509 13.0726C36.1928 14.8662 37.5479 16.4584 39.1518 17.7737C39.2031 17.8198 39.2344 17.8839 39.2394 17.9526C39.2443 18.0214 39.2224 18.0893 39.1783 18.1422C39.1341 18.1951 39.0712 18.2289 39.0027 18.2363C38.9342 18.2438 38.8655 18.2244 38.811 18.1823Z" fill="black"/>
<path d="M42.1956 15.6348C41.5105 13.8326 41.2196 11.9045 41.3423 9.98035C41.3457 9.94565 41.3558 9.91194 41.3722 9.88115C41.3885 9.85036 41.4108 9.82309 41.4377 9.80091C41.4646 9.77872 41.4956 9.76205 41.5289 9.75185C41.5623 9.74165 41.5973 9.73812 41.632 9.74145C41.6667 9.74479 41.7004 9.75492 41.7312 9.77129C41.762 9.78765 41.7893 9.80992 41.8115 9.83682C41.8336 9.86371 41.8503 9.89472 41.8605 9.92806C41.8707 9.9614 41.8742 9.99643 41.8709 10.0311C41.7632 11.8721 42.0423 13.7152 42.6903 15.4417C42.7159 15.5073 42.7144 15.5804 42.6862 15.6449C42.6579 15.7094 42.6051 15.76 42.5395 15.7856C42.4739 15.8112 42.4008 15.8097 42.3363 15.7814C42.2718 15.7531 42.2212 15.7004 42.1956 15.6348Z" fill="black"/>
<path d="M93.3086 0.925116C87.6619 7.01286 80.935 12.0004 73.4692 15.6348C73.8732 15.8987 74.2102 16.2519 74.4549 16.6674C74.4549 16.6674 77.5194 14.3591 80.0339 21.0284C80.0339 21.0284 82.643 18.1769 84.011 22.2441L94.5043 22.9065C94.5043 22.9065 108.738 20.0005 120.397 3.42879C120.397 3.42879 102.916 0.348824 93.3086 0.925116Z" fill="#FFB949"/>
<path d="M44.9539 24.0268C44.9539 24.0268 47.5114 22.915 60.7846 22.8103C60.7846 22.8103 59.822 15.0523 65.2934 17.0028C65.2934 17.0028 67.3054 13.6058 69.756 16.6881C69.756 16.6881 72.105 14.0459 74.4532 16.6673C74.4532 16.6673 77.5594 14.4021 80.0323 21.0284C80.0323 21.0284 82.6206 18.1977 84.0094 22.244C84.0094 22.244 95.3152 22.7418 98.8591 23.4682C98.8591 23.4682 97.578 45.2111 97.4442 53.3538C97.0356 78.1528 99.5116 87.9729 99.4292 88.1545C99.0168 89.0593 44.7138 88.7007 44.4076 88.6892C44.4083 88.6892 44.1944 52.6298 44.9539 24.0268Z" fill="white"/>
<path d="M52.4388 39.5929C52.4588 39.3205 52.3811 36.4837 52.3142 35.1741C51.9533 35.7173 51.4378 36.5383 51.237 36.9299C51.2052 36.9928 51.1497 37.0404 51.0827 37.0623C51.0158 37.0843 50.9428 37.0787 50.88 37.0469C50.8171 37.015 50.7695 36.9595 50.7476 36.8926C50.7256 36.8256 50.7312 36.7527 50.763 36.6899C50.7753 36.666 52.1364 34.2177 52.4935 34.1916C52.532 34.188 52.5708 34.193 52.6072 34.2063C52.6435 34.2196 52.6764 34.2409 52.7035 34.2685C52.9213 34.4878 52.969 39.589 52.9643 39.6383C52.9514 39.7021 52.9154 39.759 52.8632 39.7981C52.811 39.8371 52.7463 39.8556 52.6813 39.85C52.6164 39.8444 52.5558 39.8151 52.5111 39.7677C52.4663 39.7202 52.4406 39.658 52.4388 39.5929Z" fill="#FF7449"/>
<path d="M50.7339 53.0201C50.7339 52.6177 52.7151 50.374 52.9714 49.9563C53.2553 49.4946 53.2214 48.7783 52.5736 48.6659C52.3535 48.6442 52.1336 48.7095 51.9611 48.8479C51.7885 48.9862 51.6769 49.1866 51.6503 49.4061C51.6489 49.4764 51.6196 49.5432 51.569 49.592C51.5184 49.6407 51.4505 49.6674 51.3802 49.6662C50.8285 49.6546 51.2155 48.409 52.1342 48.1674C52.3964 48.1036 52.672 48.1243 52.9218 48.2263C53.1716 48.3284 53.3828 48.5066 53.5253 48.7357C53.6679 48.9648 53.7345 49.233 53.7157 49.5022C53.6969 49.7714 53.5937 50.0277 53.4207 50.2348C53.1429 50.6872 51.5949 52.6054 51.431 52.8262C52.205 52.8939 52.9837 52.8993 53.7585 52.8439C53.828 52.8416 53.8957 52.8667 53.9469 52.9138C53.9981 52.9609 54.0287 53.0262 54.0323 53.0957C54.0358 53.1652 54.0119 53.2333 53.9657 53.2853C53.9196 53.3374 53.8548 53.3692 53.7854 53.374C53.2807 53.3994 50.73 53.5794 50.7339 53.0201Z" fill="#FF7449"/>
<path d="M58.5534 53.1515C58.4855 53.1471 58.4219 53.1169 58.3757 53.067C58.3295 53.0172 58.3042 52.9515 58.3049 52.8835C58.3057 52.8155 58.3326 52.7504 58.3799 52.7016C58.4273 52.6529 58.4916 52.6241 58.5595 52.6213C58.7219 52.6213 74.7996 52.8083 78.7405 52.7568C78.8084 52.7597 78.8726 52.7884 78.92 52.837C78.9675 52.8856 78.9946 52.9504 78.9959 53.0184C78.9969 53.0863 78.9717 53.1521 78.9256 53.202C78.8795 53.252 78.816 53.2824 78.7482 53.2869C75.4289 53.3354 60.6431 53.1845 58.5534 53.1515Z" fill="black"/>
<path d="M83.1323 41.9026C83.0672 41.899 83.0037 41.8812 82.9463 41.8503C82.8888 41.8195 82.8389 41.7764 82.7999 41.7241C82.4922 41.2024 82.7392 33.8214 82.8977 33.4844C82.9185 33.4424 82.9487 33.4056 82.9859 33.377C83.0231 33.3483 83.0663 33.3285 83.1123 33.319C85.4083 32.9605 90.9157 33.2621 91.225 33.5098C91.4382 33.6791 91.4035 41.6402 91.1481 41.8872C90.6826 42.3435 83.5917 41.9934 83.1323 41.9026ZM83.2531 41.3909C84.2641 41.6218 89.9132 41.7756 90.7588 41.4948C90.8665 40.6338 90.9188 34.9379 90.8311 33.9353C88.3501 33.6552 85.8478 33.6166 83.3593 33.8199C83.1919 36.34 83.1559 38.8671 83.2516 41.3909H83.2531Z" fill="black"/>
<path d="M86.6147 39.9022C86.6147 39.9022 86.2069 39.9929 85.2628 37.7062C85.2469 37.6752 85.2372 37.6414 85.2343 37.6066C85.2314 37.5718 85.2354 37.5368 85.2461 37.5036C85.2567 37.4704 85.2738 37.4396 85.2964 37.413C85.3189 37.3864 85.3465 37.3644 85.3775 37.3485C85.4085 37.3325 85.4424 37.3228 85.4771 37.3199C85.5119 37.317 85.5469 37.321 85.5801 37.3317C85.6133 37.3423 85.6441 37.3594 85.6708 37.382C85.6974 37.4045 85.7193 37.4321 85.7353 37.4631C86.0692 38.111 86.4462 38.8157 86.664 39.1897C87.1625 38.428 88.4459 36.2397 88.7414 35.6742C88.7572 35.6431 88.7791 35.6154 88.8057 35.5928C88.8323 35.5702 88.8631 35.5531 88.8964 35.5424C88.9297 35.5318 88.9647 35.5278 88.9995 35.5307C89.0343 35.5337 89.0682 35.5435 89.0992 35.5596C89.1615 35.5921 89.2086 35.6479 89.2301 35.7149C89.2515 35.7819 89.2457 35.8546 89.2138 35.9174C89.1892 35.9574 87.1056 39.9022 86.6147 39.9022Z" fill="#FF7449"/>
<path d="M82.4638 57.177C82.3991 57.1734 82.336 57.1556 82.2789 57.1249C82.2218 57.0942 82.1723 57.0513 82.1337 56.9992C81.8344 56.4906 82.0298 49.4097 82.1822 49.0896C82.2024 49.0472 82.2323 49.0102 82.2694 48.9815C82.3066 48.9527 82.35 48.9331 82.3961 48.9242C84.6928 48.5657 90.1995 48.8696 90.5095 49.115C90.6119 49.1974 90.7504 49.3089 90.7058 54.0454C90.6773 57.0123 90.6088 57.0654 90.4842 57.1616C89.7794 57.7002 83.3909 57.3601 82.4638 57.177ZM82.5853 56.6653C83.5894 56.8961 89.2469 57.0546 90.0933 56.7707C90.1987 55.9243 90.2164 50.5192 90.1179 49.5382C87.6356 49.2591 85.1321 49.2204 82.6423 49.4228C82.4871 51.834 82.4681 54.252 82.5853 56.6653Z" fill="black"/>
<path d="M58.7204 37.8568C58.65 37.856 58.5828 37.8273 58.5336 37.7769C58.4844 37.7266 58.4572 37.6587 58.458 37.5883C58.4588 37.5179 58.4876 37.4507 58.5379 37.4015C58.5883 37.3523 58.6561 37.3251 58.7266 37.3259C58.8889 37.3259 74.9666 37.5137 78.9075 37.4621C78.9754 37.4651 79.0396 37.4937 79.0871 37.5423C79.1345 37.5909 79.1617 37.6558 79.163 37.7237C79.1639 37.7917 79.1388 37.8574 79.0927 37.9074C79.0466 37.9574 78.9831 37.9877 78.9152 37.9923C78.4043 37.9984 58.8612 37.8568 58.7204 37.8568Z" fill="black"/>
<path d="M86.6709 53.2039L88.082 51.7636C88.1312 51.7133 88.1585 51.6455 88.1578 51.575C88.1571 51.5046 88.1284 51.4374 88.0781 51.3881C88.0278 51.3388 87.96 51.3115 87.8896 51.3123C87.8192 51.313 87.7519 51.3417 87.7026 51.392C87.1417 51.9629 86.6824 52.4314 86.3 52.8231C85.9153 52.4314 85.4583 51.9629 84.8966 51.392C84.8722 51.3671 84.8431 51.3472 84.811 51.3335C84.779 51.3198 84.7445 51.3126 84.7096 51.3123C84.6748 51.3119 84.6402 51.3184 84.6078 51.3314C84.5755 51.3444 84.546 51.3637 84.5211 51.3881C84.4962 51.4125 84.4763 51.4416 84.4627 51.4737C84.449 51.5057 84.4418 51.5402 84.4414 51.575C84.4411 51.6099 84.4476 51.6445 84.4606 51.6769C84.4736 51.7092 84.4929 51.7387 84.5173 51.7636L85.9291 53.2039C85.3988 53.6874 84.9076 54.2123 84.4603 54.7735C84.4372 54.8382 84.4402 54.9093 84.4686 54.9718C84.497 55.0343 84.5487 55.0832 84.6127 55.1082C84.6765 55.1336 84.7476 55.1333 84.8112 55.1073C84.8747 55.0813 84.9257 55.0318 84.9535 54.969C85.0066 54.909 85.5937 54.3057 86.3 53.584C87.0055 54.3065 87.5926 54.9097 87.6457 54.969C87.6733 55.0319 87.7243 55.0816 87.7879 55.1076C87.8516 55.1336 87.9228 55.1338 87.9866 55.1082C88.0502 55.0829 88.1017 55.0339 88.1301 54.9715C88.1585 54.9092 88.1616 54.8382 88.1389 54.7735C87.6925 54.2118 87.2016 53.6869 86.6709 53.2039Z" fill="#FF7449"/>
<path d="M55.1118 39.264C55.1077 39.3488 55.0712 39.4287 55.0097 39.4873C54.9482 39.5459 54.8666 39.5785 54.7817 39.5785C54.6969 39.5785 54.6152 39.5459 54.5538 39.4873C54.4923 39.4287 54.4558 39.3488 54.4517 39.264C54.4558 39.1792 54.4923 39.0992 54.5538 39.0407C54.6152 38.9821 54.6969 38.9495 54.7817 38.9495C54.8666 38.9495 54.9482 38.9821 55.0097 39.0407C55.0712 39.0992 55.1077 39.1792 55.1118 39.264Z" fill="#FF7449"/>
<path d="M55.4418 52.9588C55.4418 53.0463 55.4071 53.1301 55.3453 53.192C55.2835 53.2538 55.1996 53.2885 55.1122 53.2885C55.0247 53.2885 54.9409 53.2538 54.879 53.192C54.8172 53.1301 54.7825 53.0463 54.7825 52.9588C54.7825 52.8714 54.8172 52.7875 54.879 52.7257C54.9409 52.6639 55.0247 52.6292 55.1122 52.6292C55.1996 52.6292 55.2835 52.6639 55.3453 52.7257C55.4071 52.7875 55.4418 52.8714 55.4418 52.9588Z" fill="#FF7449"/>
<path d="M120.03 3.49543C115.629 9.96954 109.79 15.3371 102.969 19.1777C100.266 20.7296 97.3643 21.9053 94.3436 22.6723C94.3198 22.677 85.5423 22.0268 84.2127 21.976C83.8318 20.7126 82.3084 18.5329 80.2156 20.6242C78.9076 17.2957 76.6109 15.2198 74.555 16.3854C74.3881 16.1609 74.1902 15.9612 73.9672 15.7922C76.14 14.6827 86.7156 9.04907 93.3387 1.3026C93.3809 1.24869 93.4007 1.18066 93.3941 1.11255C93.3866 1.04489 93.3536 0.982626 93.3019 0.938346C93.2502 0.894065 93.1836 0.871078 93.1156 0.874033C93.0474 0.877629 92.9832 0.907392 92.9363 0.957129C85.9447 9.12986 74.4942 14.9397 73.4209 15.4737C72.8123 15.2076 72.1339 15.1456 71.4871 15.2969C70.8403 15.4482 70.2598 15.8047 69.8323 16.3131C69.3522 15.6499 67.174 13.7879 65.2258 16.7301C64.7653 16.4897 64.2523 16.3674 63.7328 16.3742C63.2134 16.3811 62.7038 16.5169 62.2497 16.7694C60.4555 17.6427 60.457 21.2474 60.5147 22.5085C60.0631 22.4938 45.398 22.9501 44.6301 23.7765C44.1254 24.3197 44.1054 88.4704 44.1031 88.6766C44.1023 88.712 44.1088 88.7471 44.122 88.7799C44.1352 88.8127 44.155 88.8425 44.18 88.8675C44.2049 88.8929 44.2347 88.913 44.2677 88.9264C44.3007 88.9397 44.336 88.9461 44.3716 88.9452C44.4963 88.9452 95.8724 89.4268 99.5826 88.4066C99.7072 88.3727 99.6941 88.1873 99.6726 88.0665C95.6524 65.5419 99.1501 23.3671 99.1232 23.301C99.0609 23.1371 99.0278 23.0901 95.8209 22.8255C104.101 20.3241 113.517 13.831 120.465 3.79781C120.491 3.75456 120.505 3.70479 120.504 3.65426C120.503 3.60374 120.487 3.55455 120.459 3.51241C120.432 3.47026 120.392 3.43689 120.346 3.41618C120.3 3.39547 120.249 3.38827 120.199 3.39541C120.132 3.40585 120.071 3.44165 120.03 3.49543ZM83.8195 22.5539C84.3212 24.6551 83.8495 26.8464 82.3476 26.6233C81.7975 26.541 81.3736 25.5576 81.1512 24.392C80.9335 23.496 80.5556 22.6467 80.0356 21.8852C81.6567 18.7637 83.431 20.9342 83.818 22.5539H83.8195ZM75.8422 16.5439C78.2921 16.6209 79.8286 21.0512 79.8624 21.0835C79.707 21.3205 79.5792 21.5745 79.4816 21.8406C78.9107 21.8252 78.0151 21.846 77.4765 21.8621C77.5573 21.419 77.645 20.9581 77.7465 20.4718C77.7609 20.4028 77.7473 20.331 77.7087 20.272C77.6701 20.2131 77.6097 20.1719 77.5407 20.1575C77.4717 20.1431 77.3999 20.1567 77.3409 20.1953C77.282 20.2339 77.2408 20.2944 77.2264 20.3633C76.8502 22.1753 76.2262 28.8015 74.7928 28.8C72.4845 28.8 72.3114 22.5023 72.8869 20.1056C73.424 17.8612 74.5011 16.4993 75.8422 16.5439ZM71.5904 15.8384C72.0483 15.6997 72.538 15.7073 72.9914 15.8601C73.4447 16.0129 73.8391 16.3033 74.1195 16.6909C71.4866 18.9222 71.6882 25.5207 72.9954 28.0221C72.9754 28.0744 72.226 29.9749 71.2604 29.6148C69.3861 28.9292 68.5374 25.0752 68.6913 21.8014C68.8067 19.3515 69.4022 16.3308 71.5904 15.8361V15.8384ZM66.9586 15.7707C67.427 15.6094 67.9373 15.6179 68.4001 15.7949C68.8628 15.9718 69.2486 16.3059 69.4899 16.7386C67.6957 19.3208 67.8342 24.9829 69.096 27.9028L69.0883 27.9167C69.0829 27.9351 67.9919 30.7274 66.6216 29.4109C65.4905 28.3222 64.5957 25.0675 64.7088 22.6223C64.8319 20.0409 64.9981 16.5124 66.9586 15.7684V15.7707ZM62.4821 17.2495C62.8637 17.03 63.2951 16.9116 63.7353 16.9057C64.1755 16.8998 64.6099 17.0065 64.9973 17.2156C64.4429 18.9546 64.1672 20.7703 64.1802 22.5954C64.1337 24.5625 64.5132 26.5163 65.2928 28.3229C65.1658 28.4822 64.5341 29.2024 63.8078 28.87C60.4963 27.3358 60.2462 18.3344 62.4821 17.2472V17.2495ZM99.1378 87.9519C98.1884 88.6036 46.5098 88.3904 44.6371 88.4135C44.6678 85.9344 44.6371 28.0144 45.2895 24.3212C45.5973 23.4602 60.3116 23.0617 60.5516 23.034C60.9264 27.6297 62.7553 29.07 63.5855 29.3501C63.9263 29.4766 64.298 29.4948 64.6496 29.4021C65.0012 29.3094 65.3156 29.1104 65.5498 28.8323C65.7629 29.2116 67.6272 32.2831 69.413 28.5337C69.8393 29.2839 71.7097 31.8745 73.337 28.5614C73.5092 28.7946 73.7328 28.9848 73.9905 29.1175C74.2482 29.2501 74.533 29.3216 74.8228 29.3262C76.7032 29.3116 77.3834 22.3923 77.3834 22.3923C78.3759 22.3615 79.42 22.3507 79.7463 22.3792C80.1971 23.0067 80.4989 23.7288 80.6288 24.4905C80.7526 25.1452 81.1435 27.1934 82.5931 27.2034C84.6351 27.2173 84.6928 24.0981 84.3497 22.51C87.008 22.63 97.0066 23.4333 98.5985 23.6172C95.8201 60.3414 97.6629 80.497 99.1378 87.9496V87.9519Z" fill="black"/>
</svg>
