<svg width="148" height="140" viewBox="0 0 148 140" fill="none" xmlns="http://www.w3.org/2000/svg">
<path d="M9.57984 99.4358C9.48531 99.4361 9.3925 99.4105 9.31149 99.3618C9.23047 99.313 9.16435 99.2431 9.12027 99.1594C9.07619 99.0758 9.05586 98.9817 9.06146 98.8873C9.06706 98.793 9.09839 98.7019 9.15205 98.6241C9.74773 97.8368 10.4962 97.1779 11.3526 96.6867C12.3407 96.1207 13.4325 95.7591 14.5631 95.6232C15.6937 95.4874 16.8401 95.58 17.9342 95.8957C18.0672 95.9301 18.1814 96.0155 18.2518 96.1335C18.3223 96.2515 18.3433 96.3925 18.3104 96.5259C18.2766 96.6593 18.1913 96.7738 18.0732 96.8444C17.955 96.9149 17.8137 96.9357 17.6802 96.9021C12.5759 95.6134 10.11 99.065 10.0069 99.2104C9.95927 99.2797 9.89553 99.3365 9.82115 99.3758C9.74676 99.415 9.66396 99.4356 9.57984 99.4358Z" fill="#FF3C00"/>
<path d="M16.3522 93.5625C16.2255 93.5626 16.1032 93.5164 16.0083 93.4325C13.3923 91.1174 9.93758 92.6131 9.79216 92.6777C9.66656 92.734 9.52373 92.7382 9.39509 92.6892C9.26645 92.6402 9.16255 92.5421 9.10622 92.4165C9.0499 92.2909 9.04578 92.1481 9.09477 92.0194C9.14376 91.8908 9.24184 91.7869 9.36744 91.7306C9.53748 91.6536 13.5708 89.8901 16.6961 92.6539C16.7744 92.724 16.8296 92.8163 16.8544 92.9184C16.8793 93.0205 16.8727 93.1278 16.8355 93.2261C16.7983 93.3244 16.7322 93.4091 16.646 93.4692C16.5597 93.5292 16.4573 93.5618 16.3522 93.5625Z" fill="#FF3C00"/>
<path d="M14.8411 123.167C14.7112 123.156 14.5902 123.096 14.502 123C14.4139 122.904 14.365 122.778 14.365 122.648C14.365 122.517 14.4139 122.392 14.502 122.296C14.5902 122.2 14.7112 122.14 14.8411 122.129C19.0383 121.584 19.2376 117.716 19.2006 116.907C18.0788 117.445 13.5262 118.061 13.2854 114.533C13.257 114.032 13.3846 113.534 13.6505 113.109C13.9164 112.683 14.3076 112.35 14.7703 112.156C17.6672 110.895 19.6838 114.437 19.9362 115.219C22.5899 113.104 23.3716 109.356 19.9793 105.183C19.8979 105.076 19.8614 104.941 19.8775 104.807C19.8936 104.674 19.9611 104.551 20.0656 104.466C20.1701 104.381 20.3036 104.34 20.4378 104.352C20.572 104.364 20.6964 104.427 20.7849 104.528C24.5727 109.19 23.731 113.856 20.1824 116.33C20.3263 117.446 19.9624 122.787 14.8411 123.167ZM14.3218 114.472C14.3218 116.796 17.8357 116.684 19.0383 115.814C18.8268 115.129 18.4749 114.494 18.005 113.952C16.9116 112.546 14.3218 112.657 14.3218 114.475V114.472Z" fill="#FF3C00"/>
<path d="M78.5885 5.85794C78.4814 5.8573 78.3771 5.8236 78.2899 5.76146C78.2027 5.69931 78.1367 5.61175 78.1011 5.51074C78.0655 5.40972 78.062 5.30018 78.0909 5.19707C78.1199 5.09396 78.18 5.00231 78.2631 4.93464C80.3155 3.27449 82.4697 1.74422 84.7131 0.352772C84.8333 0.285636 84.9752 0.268996 85.1077 0.306512C85.2401 0.344028 85.3523 0.432628 85.4194 0.55282C85.4865 0.673012 85.5032 0.814952 85.4657 0.947413C85.4281 1.07987 85.3395 1.19201 85.2193 1.25914C83.027 2.62441 80.92 4.12217 78.9101 5.74407C78.8189 5.81721 78.7055 5.85734 78.5885 5.85794Z" fill="#FF3C00"/>
<path d="M77.9171 10.0557C77.829 10.0555 77.7425 10.0329 77.6656 9.99003C77.5887 9.94713 77.524 9.88536 77.4776 9.81054C77.4312 9.73572 77.4046 9.65032 77.4003 9.56238C77.396 9.47443 77.4142 9.38685 77.4531 9.30787C77.5048 9.20231 77.5908 9.11741 77.697 9.06705C80.8275 7.67081 84.0893 6.58959 87.434 5.83935C87.5666 5.81496 87.7035 5.84328 87.8156 5.91829C87.9277 5.9933 88.0061 6.10907 88.0341 6.24098C88.0623 6.37272 88.0383 6.51026 87.9671 6.62464C87.8959 6.73902 87.7831 6.82132 87.6525 6.85421C84.3204 7.63639 81.063 8.70763 77.9171 10.0557Z" fill="#FF3C00"/>
<path d="M12.9383 29.7974C12.4128 28.0124 10.2454 21.5285 16.296 18.7179C22.3467 15.9072 48.3099 6.53339 50.1565 5.99249C52.0031 5.45159 57.322 4.38749 60.0073 11.8316C62.6926 19.2757 83.9361 75.1729 84.4232 76.6279C84.9102 78.0829 87.0215 84.3644 80.4045 86.9281C73.7875 89.4918 48.2814 99.2564 45.847 100.093C43.4125 100.929 39.5085 99.8827 37.872 95.7271C36.2354 91.5715 13.5508 31.8802 12.9383 29.7974Z" fill="white"/>
<path d="M115.457 76.7618C114.72 75.7955 114.117 74.7345 113.663 73.6072C113.248 72.3646 113.726 65.7922 107.299 55.8298C100.471 45.2435 73.8866 15.7633 64.9876 19.9959C58.1152 23.2643 69.4587 36.8768 69.4587 36.8768C69.4587 36.8768 83.8767 75.1168 84.423 76.6279C84.9693 78.1391 87.613 84.2259 78.9871 87.5475C71.6169 90.3866 65.7431 92.2855 65.7431 92.2855C65.7431 92.2855 75.6686 104.165 98.3794 104.794C98.3794 104.794 111.71 88.5131 115.704 80.1118C115.956 79.5795 116.065 78.9913 116.022 78.4043C115.978 77.8173 115.784 77.2515 115.457 76.7618Z" fill="#FCCAC2"/>
<path d="M28.7628 79.4409L32.2052 89.3048C32.2052 89.3048 25.2804 90.3651 23.8101 86.3926C22.3397 82.4201 28.7628 79.4409 28.7628 79.4409Z" fill="#FCCAC2"/>
<path d="M22.5507 63.0701L26.4963 73.8157C26.4963 73.8157 17.1332 75.7393 15.2889 70.3534C13.5701 65.3368 22.5507 63.0701 22.5507 63.0701Z" fill="#FCCAC2"/>
<path d="M16.2544 46.7825L20.737 58.7084C20.737 58.7084 8.58021 60.3703 6.81055 54.7205C4.837 48.4206 16.2544 46.7825 16.2544 46.7825Z" fill="#FCCAC2"/>
<path d="M10.7972 31.8818L14.8689 43.4585C14.8689 43.4585 3.32768 44.5164 1.52109 38.765C0.0215009 33.9916 10.7972 31.8818 10.7972 31.8818Z" fill="#FCCAC2"/>
<path d="M46.6917 27.1015C47.0482 27.0075 47.3744 26.8229 47.6387 26.5657C47.9029 26.3085 48.0962 25.9874 48.1997 25.6335C47.0825 24.7102 46.3762 23.1159 46.6232 22.0757C46.6825 21.8399 46.8071 21.6257 46.9827 21.4576C47.1583 21.2895 47.3778 21.1744 47.6159 21.1254C47.854 21.0765 48.1011 21.0957 48.3288 21.1809C48.5565 21.2662 48.7555 21.4139 48.903 21.6071C49.5347 22.3273 49.7255 23.8015 49.4154 25.1887C50.7234 25.9774 51.8368 24.6686 52.0637 24.3178C50.6126 23.1021 50.2333 20.4038 51.5559 20.0352C52.2345 19.8452 52.9062 20.3584 53.2656 21.3432C53.5601 22.1561 53.599 23.0397 53.3771 23.8754C53.7406 23.9515 54.1158 23.9527 54.4797 23.8788C54.8436 23.805 55.1887 23.6577 55.4938 23.446C55.5528 23.412 55.6179 23.3899 55.6855 23.381C55.753 23.3721 55.8217 23.3766 55.8875 23.3943C55.9533 23.4119 56.0149 23.4424 56.069 23.4839C56.123 23.5253 56.1684 23.5771 56.2024 23.6361C56.2365 23.6951 56.2586 23.7602 56.2674 23.8278C56.2763 23.8953 56.2718 23.9639 56.2542 24.0297C56.2365 24.0955 56.2061 24.1572 56.1646 24.2113C56.1231 24.2653 56.0714 24.3106 56.0124 24.3447C55.5728 24.6485 55.0708 24.8501 54.5432 24.9348C54.0156 25.0195 53.4757 24.9851 52.9632 24.834C52.6308 25.3726 50.9404 27.0153 49.0953 26.1859C48.9231 26.6786 48.6246 27.1174 48.2297 27.4586C47.8348 27.7998 47.3572 28.0314 46.8448 28.1302C46.7766 28.1418 46.7067 28.1396 46.6394 28.1238C46.572 28.1081 46.5085 28.079 46.4525 28.0384C46.3965 27.9978 46.3492 27.9464 46.3133 27.8873C46.2774 27.8281 46.2536 27.7624 46.2435 27.694C46.2333 27.6255 46.2368 27.5558 46.254 27.4887C46.2711 27.4217 46.3014 27.3588 46.3431 27.3036C46.3849 27.2484 46.4372 27.2021 46.497 27.1674C46.5569 27.1327 46.6231 27.1103 46.6917 27.1015ZM47.6273 22.3258C47.3918 22.7105 47.8212 23.7169 48.4875 24.4693C48.7991 23.5153 48.2674 21.2763 47.6273 22.3258ZM51.8552 21.0385C50.9573 21.4863 52.5623 23.5214 52.58 23.543C52.6239 23.1983 52.6185 20.6577 51.8521 21.0385H51.8552Z" fill="#FF3C00"/>
<path d="M28.1889 38.7673C28.1031 38.767 28.0187 38.7456 27.9433 38.7048C27.8678 38.664 27.8037 38.6052 27.7565 38.5336C27.7093 38.4619 27.6806 38.3797 27.673 38.2943C27.6653 38.2089 27.6789 38.1229 27.7126 38.044L30.2055 32.2265L28.3704 29.4089C28.2954 29.2936 28.2691 29.1532 28.2976 29.0186C28.326 28.8839 28.4067 28.7661 28.522 28.691C28.6373 28.6159 28.7777 28.5897 28.9123 28.6181C29.047 28.6466 29.1648 28.7273 29.2399 28.8426L31.2265 31.8926C31.2732 31.9641 31.3015 32.046 31.3089 32.1311C31.3163 32.2162 31.3025 32.3019 31.2688 32.3804L28.6659 38.4526C28.626 38.5461 28.5596 38.6257 28.4747 38.6817C28.3899 38.7377 28.2905 38.7674 28.1889 38.7673Z" fill="black"/>
<path d="M38.7567 52.3535C38.6382 52.3522 38.5238 52.3105 38.4323 52.2354C38.3407 52.1602 38.2776 52.0561 38.2533 51.9402C38.229 51.8243 38.2449 51.7035 38.2985 51.5979C38.3522 51.4923 38.4402 51.4082 38.5482 51.3594C45.7973 48.2631 53.2359 45.6305 60.8189 43.4775C60.8846 43.4592 60.9532 43.4541 61.0209 43.4623C61.0885 43.4705 61.1539 43.492 61.2133 43.5255C61.2727 43.559 61.3249 43.6039 61.3669 43.6576C61.4089 43.7113 61.44 43.7727 61.4583 43.8384C61.4766 43.9041 61.4817 43.9727 61.4735 44.0404C61.4653 44.108 61.4438 44.1734 61.4103 44.2328C61.3768 44.2922 61.3319 44.3444 61.2782 44.3864C61.2245 44.4284 61.1631 44.4595 61.0974 44.4778C47.7042 48.214 39.2252 52.3535 38.7567 52.3535Z" fill="black"/>
<path d="M41.1074 59.4061C40.9897 59.4059 40.8755 59.3657 40.7836 59.2921C40.6917 59.2186 40.6276 59.116 40.6016 59.0011C40.5757 58.8863 40.5895 58.7661 40.6409 58.6602C40.6922 58.5543 40.778 58.4689 40.8842 58.4182C48.1128 55.1633 55.5968 52.5081 63.2604 50.4793C63.3895 50.4541 63.5234 50.479 63.6349 50.5488C63.7464 50.6186 63.8272 50.7281 63.8609 50.8553C63.8947 50.9824 63.8788 51.1177 63.8166 51.2336C63.7544 51.3495 63.6504 51.4374 63.5258 51.4796C49.7417 55.1258 41.5744 59.4061 41.1074 59.4061Z" fill="black"/>
<path d="M43.9164 64.7097C43.7958 64.7108 43.6785 64.6699 43.5847 64.594C43.4909 64.5182 43.4263 64.4121 43.4022 64.2939C43.378 64.1757 43.3956 64.0527 43.4521 63.9461C43.5086 63.8395 43.6004 63.7559 43.7117 63.7095C50.8935 60.6712 58.2267 58.0043 65.6824 55.7191C65.7481 55.7 65.8168 55.6941 65.8848 55.7017C65.9528 55.7092 66.0186 55.73 66.0785 55.763C66.1384 55.796 66.1912 55.8404 66.234 55.8938C66.2767 55.9472 66.3085 56.0085 66.3275 56.0742C66.3466 56.1399 66.3525 56.2086 66.345 56.2766C66.3374 56.3446 66.3166 56.4104 66.2836 56.4703C66.2506 56.5302 66.2062 56.583 66.1528 56.6258C66.0994 56.6685 66.0381 56.7003 65.9725 56.7193C54.7944 59.9655 44.278 64.7097 43.9164 64.7097Z" fill="black"/>
<path d="M59.0531 65.5683C58.9309 65.5678 58.8128 65.5241 58.7195 65.445C58.6263 65.366 58.564 65.2566 58.5435 65.1361C58.523 65.0156 58.5457 64.8917 58.6075 64.7863C58.6693 64.6808 58.7664 64.6006 58.8815 64.5596C61.8009 63.5334 64.7357 62.552 67.6852 61.6158C67.7502 61.5952 67.8186 61.5876 67.8866 61.5935C67.9546 61.5993 68.0207 61.6185 68.0813 61.6499C68.1418 61.6813 68.1956 61.7243 68.2395 61.7765C68.2834 61.8287 68.3166 61.889 68.3373 61.954C68.3579 62.019 68.3655 62.0875 68.3596 62.1554C68.3538 62.2234 68.3346 62.2895 68.3032 62.3501C68.2718 62.4106 68.2288 62.4644 68.1766 62.5083C68.1244 62.5522 68.0641 62.5855 67.9991 62.6061C60.9636 64.8328 59.3716 65.5683 59.0531 65.5683Z" fill="#FF3C00"/>
<path d="M46.0717 69.3537C46.0987 69.3422 48.8593 68.2211 53.1019 66.6469C53.2308 66.599 53.3735 66.6044 53.4986 66.6617C53.6236 66.7191 53.7207 66.8238 53.7686 66.9527C53.8164 67.0817 53.8111 67.2244 53.7537 67.3494C53.6964 67.4745 53.5917 67.5716 53.4627 67.6194C49.2356 69.189 46.4895 70.3039 46.461 70.3124C46.3362 70.3534 46.2005 70.3454 46.0813 70.2902C45.9621 70.2349 45.8683 70.1365 45.8189 70.0148C45.7694 69.8931 45.768 69.7571 45.815 69.6344C45.8619 69.5117 45.9537 69.4114 46.0717 69.3537Z" fill="#FF3C00"/>
<path d="M48.5816 77.0696C48.4631 77.07 48.3481 77.0297 48.2559 76.9553C48.1637 76.8808 48.0999 76.7769 48.0753 76.661C48.0502 76.5454 48.0653 76.4247 48.118 76.3188C48.1707 76.213 48.258 76.1282 48.3654 76.0786C48.4985 76.0186 61.7355 69.9887 70.5869 68.0682C70.7213 68.039 70.8619 68.0645 70.9776 68.1389C71.0933 68.2134 71.1748 68.3307 71.2039 68.4652C71.2331 68.5997 71.2077 68.7403 71.1332 68.856C71.0588 68.9717 70.9414 69.0531 70.8069 69.0823C61.6686 71.0651 48.8801 77.0696 48.5816 77.0696Z" fill="#FF3C00"/>
<path d="M35.2468 55.5351C34.6808 55.4398 34.1389 55.2347 33.6518 54.9311C33.5364 54.8655 33.4505 54.7582 33.4118 54.6313C33.373 54.5043 33.3844 54.3673 33.4435 54.2485C33.5025 54.1296 33.6049 54.0379 33.7295 53.9921C33.8541 53.9464 33.9915 53.9501 34.1134 54.0024C34.3912 54.1417 34.6882 54.2771 34.9167 54.371C35.0414 53.65 35.216 52.1243 35.3376 50.797C35.35 50.66 35.4164 50.5336 35.5221 50.4455C35.6278 50.3574 35.7642 50.3149 35.9012 50.3273C36.0382 50.3398 36.1647 50.4061 36.2528 50.5118C36.3409 50.6175 36.3834 50.7539 36.3709 50.8909C35.9893 55.0881 35.86 55.5351 35.2468 55.5351Z" fill="#FF3C00"/>
<path d="M37.668 61.0743C37.1016 60.9794 36.5595 60.7742 36.0722 60.4703C35.9568 60.4047 35.8709 60.2974 35.8322 60.1705C35.7934 60.0435 35.8048 59.9065 35.8639 59.7877C35.9229 59.6688 36.0253 59.5771 36.1499 59.5313C36.2745 59.4856 36.4119 59.4893 36.5339 59.5416C36.8116 59.6809 37.1086 59.8163 37.3371 59.911C37.4618 59.19 37.6364 57.6635 37.758 56.3363C37.7705 56.1992 37.837 56.0728 37.9428 55.9848C38.0485 55.8968 38.1849 55.8544 38.322 55.8669C38.459 55.8795 38.5854 55.9459 38.6735 56.0517C38.7615 56.1575 38.8039 56.2939 38.7913 56.4309C38.4005 60.7288 38.262 61.0743 37.668 61.0743Z" fill="#FF3C00"/>
<path d="M115.982 77.071C114.66 75.2432 113.883 73.0775 113.743 70.8257C112.476 52.5998 71.0176 11.8061 63.6997 20.1989L59.7841 9.79874C59.0822 7.94202 57.6722 6.43964 55.8638 5.62131C54.0553 4.80298 51.9961 4.73556 50.138 5.43385L16.2067 18.2169C15.1506 18.611 14.1979 19.2402 13.4208 20.0567C12.6436 20.8733 12.0624 21.856 11.7211 22.9304L10.1684 28.337C9.88854 29.4072 9.86954 30.5288 10.113 31.6078C-3.26485 34.904 1.53168 40.1791 2.35419 40.9955C5.4634 44.0777 13.6738 44.1285 14.6279 44.1285C14.6664 44.1285 15.6497 46.4983 15.6497 46.4983C12.986 46.9807 5.54803 48.7727 5.87196 53.7016C6.22743 59.0975 14.9418 59.8015 20.3262 59.3022C20.3739 59.2975 21.7881 62.7968 21.7881 62.7968C21.0479 62.9961 14.3248 65.0428 14.6017 69.4908C14.8957 74.1588 21.4172 75.0729 26.0868 74.5843C26.1322 74.5797 28.0042 79.3008 28.0042 79.3008C25.529 80.3457 23.0946 82.3785 23.1638 85.0714C23.3046 90.5704 31.9236 90.0272 32.0421 90.0226L35.9322 100.343C36.2545 101.199 36.7422 101.983 37.3675 102.65C37.9928 103.318 38.7435 103.856 39.5766 104.233C40.4098 104.61 41.3091 104.82 42.2232 104.85C43.1374 104.88 44.0484 104.729 44.9044 104.407L68.44 95.5409C83.2321 105.97 98.4734 105.389 98.5057 105.374C104.696 102.359 114.995 83.1917 116.33 79.4285C116.469 79.037 116.509 78.6175 116.449 78.2066C116.388 77.7957 116.228 77.4058 115.982 77.071ZM3.08513 40.2591C2.45652 39.6351 -1.4598 35.3241 10.4138 32.6004L14.3809 43.1306C13.1022 43.1152 5.76424 42.9182 3.08513 40.2591ZM8.21175 56.1553C7.40001 55.4628 4.83709 51.1487 11.5495 48.7127C13.0059 48.1873 14.5017 47.7782 16.0229 47.4893L20.0877 58.2804C18.9582 58.3666 11.354 58.8344 8.21175 56.1553ZM15.6381 69.4123C15.3765 65.8507 20.5686 64.1956 22.1574 63.774L25.8444 73.5617C21.9335 73.8841 15.9274 73.3409 15.6381 69.4123ZM24.2025 85.066C24.2025 82.3269 27.2286 80.7642 28.372 80.2718L31.6558 88.9877C28.6997 88.9801 24.2002 88.0583 24.2025 85.066ZM46.6594 99.0586C45.0595 99.6592 43.2866 99.6005 41.7299 98.8954C40.1732 98.1903 38.9598 96.8964 38.3559 95.2977L12.8113 27.4938C12.4822 26.6237 12.3457 25.6926 12.4112 24.7646C12.4274 24.5407 12.8998 22.7211 12.9714 22.5626C13.3191 21.7903 13.8164 21.0944 14.4344 20.5152C15.0524 19.936 15.779 19.4849 16.5722 19.1879L24.9642 16.0264L27.5379 16.8843C27.8334 16.9828 28.1535 16.9766 28.4443 16.8666L41.4897 11.9485C41.6796 11.8771 41.8509 11.764 41.9912 11.6175C42.1314 11.471 42.2369 11.2949 42.2999 11.1021L42.8985 9.27015L50.5042 6.40485C52.105 5.80345 53.879 5.86169 55.4368 6.56678C56.9947 7.27186 58.2093 8.5662 58.8139 10.1658L62.998 21.2738C60.6813 25.848 65.2947 32.2764 68.6147 36.1843L84.3554 77.9697C84.9568 79.5705 84.8986 81.3445 84.1935 82.9024C83.4884 84.4602 82.1941 85.6748 80.5945 86.2794L46.6594 99.0586ZM115.354 79.0823C108.979 91.1098 94.7487 104.038 94.7487 104.038C94.7487 104.038 79.0357 101.939 69.6003 95.1038L78.8402 91.6238C80.5106 90.9827 81.8755 89.7319 82.6596 88.1237C85.0671 83.3025 85.094 83.4049 85.134 83.3264C85.5404 82.4319 85.7663 81.4661 85.7988 80.4842C85.8312 79.5023 85.6697 78.5236 85.3233 77.6042L70.5359 38.3487C71.42 39.3035 82.0071 48.9504 83.0636 49.7745C82.1903 54.7219 82.4529 59.803 83.8317 64.634C85.2105 69.4649 87.6693 73.9193 91.0224 77.6604C91.1292 77.7457 91.2654 77.7852 91.4013 77.7702C91.5372 77.7552 91.6616 77.687 91.7472 77.5804C91.8338 77.4748 91.8751 77.3393 91.8621 77.2033C91.8492 77.0674 91.7829 76.9421 91.6779 76.8548C91.6518 76.8341 80.92 65.9107 84.1377 49.6414C84.1543 49.5482 84.1449 49.4522 84.1105 49.364C84.0762 49.2758 84.0182 49.1987 83.943 49.1413C83.816 49.0435 64.4299 33.7707 63.4681 24.9393C62.9857 20.5067 66.2911 19.6673 68.7501 20.4682C82.2641 24.8724 111.66 55.819 112.711 70.898C112.864 73.3455 113.709 75.6992 115.147 77.685C115.307 77.8762 115.411 78.1079 115.448 78.3546C115.484 78.6012 115.452 78.8531 115.354 79.0823Z" fill="black"/>
<path d="M29.6722 22.8389C27.7727 22.8384 25.9089 23.3559 24.2816 24.3358C22.6542 25.3157 21.3249 26.7208 20.4367 28.3999C19.5485 30.079 19.135 31.9686 19.2408 33.8652C19.3466 35.7619 19.9676 37.5938 21.037 39.1637C22.1064 40.7337 23.5837 41.9823 25.3099 42.7752C27.0361 43.568 28.9458 43.8751 30.8336 43.6634C32.7213 43.4517 34.5156 42.7292 36.0232 41.5736C37.5309 40.4181 38.6949 38.8732 39.39 37.1054C40.0104 35.5219 40.235 33.8109 40.0445 32.1209C39.8539 30.4309 39.2539 28.8129 38.2965 27.4073C37.339 26.0017 36.0531 24.851 34.5502 24.0548C33.0474 23.2587 31.3729 22.8413 29.6722 22.8389ZM29.6722 23.8768C31.2007 23.8792 32.7056 24.2537 34.057 24.9679C35.4084 25.6821 36.5656 26.7145 37.4286 27.976C38.2917 29.2375 38.8347 30.6902 39.0107 32.2085C39.1867 33.7268 38.9905 35.2652 38.439 36.6907C37.3649 38.8638 35.4932 40.5383 33.2143 41.3648C30.9355 42.1913 28.4255 42.1059 26.2081 41.1265C23.9907 40.147 22.2371 38.3492 21.3132 36.1081C20.3893 33.8669 20.3665 31.3556 21.2495 29.0981C22.0293 27.5309 23.2306 26.2121 24.7184 25.2898C26.2063 24.3675 27.9217 23.8782 29.6722 23.8768Z" fill="black"/>
<path d="M61.9146 28.9657C61.4161 26.5944 55.8047 15.5263 54.7044 13.385C54.6481 13.2757 54.5548 13.1898 54.4411 13.1426C54.3275 13.0954 54.2008 13.09 54.0835 13.1273C51.8815 13.8336 49.644 14.6661 47.6104 15.4709L47.1311 14.2191C47.1065 14.1554 47.0697 14.0972 47.0226 14.0478C46.9756 13.9984 46.9193 13.9587 46.8569 13.9311C46.7945 13.9034 46.7273 13.8884 46.6591 13.8867C46.5909 13.885 46.523 13.8968 46.4594 13.9213C46.3957 13.9459 46.3375 13.9827 46.2881 14.0298C46.2387 14.0768 46.199 14.1331 46.1714 14.1955C46.1437 14.2579 46.1286 14.3251 46.127 14.3933C46.1253 14.4615 46.1371 14.5294 46.1616 14.593L46.6471 15.8572C43.067 17.3091 40.8765 18.3332 39.7485 18.8579C39.6256 18.9165 39.5305 19.0209 39.4835 19.1487C39.4365 19.2765 39.4413 19.4176 39.4969 19.5419L46.4094 36.0936C46.4498 36.1853 46.5161 36.2633 46.6001 36.318C46.6841 36.3726 46.7823 36.4016 46.8826 36.4013C47.0595 36.4013 46.7633 36.1282 61.6069 29.5466C61.7169 29.4997 61.8076 29.4164 61.8636 29.3106C61.9196 29.2049 61.9376 29.0831 61.9146 28.9657ZM47.0188 16.8259L47.3219 17.6145C47.3768 17.7385 47.4757 17.8377 47.5994 17.893C47.7232 17.9483 47.8631 17.9557 47.9921 17.9138C48.0572 17.8915 48.117 17.856 48.1679 17.8096C48.2187 17.7631 48.2594 17.7067 48.2875 17.6438C48.3155 17.581 48.3304 17.513 48.331 17.4442C48.3317 17.3753 48.3182 17.3071 48.2914 17.2437L47.9836 16.4404C49.8717 15.691 51.9369 14.9208 53.985 14.2529C56.1802 18.5547 60.0149 26.3158 60.7844 28.7664L47.3442 34.4386L40.6503 19.5842C42.7518 18.6164 44.8752 17.6967 47.0188 16.8259Z" fill="black"/>
<path d="M78.6755 73.6681C78.6486 73.5496 71.2122 50.8972 63.8696 35.8782C63.8197 35.7672 63.7328 35.677 63.6238 35.6228C63.5148 35.5687 63.3904 35.554 63.2718 35.5812C50.8842 38.7674 28.3727 49.0322 28.348 49.046C28.2256 49.0979 28.1279 49.195 28.0753 49.3171C28.0227 49.4392 28.0193 49.577 28.0657 49.7016C28.088 49.7616 42.6215 89.0418 42.7407 89.3849C42.7575 89.4575 42.7917 89.5249 42.8405 89.5811C42.8893 89.6374 42.9512 89.6808 43.0206 89.7076C43.0901 89.7344 43.1651 89.7438 43.2391 89.7349C43.313 89.726 43.3836 89.6991 43.4447 89.6565C52.8131 85.1855 78.2708 74.309 78.3524 74.2682C78.469 74.2233 78.5658 74.1381 78.6251 74.028C78.6843 73.9179 78.7022 73.7902 78.6755 73.6681ZM63.0925 36.6954C64.3736 37.9126 75.7033 65.9555 77.5575 73.4565C77.3644 73.5288 52.43 83.0742 44.188 86.9282C42.5899 82.9995 29.3052 50.0386 29.2113 49.7985C40.18 44.6328 51.5023 40.2541 63.0925 36.6954Z" fill="black"/>
<path d="M60.7074 85.0514C58.5223 88.9223 63.3711 91.7799 65.7571 88.4191C66.1609 87.8158 66.3979 87.1163 66.4441 86.3917C66.438 85.7124 66.2038 85.0548 65.7792 84.5244C65.3545 83.9941 64.7641 83.6218 64.1025 83.4672C63.4409 83.3126 62.7466 83.3848 62.1309 83.6721C61.5152 83.9593 61.0139 84.4451 60.7074 85.0514ZM61.4914 86.3917C61.4914 85.8726 61.6976 85.3747 62.0647 85.0076C62.4318 84.6406 62.9297 84.4343 63.4488 84.4343C63.9679 84.4343 64.4658 84.6406 64.8329 85.0076C65.2 85.3747 65.4062 85.8726 65.4062 86.3917C65.4054 89.1247 61.4907 88.8839 61.4907 86.3917H61.4914Z" fill="black"/>
<path d="M146.999 83.6921C146.991 83.5041 146.932 83.3219 146.829 83.1647C146.726 83.0075 146.582 82.8813 146.412 82.7995L120.953 70.515C120.823 70.453 120.683 70.4184 120.54 70.4133C120.397 70.4081 120.254 70.4326 120.121 70.4852C119.988 70.5378 119.867 70.6174 119.766 70.7189C119.665 70.8204 119.586 70.9417 119.534 71.0752C110.225 95.2694 98.0447 105.668 94.4515 108.339C94.3286 108.43 94.2274 108.548 94.1551 108.683C94.0829 108.819 94.0415 108.968 94.0338 109.121C94.0261 109.274 94.053 109.427 94.1122 109.569C94.1707 109.711 94.2607 109.838 94.3746 109.941L126.898 139.332C127.003 139.427 127.126 139.499 127.26 139.544C127.394 139.59 127.536 139.607 127.677 139.596C127.818 139.585 127.955 139.545 128.08 139.478C128.205 139.412 128.316 139.321 128.404 139.211C147.443 115.684 147.178 88.1547 146.999 83.6921Z" fill="#FFA71A"/>
<path d="M107.132 113.289C106.84 113.289 107.018 113.382 103.832 110.288C103.783 110.24 103.744 110.184 103.717 110.121C103.69 110.059 103.676 109.991 103.675 109.923C103.674 109.855 103.686 109.787 103.711 109.724C103.736 109.661 103.774 109.603 103.821 109.554C103.869 109.505 103.925 109.466 103.988 109.439C104.051 109.412 104.118 109.398 104.186 109.397C104.254 109.396 104.322 109.409 104.385 109.434C104.448 109.459 104.506 109.496 104.555 109.544L107.493 112.398C107.567 112.47 107.618 112.563 107.639 112.663C107.66 112.764 107.65 112.869 107.611 112.965C107.572 113.06 107.506 113.141 107.42 113.199C107.335 113.256 107.235 113.288 107.132 113.289Z" fill="black"/>
<path d="M128.7 116.295C128.63 116.295 128.054 116.193 124.574 115.599C124.439 115.575 124.318 115.499 124.238 115.387C124.179 115.304 124.146 115.204 124.144 115.102C124.141 115 124.169 114.899 124.223 114.812C124.278 114.726 124.357 114.657 124.45 114.615C124.543 114.573 124.647 114.56 124.748 114.576L128.787 115.264C128.915 115.286 129.03 115.356 129.109 115.459C129.188 115.561 129.226 115.69 129.215 115.82C129.204 115.949 129.145 116.069 129.05 116.158C128.955 116.246 128.83 116.295 128.7 116.295Z" fill="black"/>
<path d="M115.148 99.3612C115.063 99.3613 114.979 99.3407 114.905 99.3011C114.83 99.2615 114.766 99.2041 114.718 99.134C114.671 99.0639 114.641 98.9832 114.632 98.899C114.623 98.8148 114.634 98.7296 114.666 98.651C114.707 98.5455 114.782 98.4566 114.879 98.3978L118.385 96.2804C118.444 96.2449 118.508 96.2212 118.576 96.2107C118.643 96.2003 118.712 96.2032 118.778 96.2194C118.845 96.2357 118.907 96.2649 118.962 96.3053C119.017 96.3457 119.063 96.3966 119.099 96.4551C119.17 96.573 119.192 96.7143 119.159 96.8482C119.126 96.9818 119.041 97.0967 118.924 97.1683C115.138 99.4512 115.352 99.3612 115.148 99.3612Z" fill="black"/>
<path d="M125.441 132.407C125.313 132.407 125.19 132.359 125.095 132.274C125 132.189 124.939 132.072 124.925 131.945L124.463 127.875C124.449 127.738 124.488 127.601 124.574 127.493C124.626 127.426 124.695 127.373 124.774 127.339C124.852 127.305 124.938 127.291 125.023 127.298C125.108 127.306 125.19 127.334 125.261 127.38C125.333 127.427 125.392 127.491 125.433 127.566C125.466 127.626 125.487 127.691 125.495 127.759L125.956 131.829C125.964 131.901 125.957 131.975 125.935 132.044C125.913 132.114 125.876 132.178 125.828 132.233C125.779 132.287 125.719 132.331 125.653 132.361C125.586 132.391 125.514 132.406 125.441 132.407Z" fill="black"/>
<path d="M135.695 98.6763C135.575 98.674 135.46 98.6307 135.368 98.5537C135.277 98.4767 135.215 98.3705 135.192 98.2531C135.17 98.1354 135.19 98.0138 135.247 97.9087C135.304 97.8036 135.396 97.7214 135.507 97.676L139.325 96.1911C139.388 96.1664 139.456 96.1544 139.524 96.1559C139.592 96.1574 139.659 96.1722 139.722 96.1997C139.784 96.2271 139.84 96.2666 139.888 96.3158C139.935 96.365 139.972 96.423 139.996 96.4865C140.021 96.55 140.033 96.6178 140.032 96.6859C140.03 96.754 140.015 96.8212 139.988 96.8836C139.96 96.9459 139.921 97.0023 139.872 97.0494C139.822 97.0965 139.764 97.1335 139.701 97.1582C135.564 98.7648 135.834 98.6763 135.695 98.6763Z" fill="black"/>
<path d="M128.271 87.8621C128.152 87.862 128.038 87.8216 127.946 87.7476C127.854 87.6736 127.79 87.5704 127.764 87.4551L126.881 83.4542C126.854 83.3208 126.881 83.1823 126.955 83.0684C127.029 82.9545 127.145 82.8743 127.278 82.845C127.411 82.8157 127.55 82.8396 127.665 82.9116C127.781 82.9837 127.863 83.0981 127.895 83.2303L128.778 87.2312C128.795 87.3071 128.794 87.3858 128.776 87.4615C128.759 87.5371 128.724 87.6078 128.675 87.6683C128.627 87.7286 128.565 87.7775 128.495 87.8114C128.425 87.8446 128.348 87.862 128.271 87.8621Z" fill="black"/>
</svg>
