<svg width="105" height="148" viewBox="0 0 105 148" fill="none" xmlns="http://www.w3.org/2000/svg">
<path d="M89.9585 46.0501C90.1739 46.127 100.184 38.1097 103.808 36.417C103.808 36.417 98.5836 56.491 98.5144 65.7625C94.6971 67.3889 90.9863 69.2546 87.404 71.3484C79.164 71.1095 70.92 71.6531 62.7827 72.9719C62.7827 72.9719 63.0751 46.4886 62.9289 40.6103C62.8904 40.6796 73.3314 40.0871 89.9585 46.0501Z" fill="#FFA71A"/>
<path d="M67.8915 40.5337L69.6535 35.8249C73.262 36.5943 76.9629 35.0555 78.5556 32.1471C81.3947 27.0228 82.672 16.628 82.672 16.628C76.132 17.736 70.7614 12.9502 70.7614 12.9502C69.2919 18.6131 63.0673 21.6292 63.0673 21.6292C63.0673 21.6292 60.8898 19.2209 59.5357 21.2676C57.666 24.0836 61.3053 25.4532 61.3053 25.4532C60.8591 31.4854 62.698 33.0319 62.698 33.0319L60.0512 38.3255C60.0512 38.3255 58.4354 36.4328 53.7266 36.7867C48.5792 37.1714 41.0004 45.8273 37.6227 54.9526C32.8754 67.671 39.0923 71.6335 39.0923 71.6335C39.0923 71.6335 8.26952 71.7797 5.76892 71.7027C3.26832 71.6258 3.78383 72.8799 3.78383 73.7648C3.75709 73.9869 3.79967 74.2118 3.90573 74.4088C4.01178 74.6057 4.17614 74.7651 4.37628 74.865C1.47558 90.3303 10.1392 98.563 14.9327 101.725C17.4256 103.356 24.5196 106.211 24.9351 108.789C25.0966 109.743 24.3503 111.951 20.4494 113.79C16.5484 115.629 7.33083 121.061 3.89924 128.355C1.82484 132.861 1.21664 137.904 2.16036 142.774C1.39095 142.92 1.20629 143.435 1.12935 145.082C1.0524 146.728 2.01417 146.775 2.66818 146.775C3.32218 146.775 50.5489 146.775 52.9726 146.921C55.3962 147.067 55.327 146.259 55.4039 144.566C55.4808 142.874 54.2267 142.874 54.2267 142.874C54.4835 140.505 54.5324 138.118 54.3729 135.741C54.3729 135.741 56.9504 139.858 57.7583 139.419C58.5662 138.98 58.0507 128.093 58.0507 128.093C56.1555 125.7 54.5058 123.122 53.1264 120.399C51.803 120.622 48.71 123.192 48.71 123.192C48.71 123.192 47.0942 120.761 40.9158 116.944C36.1377 113.99 31.3366 111.797 31.275 109.143C31.1827 104.734 42.7393 103.987 48.5638 94.5852C50.7767 91.1361 52.0986 87.1915 52.4109 83.1055C67.1221 73.5494 84.1108 75.973 84.1108 75.973C83.526 73.8417 82.495 71.1949 82.495 71.1949C82.495 71.1949 65.5063 71.9643 62.8518 73.0338V67.3786C62.8518 67.3786 63.2212 66.8631 63.3674 66.6092C63.3674 66.6092 65.1832 66.44 66.9759 64.2548C68.7686 62.0697 68.8841 61.2387 68.5917 61.0925C68.2993 60.9463 66.4604 61.6773 66.4604 61.6773C66.4604 61.6773 68.5994 58.438 67.9992 57.6301C67.5607 57.0454 66.1603 57.9302 66.1603 57.9302C66.1603 57.9302 68.0685 55.2757 67.2606 54.691C66.7451 54.3217 65.4986 55.1295 65.4986 55.1295C65.4986 55.1295 66.7451 52.8213 66.1603 52.4135C65.3447 51.898 62.9211 54.3986 62.9211 54.3986V40.6799C62.9211 40.6799 63.1827 40.3875 67.8915 40.5337Z" fill="white"/>
<path d="M99.7377 55.8294C102.385 57.0066 102.092 55.1677 102.092 55.1677C103.862 55.0215 103.416 53.0364 103.416 53.0364C105.254 52.267 103.862 50.5358 103.862 50.5358C103.862 50.5358 104.739 50.5358 104.523 49.0662C104.308 47.5966 101.577 45.9039 101.577 45.9039C101.577 45.9039 100.107 45.4653 99.9609 45.9039C99.8147 46.3425 100.992 47.9659 100.992 47.9659C100.992 47.9659 98.8529 47.0042 98.4143 47.5197C97.9758 48.0352 100.399 50.5358 100.399 50.5358C100.399 50.5358 97.2371 49.5048 97.014 50.1665C96.7909 50.8282 99.9609 53.6288 99.9609 53.6288C99.9609 53.6288 97.014 52.8594 96.7986 53.8443C96.7216 54.6598 99.7377 55.8294 99.7377 55.8294Z" fill="white"/>
<path d="M70.6846 141.596C70.6846 141.596 71.7925 145.343 72.1542 145.636C72.5158 145.928 87.1655 146.228 91.1356 145.636C87.6819 142.55 83.5061 140.386 78.9943 139.342C76.3404 140.47 73.5445 141.228 70.6846 141.596Z" fill="white"/>
<path d="M13.9787 100.702C15.0719 101.101 16.271 101.101 17.3641 100.702C19.1338 100.048 24.1273 96.801 27.5897 96.9472C31.0521 97.0934 37.7306 100.51 39.1309 100.625C40.6876 100.555 42.2338 100.334 43.7474 99.9633C40.9762 102.292 37.8618 104.179 34.5144 105.557C29.1285 107.534 30.6135 117.175 32.9756 124.385C36.0533 133.871 53.419 134.602 53.9345 142.92H2.21436C2.21436 142.92 1.44495 141.158 5.15353 138.134C13.0246 131.671 22.0114 131.886 24.5736 121.738C25.5353 117.891 26.0278 111.443 24.7198 108.204C23.4118 104.964 17.7335 104.38 13.9787 100.702Z" fill="#FFA71A"/>
<path d="M74.216 27.4458C74.0698 27.4458 73.9929 27.3688 73.9236 27.2227C73.8897 27.1444 73.8858 27.0563 73.9128 26.9754C73.9398 26.8945 73.9957 26.8263 74.0698 26.7841C74.5221 26.5732 74.9419 26.2985 75.3163 25.9685C74.4391 25.3068 74.1544 24.1373 74.4391 22.5908C74.6054 21.7733 74.8797 20.9815 75.2547 20.2364C75.2935 20.1588 75.3615 20.0999 75.4437 20.0724C75.526 20.045 75.6157 20.0514 75.6933 20.0902C75.7708 20.1289 75.8298 20.1969 75.8572 20.2792C75.8846 20.3614 75.8782 20.4512 75.8394 20.5287C75.8394 20.6057 73.7851 24.4989 75.9933 25.6761C76.0626 25.7531 76.1395 25.8223 76.1395 25.8993C76.15 26.0028 76.1227 26.1067 76.0626 26.1916C75.5089 26.6941 74.8872 27.1163 74.216 27.4458Z" fill="black"/>
<path d="M70.5383 28.3227C70.506 28.2442 70.503 28.1567 70.5299 28.0762C70.5567 27.9957 70.6116 27.9275 70.6845 27.8841C70.7641 27.8514 70.8528 27.8481 70.9346 27.8749C71.0164 27.9017 71.0859 27.9568 71.1307 28.0303C71.2 28.1072 72.5464 30.5771 75.5395 29.1306C75.62 29.0985 75.7093 29.0964 75.7912 29.1246C75.8731 29.1529 75.9421 29.2096 75.9857 29.2844C76.0173 29.3638 76.0192 29.4519 75.9909 29.5325C75.9626 29.6131 75.9061 29.6808 75.8319 29.723C75.1009 30.0846 72.231 31.1926 70.5383 28.3227Z" fill="black"/>
<path d="M80.7636 20.1594C80.412 19.8861 79.9888 19.7203 79.5451 19.6821C79.1014 19.6439 78.6562 19.7348 78.263 19.944C78.1852 19.9771 78.0977 19.9792 78.0184 19.9498C77.9391 19.9204 77.8741 19.8618 77.8366 19.786C77.7992 19.7102 77.7923 19.6229 77.8172 19.5421C77.8421 19.4613 77.897 19.3931 77.9706 19.3515C78.4755 19.0675 79.0548 18.9433 79.6318 18.9955C80.2088 19.0477 80.7564 19.2738 81.2021 19.6439C81.2639 19.6984 81.3051 19.7723 81.3191 19.8535C81.3331 19.9346 81.319 20.0181 81.2791 20.0901C81.2101 20.1521 81.124 20.1919 81.032 20.2043C80.9401 20.2166 80.8465 20.201 80.7636 20.1594Z" fill="black"/>
<path d="M73.5545 18.9133C73.1513 18.412 72.6013 18.0497 71.9817 17.8772C71.362 17.7047 70.7039 17.7307 70.0998 17.9515C70.0202 17.9842 69.9315 17.9875 69.8497 17.9607C69.7679 17.9339 69.6983 17.8788 69.6535 17.8053C69.6219 17.7259 69.6201 17.6378 69.6484 17.5572C69.6767 17.4766 69.7331 17.409 69.8074 17.3667C70.5413 17.0645 71.3534 17.0084 72.122 17.2068C72.8905 17.4052 73.574 17.8473 74.07 18.467C74.1469 18.6132 74.1469 18.8363 73.993 18.9133C73.8468 19.1287 73.6314 18.9825 73.5545 18.9133Z" fill="black"/>
<path d="M10.2315 91.1383C6.55374 85.6985 7.43087 78.189 7.50782 77.8967C7.51802 77.8089 7.56266 77.7288 7.63192 77.674C7.70118 77.6191 7.78939 77.5941 7.87714 77.6043C7.96488 77.6145 8.04498 77.6591 8.09981 77.7284C8.15464 77.7976 8.17972 77.8859 8.16951 77.9736C8.16951 78.0428 7.28469 85.5446 10.8163 90.769C10.8932 90.9152 10.8932 91.1383 10.7394 91.2075C10.5855 91.2768 10.3547 91.2691 10.2315 91.1383Z" fill="black"/>
<path d="M7.9463 129.901C7.87281 129.856 7.81772 129.787 7.79092 129.705C7.76412 129.623 7.76738 129.535 7.80011 129.455C10.0565 125.463 13.4648 122.245 17.5794 120.222C17.659 120.189 17.7477 120.186 17.8295 120.213C17.9113 120.24 17.9808 120.295 18.0256 120.368C18.0579 120.447 18.0609 120.534 18.034 120.615C18.0072 120.695 17.9523 120.763 17.8795 120.807C11.0778 124.285 8.39256 129.632 8.39256 129.709C8.26946 129.909 8.18482 129.901 7.9463 129.901Z" fill="black"/>
<path d="M70.3951 23.168C70.6047 23.2129 70.8268 23.1577 71.0125 23.0145C71.1983 22.8712 71.3324 22.6517 71.3854 22.4041C71.4385 22.1566 71.4061 21.9014 71.2954 21.6946C71.1847 21.4878 71.0048 21.3463 70.7952 21.3014C70.6915 21.2791 70.5836 21.2812 70.4777 21.3076C70.3718 21.3339 70.27 21.3839 70.178 21.4548C70.0861 21.5257 70.0059 21.6161 69.9419 21.7207C69.8779 21.8254 69.8315 21.9423 69.8052 22.0649C69.7789 22.1874 69.7734 22.3131 69.7888 22.4348C69.8042 22.5565 69.8404 22.6718 69.8951 22.7742C69.9499 22.8765 70.0223 22.9639 70.108 23.0314C70.1938 23.0988 70.2914 23.145 70.3951 23.1672" fill="black"/>
<path d="M78.1002 24.6482C78.2039 24.6704 78.3118 24.6684 78.4177 24.642C78.5236 24.6157 78.6254 24.5657 78.7174 24.4948C78.8093 24.4239 78.8895 24.3335 78.9535 24.2288C79.0175 24.1242 79.0639 24.0073 79.0902 23.8847C79.1165 23.7622 79.1221 23.6365 79.1066 23.5148C79.0912 23.3931 79.0551 23.2778 79.0003 23.1754C78.9455 23.0731 78.8732 22.9857 78.7874 22.9182C78.7016 22.8508 78.604 22.8046 78.5003 22.7824C78.3966 22.7601 78.2887 22.7622 78.1828 22.7885C78.0769 22.8148 77.975 22.8649 77.8831 22.9358C77.7912 23.0067 77.711 23.097 77.647 23.2017C77.583 23.3064 77.5366 23.4233 77.5103 23.5458C77.484 23.6683 77.4784 23.794 77.4939 23.9157C77.5093 24.0374 77.5454 24.1527 77.6002 24.2551C77.655 24.3575 77.7273 24.4449 77.8131 24.5123C77.8989 24.5798 77.9965 24.6259 78.1002 24.6482Z" fill="black"/>
<path d="M77.3091 27.5152C77.3091 27.6021 77.3338 27.6882 77.3817 27.7684C77.4297 27.8487 77.4999 27.9217 77.5885 27.9831C77.6771 28.0445 77.7823 28.0933 77.898 28.1265C78.0138 28.1598 78.1379 28.1769 78.2632 28.1769C78.3885 28.1769 78.5125 28.1598 78.6283 28.1265C78.744 28.0933 78.8492 28.0445 78.9378 27.9831C79.0264 27.9217 79.0967 27.8487 79.1446 27.7684C79.1926 27.6882 79.2172 27.6021 79.2172 27.5152C79.2172 27.4283 79.1926 27.3423 79.1446 27.262C79.0967 27.1817 79.0264 27.1088 78.9378 27.0473C78.8492 26.9859 78.744 26.9371 78.6283 26.9039C78.5125 26.8706 78.3885 26.8535 78.2632 26.8535C78.1379 26.8535 78.0138 26.8706 77.898 26.9039C77.7823 26.9371 77.6771 26.9859 77.5885 27.0473C77.4999 27.1088 77.4297 27.1817 77.3817 27.262C77.3338 27.3423 77.3091 27.4283 77.3091 27.5152Z" fill="#FCCAC2"/>
<path d="M68.4886 26.8489C68.6373 26.8961 68.7912 26.9225 68.9414 26.9267C69.0915 26.9309 69.2349 26.9128 69.3631 26.8734C69.4914 26.834 69.602 26.7742 69.6885 26.6973C69.775 26.6205 69.8356 26.5282 69.867 26.4258C69.8983 26.3234 69.8996 26.2129 69.8709 26.1008C69.8422 25.9887 69.784 25.8773 69.6997 25.7729C69.6154 25.6685 69.5066 25.5733 69.3798 25.4928C69.253 25.4123 69.1107 25.3481 68.961 25.3039C68.8123 25.2568 68.6583 25.2304 68.5082 25.2262C68.3581 25.222 68.2147 25.2401 68.0864 25.2795C67.9582 25.3188 67.8476 25.3787 67.7611 25.4555C67.6746 25.5324 67.6139 25.6247 67.5826 25.7271C67.5513 25.8295 67.55 25.94 67.5787 26.0521C67.6074 26.1641 67.6656 26.2756 67.7499 26.38C67.8342 26.4844 67.9429 26.5796 68.0697 26.6601C68.1966 26.7406 68.3389 26.8048 68.4886 26.8489Z" fill="#FCCAC2"/>
<path d="M103.931 47.5198C103.379 46.8277 102.673 46.2743 101.869 45.9041C102.384 43.4035 103.785 37.225 104.3 36.3402C104.369 36.194 104.369 36.0478 104.223 35.9709C104.077 35.894 103.931 35.8247 103.854 35.9709C103.415 36.271 95.9904 41.126 92.0125 43.9882C94.2207 41.4876 98.1678 37.6636 102.461 36.0478C102.537 36.0039 102.598 35.9392 102.637 35.8614C102.677 35.7836 102.693 35.6961 102.684 35.6093C102.64 35.5326 102.574 35.4706 102.495 35.4309C102.415 35.3913 102.326 35.3757 102.238 35.3861C98.7834 36.7095 95.5287 39.4102 93.4129 41.4876C92.6434 42.257 92.0125 42.8879 91.5047 43.4727C93.6125 39.8585 96.6629 36.8852 100.33 34.8706C100.374 34.8543 100.413 34.8288 100.447 34.796C100.48 34.7632 100.506 34.7237 100.522 34.6802C100.539 34.6367 100.547 34.5901 100.544 34.5434C100.542 34.4968 100.53 34.4513 100.508 34.4097C100.487 34.3682 100.457 34.3317 100.421 34.3025C100.384 34.2733 100.342 34.2522 100.297 34.2405C100.252 34.2288 100.204 34.2268 100.158 34.2346C100.112 34.2424 100.069 34.2599 100.03 34.2859C95.5113 36.7468 91.9226 40.6192 89.812 45.3116C82.6718 37.8867 71.346 37.8098 71.1998 37.8098C71.1234 37.8169 71.052 37.8511 70.9984 37.906C70.9449 37.961 70.9126 38.0333 70.9074 38.1099C70.9128 38.1856 70.9453 38.2569 70.9991 38.3106C71.0528 38.3644 71.1241 38.3969 71.1998 38.4023C71.2768 38.4023 80.4328 38.4715 87.3114 43.919C81.5773 40.9153 75.2448 39.2303 68.7762 38.987C69.2147 37.8867 69.7302 36.5633 69.9534 35.9709C71.5754 36.393 73.2906 36.2777 74.8416 35.6423C76.3926 35.0069 77.6957 33.8857 78.5554 32.447C80.0943 30.031 81.9409 24.7528 82.9719 16.6278C83.4902 16.477 83.9849 16.2542 84.4415 15.9661C90.2352 12.5345 85.0955 6.05603 81.4254 4.42487C79.1171 3.40155 73.9236 1.40876 69.5071 4.1248C67.1989 -0.876403 61.636 1.33182 61.5667 1.33182C61.5284 1.35102 61.4941 1.37759 61.466 1.41002C61.4379 1.44245 61.4164 1.4801 61.4028 1.52083C61.3892 1.56155 61.3838 1.60455 61.3869 1.64737C61.3899 1.69019 61.4014 1.73199 61.4206 1.77039C61.4398 1.80878 61.4663 1.84302 61.4988 1.87115C61.5312 1.89927 61.5688 1.92074 61.6096 1.93431C61.6503 1.94789 61.6933 1.95331 61.7361 1.95026C61.7789 1.94722 61.8207 1.93577 61.8591 1.91657C61.8591 1.91657 66.1986 0.00842464 68.63 3.75548C67.4105 3.2226 66.0882 2.96626 64.7579 3.00484C63.4276 3.04342 62.1224 3.37596 60.9358 3.97861C50.5872 9.60303 45.5475 23.4294 42.7699 33.9858C42.7527 34.0548 42.7511 34.1267 42.7652 34.1964C42.7794 34.2661 42.8089 34.3317 42.8517 34.3885C42.8945 34.4453 42.9494 34.4918 43.0125 34.5246C43.0755 34.5575 43.1451 34.5758 43.2162 34.5783L60.6358 35.9709L59.8202 37.5944C58.5737 36.8249 53.9649 34.609 48.4251 38.9178C45.5706 41.1414 41.0849 46.3503 38.1227 52.6672C33.8139 61.9002 35.3374 67.2246 37.3532 70.1791C37.6381 70.5992 37.9627 70.9908 38.3227 71.3486H4.86084C3.4605 71.3486 3.38356 72.3104 3.38356 73.2645C3.38356 73.2645 3.31431 74.2185 3.75288 74.5879C3.82982 74.6648 3.97601 74.734 4.05295 74.811C2.65262 83.49 4.35302 90.761 9.1234 96.5085C13.032 101.21 17.9486 103.641 20.5261 104.972C22.9498 106.226 24.5656 107.842 24.6425 108.942C24.7118 109.904 24.127 110.927 22.8036 111.958C20.7877 113.72 10.6622 117.76 5.29941 125.492C-0.0634172 133.225 1.69854 142.481 1.76779 142.558C1.83704 142.635 1.47541 142.781 1.39847 142.85C1.20892 143.042 1.06433 143.273 0.975165 143.527C0.886003 143.781 0.854509 144.052 0.882962 144.32C0.882962 146.459 1.10609 146.967 3.23737 146.967L53.9188 147.044C54.4465 147.089 54.9716 146.932 55.3883 146.605C55.9039 146.09 55.8269 145.566 55.8269 144.835C55.9962 143.358 55.5422 142.95 54.642 142.581C54.9696 140.606 55.0471 138.597 54.8728 136.603C55.3114 137.187 57.1811 139.765 57.812 139.68C58.1121 139.68 58.4737 139.457 58.4737 134.602C58.4737 134.602 59.4355 134.972 59.5047 134.972C59.574 134.972 59.7278 134.902 59.8048 134.756C59.8368 134.676 59.8389 134.586 59.8107 134.504C59.7825 134.423 59.7258 134.353 59.6509 134.31L58.4737 133.871V132.332C59.8048 132.91 59.6047 132.848 59.8048 132.848C60.0048 132.848 60.0202 132.771 60.0972 132.625C60.1294 132.546 60.1324 132.459 60.1056 132.378C60.0787 132.298 60.0239 132.23 59.951 132.186L58.4737 131.602C58.4737 130.424 58.4045 129.247 58.3275 128.362C58.9892 128.216 61.5667 127.477 65.0214 126.231C63.9245 121.97 62.5992 117.77 61.0512 113.651C58.6826 115.808 56.1486 117.776 53.4725 119.537C53.3263 119.606 50.3948 121.445 48.856 122.615C43.4701 116.775 35.4682 113.497 33.56 111.881C32.3213 110.827 31.6519 109.896 31.7211 108.865C31.7904 107.834 32.7521 106.657 34.5141 105.626C35.4143 104.949 42.3314 102.725 47.3864 96.6547C49.8006 93.7692 51.4679 90.3341 52.2414 86.6523L61.5667 113.182C63.5503 118.654 65.2428 124.227 66.6372 129.878C68.553 136.418 70.2458 141.35 70.3919 141.789C70.7613 143.189 71.3383 145.559 72.0077 145.836C72.9541 146.228 90.7661 145.913 91.2816 145.613C91.3584 145.57 91.4207 145.506 91.4604 145.428C91.5002 145.349 91.5156 145.261 91.5047 145.174C91.4278 144.659 89.735 143.558 86.5035 141.935C86.3364 141.852 86.1642 141.78 85.988 141.719L86.5728 140.835C86.6497 140.688 86.6497 140.465 86.5035 140.396C86.3573 140.327 86.1342 140.319 86.0572 140.465L85.3955 141.427C85.0262 141.273 84.6261 141.058 84.2953 140.911L84.957 139.95C85.0262 139.803 85.0262 139.58 84.88 139.511C84.7338 139.442 84.5107 139.434 84.4415 139.58L83.6721 140.611C82.2574 139.969 80.8088 139.404 79.3325 138.919L76.9089 120.314C74.7776 106.411 71.0229 89.1991 71.0229 88.9836C71.0218 88.9074 71.0421 88.8323 71.0816 88.767C71.121 88.7017 71.178 88.6488 71.246 88.6143C71.7615 88.4681 74.7776 86.6985 75.9548 86.1137C76.0331 86.0798 76.1211 86.0759 76.2021 86.1029C76.283 86.1299 76.3511 86.1858 76.3934 86.2599C76.4256 86.3384 76.4286 86.4258 76.4018 86.5063C76.3749 86.5868 76.3201 86.655 76.2472 86.6985C75.8779 86.9216 72.7848 88.6835 71.6846 89.1298C72.1231 91.338 75.5316 107.003 77.4936 119.945C80.5912 117.973 83.3072 115.457 85.511 112.52C92.3972 102.841 86.1727 81.4049 84.6338 76.4806C84.2425 74.6911 83.6246 72.9587 82.7949 71.3255C86.5651 71.3255 87.0036 71.6025 87.2037 71.4025C90.7792 69.3083 94.4998 67.4724 98.3371 65.9089C98.4833 65.8396 98.5525 65.7627 98.5525 65.6165C98.5525 65.4703 99.2142 57.9685 99.7297 55.9065C99.8144 55.9065 101.307 56.445 102.038 55.9834C102.147 55.8671 102.225 55.7245 102.262 55.5694C102.3 55.4143 102.297 55.2521 102.253 55.0986C103.346 54.8216 103.631 54.006 103.508 52.8903C103.929 52.6597 104.264 52.2977 104.462 51.8593C104.536 51.609 104.548 51.3444 104.497 51.0884C104.446 50.8324 104.334 50.5926 104.169 50.3897C104.539 50.6129 104.831 50.4667 104.9 50.1666C105.185 49.5049 104.893 48.697 103.931 47.5198ZM79.2171 139.757C80.3943 140.119 81.8639 140.711 83.4105 141.373L82.9719 141.958C82.8949 142.112 82.8949 142.327 83.0411 142.404C83.121 142.458 83.2184 142.481 83.3139 142.466C83.4094 142.452 83.496 142.402 83.5566 142.327L84.0722 141.665C84.4415 141.812 84.8416 142.035 85.1724 142.181L84.7338 142.843C84.6646 142.989 84.6646 143.212 84.8108 143.281C84.957 143.351 85.1955 143.343 85.3263 143.212L85.8341 142.443C87.4919 143.172 89.072 144.066 90.5506 145.112C87.9808 145.405 73.408 145.751 72.5232 145.459C72.2308 145.243 71.6461 143.697 71.2768 142.004C74.0948 142.116 76.8754 141.329 79.2171 139.757ZM84.88 43.4035C84.6646 43.4727 84.5107 43.5496 84.2953 43.6266C79.1047 41.9635 73.7534 40.852 68.3299 40.3104C68.4122 40.0822 68.5125 39.8609 68.63 39.6487C74.2303 39.8991 79.7376 41.1716 84.88 43.4035ZM62.8901 33.1625C62.9279 33.1083 62.9481 33.0439 62.9481 32.9779C62.9481 32.9118 62.9279 32.8474 62.8901 32.7932C61.8535 30.4132 61.4735 27.7988 61.7899 25.2222C61.7899 25.2222 57.9428 23.8295 59.4816 21.5444C60.8204 19.6362 62.944 21.9829 62.944 21.9829C62.944 21.9829 68.8223 19.5593 70.9536 13.5194C70.9536 13.5194 76.9858 18.1359 82.3563 16.9048C81.9178 20.3595 80.6867 27.9459 78.0938 32.2008C76.3395 35.0784 72.3847 36.7788 68.1606 34.7706C68.0828 34.7375 67.9953 34.7354 67.916 34.7648C67.8368 34.7941 67.7717 34.8528 67.7343 34.9286C67.6969 35.0044 67.6899 35.0917 67.7148 35.1725C67.7397 35.2533 67.7946 35.3215 67.8683 35.3631C68.3838 35.5862 68.8993 35.7324 69.3378 35.8786C69.0455 36.5403 68.5684 37.9406 68.0914 38.9562C67.2815 38.9137 66.4699 38.9137 65.66 38.9562C65.5723 38.9664 65.4922 39.0111 65.4374 39.0803C65.3825 39.1496 65.3575 39.2378 65.3677 39.3255C65.3779 39.4133 65.4225 39.4934 65.4918 39.5482C65.561 39.6031 65.6492 39.6281 65.737 39.6179C66.4467 39.5737 67.1585 39.5737 67.8683 39.6179C67.7823 39.8344 67.7078 40.0553 67.6451 40.2796C66.0294 40.2104 64.4136 40.2796 62.944 40.2796C62.8667 40.2865 62.7944 40.3204 62.7395 40.3752C62.6847 40.4301 62.6508 40.5024 62.6439 40.5797V40.8721C60.882 40.5028 60.4434 38.5638 60.3357 38.1483L62.8901 33.1625ZM65.9678 61.554C64.8317 62.5489 63.8005 63.6575 62.8901 64.8624C62.5978 64.8624 62.0823 64.8624 61.8591 64.5701C61.7335 64.3906 61.6544 64.1828 61.6289 63.9653C61.6034 63.7477 61.6323 63.5273 61.7129 63.3236C62.9685 61.351 64.5264 59.5881 66.3294 58.0993C67.4374 57.5068 67.6528 57.73 67.6528 57.73C67.6528 57.73 68.1145 58.3301 65.9755 61.5693L65.9678 61.554ZM66.4141 62.0695C67.1835 61.6309 68.176 61.3001 68.3992 61.4078C68.3992 61.4847 68.3992 61.8463 67.6297 62.9466C65.9909 65.2087 63.9519 66.4013 63.4364 66.1782C63.3595 66.1089 63.2902 65.8858 63.4364 65.301C64.3078 64.1205 65.3092 63.0416 66.4218 62.0849L66.4141 62.0695ZM65.8986 57.5838C64.0579 59.0605 62.4947 60.8529 61.2821 62.8774C60.9271 62.7935 60.6136 62.5862 60.3972 62.2926C60.2964 62.055 60.257 61.7959 60.2825 61.5391C60.3081 61.2823 60.3978 61.0361 60.5434 60.823C61.9875 58.7904 63.6952 56.9586 65.6216 55.3756C66.0048 55.0923 66.4684 54.9386 66.945 54.937C67.0065 55.0216 67.3066 55.3909 65.9062 57.5992L65.8986 57.5838ZM65.1291 55.0062C63.3397 56.5522 61.713 58.277 60.2741 60.1536C60.1565 60.0787 60.0567 59.9789 59.9818 59.8612C59.7586 59.4919 59.9202 58.8379 60.3434 58.0223C61.6437 55.5448 65.3446 52.4364 66.0063 52.5826C66.1986 52.8903 65.6831 54.1445 65.0984 55.0216L65.1291 55.0062ZM38.692 53.0365C41.5004 47.1582 45.8938 41.78 48.8406 39.5025C54.4958 35.1476 58.9892 37.8098 59.7278 38.3253C59.874 38.9178 60.3895 41.1952 62.667 41.5645V54.1445C61.5064 55.1799 60.5375 56.4119 59.8048 57.7838C59.5253 58.2819 59.3499 58.8317 59.2893 59.3996C55.7577 60.0613 51.4874 60.6537 48.6175 60.9384C49.7254 56.6759 54.2881 50.4975 54.2881 50.4205C54.2881 50.3436 54.3573 50.0512 54.2111 49.982C54.0649 49.9127 53.8418 49.905 53.7726 50.0512C53.5494 50.3513 48.9176 56.5989 47.8865 61.0154C46.3477 61.1616 45.309 61.3078 45.309 61.3078C45.2219 61.3193 45.1426 61.3643 45.088 61.4332C45.0335 61.5021 45.0079 61.5896 45.0166 61.6771C45.022 61.7528 45.0545 61.8241 45.1082 61.8778C45.1619 61.9316 45.2332 61.9641 45.309 61.9694C45.3859 61.9694 53.2571 61.1616 59.2123 60.0536C59.2455 60.2057 59.3174 60.3466 59.4213 60.4626C59.5251 60.5786 59.6572 60.6656 59.8048 60.7153C59.0354 63.0697 60.5742 63.3698 60.9743 63.439C60.5357 65.3549 62.2284 65.4241 62.5978 65.5011C62.5105 65.8507 62.563 66.2205 62.744 66.5321C59.0661 69.7636 50.5333 74.1108 44.0625 73.2952C34.7911 72.095 34.4756 61.9464 38.692 53.0365ZM55.2498 145.566C55.2582 145.686 55.2427 145.806 55.2044 145.92C55.1661 146.033 55.1057 146.138 55.0267 146.228C54.5332 146.497 53.9587 146.576 53.4109 146.451H3.23737C1.6216 146.451 1.55235 146.374 1.55235 144.458C1.55235 143.474 1.8909 143.135 2.945 143.135H52.8108C53.5843 143.048 54.3641 143.23 55.019 143.651C55.296 144.02 55.2498 144.52 55.2498 145.566ZM53.1186 120.776C54.4011 123.32 55.9265 125.734 57.6735 127.985C57.7504 129.016 57.7504 130.294 57.8197 131.594L56.6425 131.078C56.5642 131.044 56.4762 131.041 56.3952 131.068C56.3143 131.094 56.2462 131.15 56.2039 131.225C56.1717 131.303 56.1687 131.39 56.1955 131.471C56.2224 131.551 56.2772 131.62 56.3501 131.663L57.8197 132.256V133.794L56.4271 133.21C56.3474 133.177 56.2588 133.174 56.177 133.2C56.0952 133.227 56.0256 133.282 55.9808 133.356C55.9475 133.435 55.9448 133.524 55.9732 133.605C56.0016 133.686 56.0592 133.753 56.1347 133.794L57.7504 134.456C57.7899 135.998 57.7153 137.541 57.5273 139.073C56.4451 137.975 55.483 136.765 54.6574 135.464C54.1813 130.929 52.2453 126.671 49.1407 123.33C50.4186 122.41 51.7438 121.557 53.1109 120.776H53.1186ZM35.6759 104.526C32.0751 106.219 31.1902 107.757 31.1133 109.081C31.044 110.258 31.698 111.451 33.1753 112.612C35.9991 114.836 45.3859 118.621 50.5333 126.077C53.7085 130.996 54.94 136.92 53.988 142.697C53.4186 142.581 56.4194 142.62 2.2833 142.62C2.2833 142.55 0.498256 133.633 5.73797 126.077C10.9777 118.521 20.68 114.644 23.096 112.612C24.5425 111.404 25.2273 110.258 25.158 109.081C25.0811 107.757 23.6884 106.065 20.6723 104.595C18.0948 103.349 13.2705 100.894 9.49272 96.2854C4.87623 90.6686 3.23224 83.6336 4.56077 75.1803C4.63771 75.1803 49.2869 75.6189 51.6336 75.6189C54.8728 95.2544 40.9772 102.033 35.6759 104.526ZM4.86084 74.5186C4.62011 74.5298 4.38396 74.4501 4.19914 74.2955C3.89138 73.9877 4.08373 72.5951 4.1222 72.4566C4.22222 72.1642 4.42227 72.0873 4.89162 72.0873H39.0921C43.2854 75.3265 50.1948 73.703 53.5033 72.5258C53.2955 73.8031 53.6572 74.9572 52.403 74.9572L4.86084 74.5186ZM83.849 75.5419C73.0149 74.3723 62.0989 76.8293 52.8108 82.5282C52.9381 80.1932 52.8169 77.8513 52.4492 75.5419C52.643 75.5577 52.838 75.5336 53.0222 75.4712C53.2064 75.4087 53.3758 75.3091 53.52 75.1786C53.6641 75.0481 53.7801 74.8895 53.8606 74.7124C53.9411 74.5354 53.9844 74.3437 53.988 74.1493C54.0496 73.4799 54.1342 72.6105 54.1342 72.2334C57.1153 71.1318 59.9178 69.597 62.4516 67.6785V72.9721C62.4516 73.1875 62.667 73.2645 62.8901 73.2645C69.2995 72.3251 75.7581 71.7599 82.2332 71.5717C82.9086 72.8353 83.4501 74.1659 83.849 75.5419ZM86.3496 70.987C76.3472 70.4715 63.5518 72.5258 63.1133 72.6028V67.163C63.2595 67.0861 63.3287 66.9399 63.4749 66.8629C64.806 67.163 66.8142 65.1933 68.0914 63.4083C68.9916 62.1695 70.2919 59.7304 67.0604 61.1C68.5992 58.4532 69.1917 56.3142 66.9142 57.1991C67.8683 55.7987 68.3838 53.452 66.1448 54.4753C66.7295 53.5982 67.7605 49.7742 63.1979 53.5982V40.9721C69.0839 40.3104 79.1633 42.811 83.4258 44.1421C81.0714 45.3116 79.3402 49.805 78.8093 54.7292C78.4554 57.8839 77.0551 66.2243 74.3929 67.6016C74.32 67.645 74.2651 67.7132 74.2383 67.7937C74.2115 67.8742 74.2145 67.9616 74.2467 68.0401C74.3237 68.1171 74.3929 68.2633 74.5391 68.1863C76.2318 67.6016 77.1397 65.401 78.1476 61.9387C78.8024 59.6024 79.2681 57.2172 79.5403 54.8062C80.0481 50.0281 81.8947 45.3885 84.326 44.3575C86.2342 44.95 87.7807 45.4655 88.7348 45.8271L86.3496 70.987ZM98.0447 65.6011C95.0157 66.8336 92.068 68.2573 89.2195 69.8636L91.5278 45.0808C94.0976 43.1649 99.7605 39.3409 103.438 36.9173C102.707 39.2255 101.676 44.2729 101.376 45.5963C100.868 45.4501 99.9067 45.15 99.6143 45.6655C99.5451 45.8117 99.3912 46.0348 100.384 47.3582C99.4989 46.9889 98.4679 46.7735 98.1755 47.3582C97.9524 47.8045 98.4679 48.6816 99.8682 50.082C98.5449 49.6357 97.1599 49.3126 96.8521 50.005C96.6367 50.4513 96.9983 51.3284 99.3527 53.1673C98.1755 52.9519 96.9983 52.9519 96.7752 53.6136C96.7327 53.7889 96.7603 53.9738 96.8521 54.1291C97.2215 54.7908 98.4679 55.4525 99.422 55.8911C98.7834 57.8223 98.1909 64.3623 98.0447 65.6165V65.6011ZM100.399 55.6679C99.3681 55.3756 97.2368 54.1984 97.2368 53.829C97.3138 53.6136 97.7523 53.2443 100.476 54.1983C101.061 54.5677 101.799 55.0832 101.799 55.3063C101.946 56.1988 100.399 55.6833 100.399 55.6833V55.6679ZM102.169 54.7908C101.712 54.3329 101.218 53.9134 100.692 53.5367C98.7526 52.1825 97.1676 50.6667 97.1676 50.3051C97.2368 50.082 98.8526 50.3744 100.845 51.2592C101.561 51.8373 102.246 52.4511 102.9 53.0981C103.638 54.5061 102.384 54.8062 102.184 54.8062L102.169 54.7908ZM103.415 52.5826C103.123 52.2902 101.353 50.7437 101.353 50.7437C100.03 49.5665 98.6372 48.0199 98.5602 47.666C98.7064 47.5968 99.5913 47.666 101.138 48.4816C101.998 49.1939 102.808 49.9651 103.561 50.7898C104.669 52.0055 103.638 52.521 103.415 52.598V52.5826ZM103.931 50.1512C103.199 49.3294 102.412 48.5583 101.576 47.843C101.055 47.2637 100.61 46.6198 100.253 45.9271C100.892 45.9928 101.51 46.1909 102.067 46.5089C102.625 46.8268 103.11 47.2576 103.492 47.7737C104.923 49.705 104.077 50.1666 103.931 50.1666V50.1512Z" fill="black"/>
</svg>
